<mxfile host="app.diagrams.net" modified="2020-05-18T14:31:58.419Z" agent="Mozilla/5.0 (Macintosh; Intel Mac OS X 10_15_4) AppleWebKit/537.36 (KHTML, like Gecko) Chrome/81.0.4044.138 Safari/537.36" etag="AFC9TUobOqIQb2Iw62OB" version="12.9.0" type="github">
  <diagram id="m_nGDqTPRAB0vNPxDWL3" name="Page-1">
    <mxGraphModel dx="946" dy="484" grid="1" gridSize="10" guides="1" tooltips="1" connect="1" arrows="1" fold="1" page="1" pageScale="1" pageWidth="827" pageHeight="1169" math="0" shadow="0">
      <root>
        <mxCell id="0" />
        <mxCell id="1" parent="0" />
        <mxCell id="ii2NFjTAbhS2r2lRkWKy-63" value="" style="rounded=1;whiteSpace=wrap;html=1;" parent="1" vertex="1">
          <mxGeometry x="85" y="370" width="145" height="190" as="geometry" />
        </mxCell>
        <mxCell id="ii2NFjTAbhS2r2lRkWKy-41" value="" style="rounded=1;whiteSpace=wrap;html=1;" parent="1" vertex="1">
          <mxGeometry x="50" y="190" width="210" height="100" as="geometry" />
        </mxCell>
        <mxCell id="ii2NFjTAbhS2r2lRkWKy-42" value="비즈뿌리오 클라이언트" style="shape=image;verticalLabelPosition=bottom;labelBackgroundColor=#ffffff;verticalAlign=top;aspect=fixed;imageAspect=0;image=data:image/png,iVBORw0KGgoAAAANSUhEUgAAAVwAAABkCAYAAADKSIhYAAALrWlDQ1BJQ0MgUHJvZmlsZQAASImVVwdUk8kWnr+kEJJQEqqUANIFA0iXEjqi0kEQlZAEEgghpqBgb7iCa0FEBMsKrIIouhZA1ooFC4sVsT9QsbIuFmyovAlg2ffOe++8mzO53//lznfnzkz+MwMA7SFXKhWjmgBkSxSymNAA1pSkZBbpISAAGsCAPmByeXIpJypqIoD21f/d3l4HiMpfdVBp/fvv/9W0+AI5DwAkCuI0vpyXDfEBANBmnlSmAACXQt5ilkKqwiUQM2VwgBDXqHDGMD6swmnD+NJQTFxMIMQPASBTuVxZBgDUPsizcnkZUIcGqwVsCV8kgdgfYl+ekMuHeCHEY2AMzEnbBbFH2g86GX/TTPumyeVmfMPDtQwZOUgkl4q5ef/ndPxvyxYrv+YwgY0qU8bEQ0+H8zZbnhUbMYILeNzgWIhhrUiJUBCuWjcc4mqpIiBmJKYmXRYSPxLTIFSGfdU5I1KEx43ga1k5Eap4CsT3efLA5K99JWmTI1X5Ie5VZsVzRvj3fEFQ8NcYWU7MSAxKzBfGJUJMhFhbnhuritGGWD9fGDh5hLfL5E6IGolnC8ShI3nR8VJFVOS3vOLJqlp0IR8ikH+vUSGMCxvGaIoCboCRvuJ0UUj4iGauUBYWM4IXS8VDe3lIkysLDlXtG8ivEkjiY4d5tJLPDYoY0dmLG+G+uA/ugQdA7w+CgAjIgRSIgQBkgijABRKggN9i+OESHhGugEkgB3IiyOYA2Q9PAqCEzxEQZ0IsBvlINIgFPCCETzKQDXIOMluqO6hN5FYF5LOGoiCPM2FuDu6He+OuuCfggHQgQg1gxsyynDyvBCEIgIpiwIejygIPVT3SfVU8u5VdxT7E7mT3squxrVgT1oYdwRphtGAouyr+W246me5A59Dt6Ew6iW5EtwTBUEs2VNtkqJkHR68Ab0EyZOSwL6yIOI5oDZstYEEfRPQkOhHdfpgbLuyjquHRUGVAIZitUG3cwBxpnkyUIVSwOPCNIWCFS3iOY1jObGc2AKr3z/D2fh099F5BdNu+cwq4Hj5/AoBd+s4lywHYBXX1XL5zNvoA6GwBoMmOp5TlDnO46osAV1MDrrQB/PdYABvgAJyBG/AG/rDWCSASxIEkMH1oRrLhmGeBuWARKABFYA1YD8rBVlAFasBusA80gsPgBDgDLoBLoAPcBl2gBzwHfXB2BhAEISE0hIEYIKaIJWKPOCMeiC8SjExEYpAkJBXJQCSIEpmLLEGKkGKkHNmG1CK/IYeQE8g55DJyE+lGniKvkI8ohlJRJmqMWqFjUQ+Ug0agceg0NAOdieajS9FVaBlaie5CG9AT6AW0A+1Cn6P9GMDUMV3MDHPAPLBALBJLxtIxGTYfK8RKsUqsHmvGWrGrWBfWi33AiTgDZ+EOcEeF4fE4D5+Jz8dX4uV4Dd6An8Kv4t14H/6FQCMYEewJXoRwwhRCBmEWoYBQSthOOEg4Tegg9BDeEolEXbj27sQwYhIxkziHuJK4mbiHeJx4mfiA2E8ikQxI9iQfUiSJS1KQCkgbSbtIx0hXSD2k92R1sinZmRxCTiZLyIvJpeSd5KPkK+TH5AE1TTVLNS+1SDW+Wp7aarVqtWa1i2o9agMULYo1xYcSR8mkLKKUUeoppyl3KK/V1dXN1T3Vo9VF6gvVy9T3qp9V71b/QNWm2lEDqSlUJXUVdQf1OPUm9TWNRrOi+dOSaQraKlot7STtHu09nUF3pIfT+fQF9Ap6A/0K/YWGmoalBkdjuka+RqnGfo2LGr2aappWmoGaXM35mhWahzQ7Nfu1GFpOWpFa2VortXZqndN6ok3SttIO1uZrL9Wu0j6p/YCBMSwYgQweYwmjmnGa0cMkMq2Z4cxMZhFzN7Od2aejrTNOJ0Fntk6FzhGdLl1M10o3XFesu1p3n+513Y96xnocPYHeCr16vSt67/RH6fvrC/QL9ffod+h/NGAZBBtkGaw1aDS4a4gb2hlGG84y3GJ42rB3FHOU9yjeqMJR+0bdMkKN7IxijOYYVRm1GfUbmxiHGkuNNxqfNO410TXxN8k0KTE5avLUlGHqayoyLTE9ZvqMpcPisMSsMtYpVp+ZkVmYmdJsm1m72YC5tXm8+WLzPeZ3LSgWHhbpFiUWLRZ9o01HTxo9d3Td6FuWapYelkLLDZatlu+srK0SrZZbNVo9sda3DrfOt66zvmNDs/GzmWlTaXPNlmjrYZtlu9n2kh1q52ontKuwu2iP2rvZi+w3218eQxjjOUYypnJMpwPVgeOQ61Dn0O2o6zjRcbFjo+OLsaPHJo9dO7Z17Be2K1vMrmbfdtJ2muC02KnZ6ZWznTPPucL5mgvNJcRlgUuTy8tx9uME47aMu+HKcJ3kuty1xfWzm7ubzK3e7an7aPdU903unR5MjyiPlR5nPQmeAZ4LPA97fvBy81J47fP6y9vBO8t7p/eT8dbjBeOrxz/wMffh+mzz6fJl+ab6/uLb5Wfmx/Wr9Lvvb+HP99/u/5hjy8nk7OK8CGAHyAIOBrwL9AqcF3g8CAsKDSoMag/WDo4PLg++F2IekhFSF9IX6ho6J/R4GCEsImxtWGe4cTgvvDa8b4L7hHkTTkVQI2IjyiPuT7SbKJvYPAmdNGHSukl3JltOlkxujASR4ZHrIu9GWUfNjPo9mhgdFV0R/SjGKWZuTGssI3ZG7M7Yt3EBcavjbsfbxCvjWxI0ElISahPeJQYlFid2TRk7Zd6UC0mGSaKkpmRSckLy9uT+qcFT10/tSXFNKUi5Ps162uxp56YbThdPPzJDYwZ3xv5UQmpi6s7UT9xIbiW3Py08bVNaHy+Qt4H3nO/PL+E/FfgIigWP033Si9OfZPhkrMt4KvQTlgp7RYGictHLzLDMrZnvsiKzdmQNihPFe7LJ2anZhyTakizJqRyTnNk5l6X20gJp10yvmetn9skiZNvliHyavEnBhAe9NqWNcpmyO9c3tyL3/ayEWftna82WzG7Ls8tbkfc4PyT/1zn4HN6clrlmcxfN7Z7HmbdtPjI/bX7LAosFSxf0LAxdWLOIsihr0R+L2YuLF79Zkrikeanx0oVLHywLXVZXQC+QFXQu916+9Sf8J9FP7StcVmxc8aWQX3i+iF1UWvRpJW/l+Z+dfi77eXBV+qr21W6rt6whrpGsub7Wb21NsVZxfvGDdZPWNZSwSgpL3qyfsf5c6bjSrRsoG5QbusomljVtHL1xzcZP5cLyjoqAij2bjDat2PRuM3/zlS3+W+q3Gm8t2vrxF9EvN7aFbmuotKosrSJW5VY9qk6obv3V49fa7Ybbi7Z/3iHZ0VUTU3Oq1r22dqfRztV1aJ2y7umulF2Xdgftbqp3qN+2R3dP0V6wV7n32W+pv13fF7GvZb/H/voDlgc2HWQcLGxAGvIa+hqFjV1NSU2XD0041NLs3Xzwd8ffdxw2O1xxROfI6qOUo0uPDh7LP9Z/XHq890TGiQctM1pun5xy8tqp6FPtpyNOnz0TcuZkK6f12Fmfs4fPeZ07dN7jfOMFtwsNba5tB/9w/eNgu1t7w0X3i02XPC81Xx5/+egVvysnrgZdPXMt/NqFjskdl6/HX7/RmdLZdYN/48lN8c2Xt3JvDdxeeIdwp/Cu5t3Se0b3Kv9h+489XW5dR7qDutvux96//YD34PlD+cNPPUsf0R6VPjZ9XPvE+cnhpyFPLz2b+qznufT5QG/Bn1p/bnph8+LAX/5/tfVN6et5KXs5+Grla4PXO96Me9PSH9V/723224F3he8N3td88PjQ+jHx4+OBWZ9In8o+235u/hLx5c5g9uCglCvjDh0FMNjQ9HQAXu2AZ/0kABjw3kCZOnw/GDJk+E4zhMB/wsN3iCFzA2AbPH8mwrNixDIAyrsBsK6Hug0ARNEAiPMEqIvLtzZi8nQX52EtagA8mtwbHHxtBQBpHQCf1wwODlQODn6ugoO9A8BxyfC95Iex/6sHKuUh7b/5fwIGRj6FO8Yo2wAAAIplWElmTU0AKgAAAAgABAEaAAUAAAABAAAAPgEbAAUAAAABAAAARgEoAAMAAAABAAIAAIdpAAQAAAABAAAATgAAAAAAAACQAAAAAQAAAJAAAAABAAOShgAHAAAAEgAAAHigAgAEAAAAAQAAAVygAwAEAAAAAQAAAGQAAAAAQVNDSUkAAABTY3JlZW5zaG90ptAZnQAAAAlwSFlzAAAWJQAAFiUBSVIk8AAAAdZpVFh0WE1MOmNvbS5hZG9iZS54bXAAAAAAADx4OnhtcG1ldGEgeG1sbnM6eD0iYWRvYmU6bnM6bWV0YS8iIHg6eG1wdGs9IlhNUCBDb3JlIDUuNC4wIj4KICAgPHJkZjpSREYgeG1sbnM6cmRmPSJodHRwOi8vd3d3LnczLm9yZy8xOTk5LzAyLzIyLXJkZi1zeW50YXgtbnMjIj4KICAgICAgPHJkZjpEZXNjcmlwdGlvbiByZGY6YWJvdXQ9IiIKICAgICAgICAgICAgeG1sbnM6ZXhpZj0iaHR0cDovL25zLmFkb2JlLmNvbS9leGlmLzEuMC8iPgogICAgICAgICA8ZXhpZjpQaXhlbFhEaW1lbnNpb24+MzQ4PC9leGlmOlBpeGVsWERpbWVuc2lvbj4KICAgICAgICAgPGV4aWY6VXNlckNvbW1lbnQ+U2NyZWVuc2hvdDwvZXhpZjpVc2VyQ29tbWVudD4KICAgICAgICAgPGV4aWY6UGl4ZWxZRGltZW5zaW9uPjEwMDwvZXhpZjpQaXhlbFlEaW1lbnNpb24+CiAgICAgIDwvcmRmOkRlc2NyaXB0aW9uPgogICA8L3JkZjpSREY+CjwveDp4bXBtZXRhPgremcQhAAAAHGlET1QAAAACAAAAAAAAADIAAAAoAAAAMgAAADIAABt5jQqN5QAAG0VJREFUeAHsnelzXMd1xe+AALERG0EQ3Anui7iL+yJBtCxTspbQcuxYipyKk6p8SKUqVck/4I+u8oc4rtjlsq2UrHJkxZaXKLRlWYpJk6K4SBQpkuJOgvsGEMS+Y3J+/fDkJ2jwAIggBHH6lkbziJnp6b6v+/Tpc2/3JJIy8+Y94D3gPeA9cNc9kPCAe9d97L/Ae8B7wHvAecADru8I3gPeA94Dw+QBD7jD5Gj/Nd4D3gPeAx5wfR/wHvAe8B4YJg94wB0mR/uv8R7wHvAe8IDr+4D3gPeA98AwecAD7jA52n+N94D3gPeAB1zfB7wHvAe8B4bJAx5wh8nR/mu8B7wHvAc84Po+4D3gPeA9MEwe8IA7TI72X+M94D3gPeAB1/cB7wHvAe+BYfKAB9xhcrT/Gu8B7wHvAQ+4vg94D3gPeA8Mkwc84A6To/3XeA94D3gPeMD1fcB7wHsg3gPJbrNkl9ntC5as2m12+R1LXjmkf1eZtdw26+40y8o1K5hgibIFZlNWWmJmpdm4OWaj881GjTZvgQc84Pqe4D3gPdC3B/h9gvZGs4arZtUnLXnpHbPrRy1Zc8as8ZpZm14DjEdlm+WNtUTxNLPxAt3JAt3xC83GVri/W2KUWSKj7+9Jk1c84KbJjfbN9B4YtAcAW9jtrbOWPP2m2aX9lrx5PABfgLazNWC3pvcBpjDZrDwBbKlZ4SRLTLnfEvMfNyu/L2DAGVmDrsK99gEPuPfaHfXt8R4YKg8AqK11khDes+SRX5hd3GdJmG5bQ/w3jBKwZklKmLTUEouetsS0dWYw35yi+M+lwasecNPgJvsmeg98Ig80VQeM9rx02+PbLHnjA7OOlh5WG1MibDdDEoJANjF1rVnFRkvMesispCLmQ+nxkgfc9LjPvpXeA4P3QG2VJc/uMDv3JwXLdrqg2aAKySm2BCA74wFLLH/WbMJiSQ8JFcEjPc0Dbnred99q74H+PXD9A0se/nkAuDdPmDVX9/+Z6DvQdLMLLAHDXf9PZtPWCGvTO3jmATfaQfy194D3wJ89cEXa7f4fB4A7EO32z58MrmCzkhcS0zdY4oF/lbSwKQisITekqXnATdMb75vtPdCvB8hK2PN9S0pSsOaaQL/t90O93gDoKmiWsfGfBbgP9OTlpm+2QloCbkdHhzU1NVl9fb3V1tZac3Oz8bek0mAyMjIsNzfXioqKPnxkZyvH0Jv3QLp5wAPukN/xtATc27dvW1VVlR07dszeffddd93Q0GBdXV02evRomzRpki1atMgWL17sHuPHjx9yx/sCvQdGvAeQFN55PpAU6q/0nw7Wu0FOUpB8ULHBMjb9i5cU5J+7DrgXLlyw1tZWxyRbWpRSksIyMzMdqywuLrby8nIbM2ZMinfd+Z9gsN3d3Xb+/HnbtWuX7dmzx/bv32/nzp2zEHBhsxMnTnRAu2bNGtu8ebPNnTvX8vPzLSsrfZdCd+59X8JnzgM3jin/9pUAcHVtTTcH14RMrQyzCy0xY5Ml1v2j2dQwaOazFAbnyEG8+6WXXrIrV644Jnn1qpKmU1hBQYEDuWXLltkjjzxis2bNSvGuO/8TDLatrc0OHDhgL774ou3evduuXbvmpIXOzs6PSQpLliyxp556ygDeiooKY0Lw5j2QNh5wZyfsCgD37HYzpYkNynK11bdUYxnAXfpX2nEWpoUNqpR76s13neF+61vfsrNnz9obb7zhnlN5r6SkxGbOnGmVlZX23HPP2dKlS1O97Y7/BtjW1dXZzp077Xvf+55juPwNIE5l8+fPt61bt7p6USfYtzfvgbTxgAJlyepTZhfetuSxV90ZCtbRbNbVEe8Ct81Xq8Hi6cpQWC8pQWlhAl3+ne6WVoBLkOzy5cu2Y8cOe/755x3TRWJAakhls2fPti1btjjAheVOmTIl1dv837wH7k0PdLYFuu3VQ5IWfqmtvXstWXcx2O4b12InJRSYTVxuicXa2ouUUDTZyQtxH0uH19IKcMNg2fbt2+2FF16wgwcPxt5jWPfDDz/sAHfDhg02bZr2g3vzHkgbD3B4jR7hjjOdFJa8cdSs7nJwglh4eA3vgdUCtOHhNUVTdHiNTgyb91hwehivZWSmjef6amhaAW7IcAHcH/3oR47h9uUY/u4BN847/rX08IDAtL1JRzHeMKs5rXNw3+s5nvG0Tg3T8Ywc3dgtSS4zx50S5o5nLJun4xlX6Gzc+YGMkKvYh9thlr7BsrCvpBXgkm9bU1Njb731lgPcffv2GZkTBMyillA6C/m4aLiPP/64Pfjgg7Z8+XKbMGFC9G3+2nsgTTzQw3TDw2x0Lq4D3x7ATUQA150KpoPHExOW6IjGicE5uWm8s6x3B0krwA2zFMi9RVIgeEbmBClhURs1apSRHrZixQoXxNu0aZNNnjzZCgsLo2/z194DaeQBgW5nuzTdej3EasVskz2SgkDEkmzhDSWFbKV1chRjpn4FAqmBfFxvzgNpBbjhPT9z5oy9/vrrBsM9ceKEVVdXu/zcMHiWl5dnpaWljtU++eSTRnoYqWtsikgXQ5br6ExaS2uXNbd267nb2tq7tRpQLrNeYwhlZiZsdFaG5eVk2Jj8UZaTnbDMUawOBjfAulUg39XVHZRL4RSRoYHKeOWaVce9Nm7xMX2OZ3zqnnVBO0ep0VpkxbY7uD/BPcFnfCZL94T7EtyHe6O3hn6hf9BX5CrXJ5yP6G9q+2fF0hJwGxsb7fr16wbwHjp0yOUJR9PDxo0bZwsWLDCyFCoqKmzs2LHqxJlOZvis3Ng7qScdHCCoa+iyi9fa7NLVdrt8vc1u3uqw+qYua+9IanCbjckbZeNKsmzKhGybPT3HJpRlWYGAFxAejAHkfBfPgA2ADXCEDwCE68EC+WDq8Gm8F/Do7NJDk02nZFAAlGuANjc7QxN8CJypEaW+scsu6f406J4wOeXoM4VjRlmBHvm53Id7Y5Lqko/a1Ofa2rqtVX2E/knbskdnuDYzudBvPguWloAb3hj03JMnTzrwbW9v/zAfF3bL7jK29CItIDGkgylDzgEAAxhwZTCfvdBqF64IdHV9s7bT6hs7de6EAFedPD83w8aNDQB3jgB3xpQcmzoxW3/LHBTwVtd22IlzLXajpsMBDoMnBNksfU9mZoYD3ByYtEC+qGCUlRRqAtRrTaprQ3OXNenRogEJYHU5uih2KOBmMDI4c/VZQAgwAsyof1/MiDIoq12DO2TejllpoPPsineTEsw06QZ+seqUp/JDZhrtL+GEAkDiW/5NOTC2AGx7QBfAFbiwWpgmP5bJt2PyBbx9TGCXr7fb/sONmhDbVF4AQviGNuIn/DVaExVATNvH5GW4+0LbmTRpW3tHAGD4nEmN9/L8sRUFKNfVkybWJWkh1lQYGQmhxMAvQAzA3Feo/YBqg3zVqHva3NLtVljNLcH9bdV94X0h2NIH8Xtwf4P2cT1SJ+i0BlxAFv2WrcfRfFxAlu3FOTk5jtXS+dLBGIQA16nzrbbznTo7eqrZrt5ot1u3OwNJQYOTQcrPXOESBm62WBgdHmY1c2qOrVo8xhbPy7M5FblWWjywgXb8bIv95o0ae/94swN06hEsp1k6BsAIeJYWZ4pJ59qiuXl2/6Ixmgwz7PT5Fvc4ozpfvan7qYHKgAUUGXQADZ+bLBY+Y0q2zZuZZxPLRrvJgtdTGaBIu5kIAEkkFYCxo1Pt7wEqGGnITss0wSxdkG9T9R35Arre5TKRHDnZbMfONNsJtfVGTbu1qzz227CScAAun4bXTFyb1xXZkvn5Nmn8aAeSqep59HSz/fx31XbwgyYHTl0qM0uTS5YAOnpfJowb7do+e1qOzZ2R6+7XrbpOq63XBNrQ6cCXOnMPy+WbIj3z7w9XFCAcPxRJ0Kxa5+I26eSwOHM/saPfNssv0wHk0wf80zr4GEC9Vt1hx8822xlN9ucvBysrwJeJKtyjRP8AdPM1idDP8FOF/DZvZq5N1jUTD6+PNBtRgEs2wLPPPmvz5s0zlv2c6BWXRYCmCiiiufIAKMku6A8gwx1nAG2cUT7l8h1RSaEvoI4razCvhUE72sPJZXz3UJobP4whXejJGdDDIDwt4DpwtNG276uz42da7LYGJYMgzgBfBufE8Vm2fMEYB4arloxxjJdB3F/H5/t++N/Xbfe7Or1NdYBdprIJAoNlAjYeABzfeeRkk6snwOsAFwbZBoglHUsGAB3glme7CWHB7Dwnf1RMyrZSySHZAigmjqgBkIdVLuyeMusld3SIeTmwBXB1zTLXsVOBRMXUbHtkY4mbCGDesMSoXRQDfevdBttzsN72vd9o/JuyHBOPvrHneqHq+PSWUtuwotDVuaTo4/efewi7/cFLV+2tAw2OOcPIMcCINgUSQ6ZNU1uXzs+zBbPUdoEur1EH2lknwGUSZUVRVJDpJqPxpVlOKiopFFt2EpEKZXcZaWH8mGTtWfc9ff6PYJm29VrpbP2e2WplK2jTQ4zhR+45/e8yq6qLrXbsdIsm/hY7r9VVtVZbxBCoZ9SoM2wW/wC4TFTzNKFUaGJlUmX1xf3gPaw8RgJvGlGASzbAV7/6VZd+xVK/qqqqzywCwJCzDTjZix1gFRUVLtA1EAngxo0bdvjwYeM5ziifcpEWokGzvqSIuLIG8xogi6zBVmIO0uG7h9JC6QDQCAc94HWqqsVe/b9btu9Qozp6q2O2ccAQrVNCmMUAp4PPUaffcH+h3X9fvhvkLI3j7J0jAMc1gVK9Y5QwmVRWLqYG0E4uH+2Ask7skzpfu9nhGB4TA4M3bBN1cpKCmA4yAuA/Vmz3PgHa5vXFdt+cPAcsBP2idu5Sq/1xT529q3oxAd263eFYKH4LWaibtERNYacA5FceG2erNcmUlQbsOVpeALj1tvu9Bnv7vXq7eKXdTQiUkcrmz8q1rZ8PAJeVAnWOGp9jQnlb5X33hasqt/4jAE67eXBPYarIPKw8pugZfwBsIdP+cMUiFzAxhnIG7Pq+2bkOwEqL9CJyAj8iqQPJk5cPRKvz8Wt+5UG/2mtTV1li4VZtfFA+boy5FYUmtg+0otr5Tr2rW418zuqiSZICEwl9FV9HjTYyeTjJSPeXyRU5BbAlpsB9Xr5Q7Z6g/qLXafunbSMCcDl7ll1cZANUVla6k7mOHj3qzl6IS9sCEAGk6dOnfxjgIn2LsxnigBcwf/XVV51+G3cDAHK29KLnlpWVuXrxfk4bI6WMDAfOZoAxD6URpCNgx/cSvCOIdycGALFMbxVLYGlGB6cz04nR+bK1BGVgfqAl78/+96YYbpM6ulidPvNJrHxclgPGNUsL7MHVRY5VxXX4/WJ9//FTMTUBbtz3wmRmiaEBCmh7tXUdYqACW7VnIOai+GK0lLF5XbFRP+QP6usyInrGIyC+bXutmGO9k1VuignGGeD010+VOUY6MYUEQOARcITBAyho4nEGS3vyc2PdpMUSmcBk1JAy2tqTtlv1++5Prtjeg0rREgD3dbfc/VAdi+U/JJfrWrKfE4tEUohaCNDTJmfbumUFtm55ga3V85TximGQAqaDyLv/9G0NgN3Rj338WilhCc5N4LfMVjynLb6pz0Zx7dAkiRb9/okmx9jxUZVkhIFO9L2/HBAu0qQ/XayeiZCJBh8S2IUMAM69VzS9y7ib/x4RgMvRhwBa+EBPBWg5HHwgkgLACxvk/NrNOk5x4cKFjiEiB6SyvXv32ne+8x3jOc7Cw2sAXSYEJgaMc3RfeeUVd/gNZzOwg20oberUqbZu3ToH9qtWrXI5wHdSPss1lupXpEuyTGbJBovD0L3KWFpLi2X59oddt91SzjGK1ESz36rAdNHQlkleeOrzY8V0x1i5lqkwkFS291CD/ftPAsAlEs1ATGUMFsAWpsJ73CTC+3stNVN9lr851qf/UTfYHoD7pUdKnRSA9gkgY7Da13YKcDX4DwsIAKg4WyxN+WtPCHDF6hnYMOmoBcGtBicrbN+rs5gvxQPuXLHaL1aW2HqVBwvvvUKAyQOWAO4PX75uB8TEU3ssqAX1mSyWN1rBRz4H6DKx4b+o4R/kOJbnKxbl2/rlhU5LnjFJDPsuAC7xAmSNg8eb7LU/1dohPTO5NTWjwWsC+Wj1olWNveZeot2P1QSDzLVobr6b+Bdo5YDei8TwadmIAFzkAZbNsFIMxkgwC610IBZ+Hu0XwAUgAV12hqViutu1tfeb3/ym8RxnnBDG6WWwbrb5wpwxUsk43pHPcxIaE8NQ2p1uKWaZSFS3UR0XJntLTBDQIJpNIAKwhUVkqN8RhEKzy9FykiDRewrAXNPybigMJom2uf7+AlsmhoUGm8rePthg//aflx0gUXci+H0ZoIB90sHIZwFsGDda8NceL7M1YnGAGhFvDB/94a3bDnAPHuvfH4AikgKa63Sxw2IxqaihA6NTo+O+ufu2m/Cir/e+Zjm8ZVOJA/DF8/IdA4++hxUKkycTwk9/c9Oxw+jrva+ZTAvygzo1NHU6dtz7Pfyb+Qb2N31yjm1cWegYLpPS5DL5ZQgBl3sHoCIFvS+QRWZ54+06RwbCbJBU9Rvs30KNl374gFZaKxVoBXTLJft8Wkx3RAAugS4CQ2H6FTvC2G4L0x2IhZ+H6SIDrFy50p544gl3zCNaaG+mC1Dey4BLIAS2ClMjA+D85VYHuLBcJAUYBAwH4GGZDmtkULZomc5AZkAPhVH2THV2gOhLXyi1hQrahIAZLR+m9u0fB4DrlsZ94230Y5/4mjrAZqnb5yQtsHRevvDPEwLL7TffFuAqGIWOS8ZCnBGMelrtW692zhJYwqyidq263QBu2vn6ztsO0KOv974m2+PzG4od4EbrFb4PDfaMAkoA+C9fr3HZD+FrqZ4DqSB4pUMqQl8TGrISWvdSrUycJr20Z2WSoxsyhICLxIVkQBbMr5WdskcTLtkIBGjvZCLt3XZ3n9XHYfhM9vhyywMltkSMl775aTDdEQG4vR31Sf8dRvfRPQHcjRs3pvyJnHsdcGGzaGKwKgJgpy+0BNF/abhRCwMOpBEx2JARAGKeAWPSvWBrBJV4L+zTAbYAOdWSNFo217AImBUZC3/zpfG2cnHBR9KxQqazW8AB4AJIAzEAhMSN/Jye+omZ8jfSthqbAp2a+vWnQcPsF2vwwcAf1UAkQIVVaYLavrfOAe5+yR1IAnE2XxrhUw8HgIv+WlryUcC9rmUy0gTt+92OWjcRxpVHtP2htUUOcFdKg2SJHzXuL+WhMbMUZ2IdCkNqIcC2dlmhfVlZEqTf0S8yTBPwEAIu+jurqX3vN9jPtpHW1ug0efpXnLEiox+yGkOeon9h3OdG3e9QjurN04L+ktD9DVZc6NPou6xqAOVUJCCuHnfy2j0FuOhPsF30XCQF0syefvppF3iKOuleB1w2KRCk2SvmsEeAQZAGvQ4gjRodjc6o/9wmAdhlCLZ0aNKJiPIyCAFddpmRqnNWAzxV0CVaNteuo0vOREP78pZxjklSFgMbC5kOTBJJAaYzEGMHFkBOYATWQpnoxnXalHFKGygC2SRgTHHl0UYCSutXFNjXt5Y72QOf4C/ykKkXfkSKiTNyW594aKzTXFmy9tZc2URCziwBoW1/rLWTCsrFGbIEwUZWBm5JL/01apeutRu6N+Xt2F/n2GH09YFchyATZZSkU1WuKXb+YPlNNghjKpEULR5CwGXCQK91UoIkFnKo6XcxSpJrktNmdc+YKGdqUoKl0g6YMXEJykUX7kubdisupfCtlTb9FwpKsjIBwAHy4bIRBbghYJL3ysYDgmmkSPF3dF1O+yIrgEBadKNCb2chISAlrF+/3r7xjW/Y6tWrP/KbZHcKuEeOHLGXX37ZnTpG6hrn7KYyl0Kk6RZ5hPr39csS4Wf5zTTaDEN/9NFHXf0JBA72RyxZAjvNUIAxEM0w/P7wmY7J0hj2x4CvEADAduul/52qanXsiswCpIpU+ZFhOeEzS+TPKQ2LoNIKpYqRtoOF+Zdokd998arY+MAAFwZJYAl9c/WSAjcxkG1BEj9ghi4YLlNTTTRhvUKNj0j8P3xtoq0RE2dQXxGjBWhhkLsGkFUAM37swSDItUh6LoAQNbeTTtIO5f3Pm7dc2lP09d7XTHQb5Sv8hdzBhBK1KtLWYOBaGew/3ODqG329r2smzbEKGjHhEVRiAyX+aVfGA5tF2BjyWKWCnAqYTVLecqGkJmfdQwu4MPLf76p1EwbAC1DGGaBIvjR500wK9KdZ05Qu1wO4BALdBhgCwnrgbw4A7C2dwIiZZNk084yCnGQwsIJjsh4uG1GAG0oCAAwpURUVFS7Plr+T+wq4kT9LBkMcgIXlEPR65plnnLRAWWi82J0C7qlTp2zbtm3ud9rishTC08nYxEH9mTDijPpRz7Vr17qf9uE33siMCIOJcZ+NvkagDNBggP/XqzcdQEaZTPS9qa4BkC8+VOLAjM5Nx6bTA5Bsoz0mtvZ7aZHvaSlIjinfF2ewSFKnYGxfUDCIoBDGYCeli3p+X2lhJPL3ZwkxGpbwT2oJ78BWYFSsBP1AUgjKYxD/6g81rn7hLrlU5VIW7YLN/f1XygVuhQ6MqrWFGfCnXjsEbAQY44z20C7aRztpb9SoAysDyvuVNFc2lMQZAAvQUh7BKwA4aqSt/VbSBBMVOiiR/v6MtpJBwQR6n6QCJtFcSTLo/TVqLzoz9xmQR9tGy0VOcDaEgEs/5P785Nc3nMRyvSeHOq7+TBSALcHJh6VtEwvgnodAyWRxu67L3tdmld8qnQ+fEBxkIokaTBapjDSxxx4c63ycKu0u+pmhvh4RgBsyWwCH9Ks5c+Y47ZUfkyTPNgRcDpvhaMXjx48bvwYMs4xjuoA2Wm5lZaU7apFNEtidAi4/iskPUZ4+fdoBKYw7aiGzpX7U89KlSyk3cISfCScI2g7Yoj2TbTFjxozwLYN6BshYWrHsfP6V6wYbDTcFxBXEoORewEL/7i/LXRDIBRd6MQDSmgKNs15l969xurQkLU9Jc3pGWQEwU76LOnFoDdrmD352zQWo4urnsgskJ6AF/+2XxzvwYCdUdCcbA/oDTQi/eK3alXv2Yv/SwlKB5Ne3jncAV64DeJhACJZRrzcVPUc+ibP+glwwMJa8AOQrr9W4+sWVx1IeYAT8kBaQGKIWtK+mp33Kp1UQLc5gh/hpoQCLoBH+gykCWOyiq9YmA4CP096QR3rn/doQAS6ME52WuML3tUOOVQgrpL7S+lx/VMPGa8MLejIrEVZKnNvhtGW0MFkoTR3W9mnu+x5kIMlqfREBJh4mNKSkTavk314Tmiv0Lv3v/wEAAP//nWKlGwAAITlJREFU7Z33lxTXlcfvDBOYyDBDGkAwZAEiBxGEhKJlWSQFy5INslj57Mparc+Gf8A/+pz9afdsOOu1vbIsyZKRLRkhy7IiEkmYZJJIIuc0TCAMA+z93OJB01Nd3dPTzc4s754zdFNd/erVrarv+77vvfd1zhU1yaL95Cc/ka+//lo+/PBDew07VKdOnaSwsFCGDRsmDz/8sEycOFFqamqkW7duUlRUJDk5OXLhwgU5ceKEtbF69Wp5//33Zdu2bbb90qVLYc1Kv379ZPr06TJz5kx54IEHZODAgbbfp59+Kj/+8Y+F1ygbM2aMzJ8/377Pd7t27Wq7nzt3Tk6fPi2NjY2hx6c/TU1N8tVXX1k/161bJ4cPH5b6+vrQwxUXF0tVVZWMHz9e5s6dK3feeaf06dNHysvLQ/dPtvHyZZHmS1dkw1eN8tri47JyXZ0cOX5RGs6G+8m1l5ubI3l5OTJlbJn87feqZcq4MinIz5FOuj3WauuaZff+C7JsbZ385g8nZMvOs7Eft3ifr22UFnWSqePL5G+eqZbJo0slV6/p+QuX5dSZZlm2pk5+9pujsnZzQ4vvxm4o7pwrVV3zZar2a/7cHjJuRInka3/pd6zt3n9ePlpxRpZr/9ZsapBDx5piP27xfsTgYnnym91k+oRyGdC30Pq1bmujLNd+/WlZrezad77Fd2I3DOjbWe6b2kWmjy+XCaNKpXePgtiPpba+WfYevGD9eWPJCdm8I9pffH+itkN792q7tB9rXNdX3j5mfkvlulZV5MmQ/kUySf3+4F1dZfigIinW66GPnVy8eEWa9I9rkZsrUlaiz2KBvom1y816Q6kPdi+Vy0v/WWTv8thPW77v3EVyKvqLDLhbcsbPF6keY/s0NV2W+sZLsmJdvfzXG0dk9cYGuaT3aSIE4rJ20uvL9Zn3YJXdjzV9OkvX8k6GCXoLmfH9y/oP1/3jq9d97eZGOXw8/LpXqj8Gqz+m6/0476Eq9Udxy3PI0pac9gC4gG2XLl0MaAC4KVOmGAABRLF29uxZOXnypAC4b7zxhnz55Zdy/PhxA77Y/dz7nj17CqAJ4M6bN09uv/12+6itgOvaT/QKsAKw9O+tt96SNWvWWL/pf6wxkOTqXU4/R4wYIXfddZc8+uijMnz4cBuAGIjaYjv2nJMln5024OAhP3byYmRzDnCnKaD96Pu9ZaoCL9vcje2+7B6clevr5eeLjsqf9cG5oA8tD0+Y8X3auXNMqfzt/N4yTYGksEAH0aYrcvzURevfL357VNZvaQz7+rVtXco6yW3VhQaM3/lWd7lj6I33h9vxwJELQt+WramXz1efkb2HLriPQl+HDSySOfdXybQJZTJsQJGeh8jGbY02oLy/9LTs3BsNuDV9CuWeyV30++V6jmXSp+eNgFvXcEnoEwPL6+8e17ZvvA/iO9Wre4ENJgwAD06vkIG3XQdcwIVBBMBiQDhTf0nOK5BFWf/ehTJjkg4Ien4Mpn17FUbt3vKzDAHu2XOX5cRpvd46EHLfrEtyvTsX5krXLnk2QD8zu4eMH1kqJUW5Nsi27KSYj7nu+GXp6rqE171Y2+hemW/30XOP9ZSxOnDfLGsXgAuTg9HNmDHDGCVMDxCOBxyYI0wX5vjee+/J559/Lhs2bJCjR4+G+gvWOHToUAPcp59+WkaNGmX7ZRtw9+3bJ8uWLbP+0UcYPv2OZ+KO2QOws2bNMjYO8ALAADGA3BaD2fFwcoPD+GAAUcbhOOad+lD+3YLqABhhuJ1u7Mfly1ekufmKPTC/VKa1UhkLD9LZ84kffNqeoA/M80/1tHa7ludZG4eVedM/GBvMLcqMqSkgwvzmKuO5XYEyzA4ebVL2xINXL5+sOiN7DkSf99CaIvnWvV2tXyOHBCDOAAVALvn0tDBwRVk/BbS7JpZbv2DfDAqx1qCsDrbFjOCVt4/LX5KcZ89u+TJqWIkB5MMzuhoboz3H5FYpqPzLLw/LCm0vaqBzfeCcntIBCr/171MgXcry3EepvWYIcGG3h/Ta4NdXf69+0EEtygBF2PjUceXyzXu6ylC99tyLcROaa01w3b/coAOt+uUzrrvOKsKMGRegiz9e1Jnc5NFlYbtlZVu7AFym6kzZZyoTheHCSqNsz549Jgd89tln9sr/wwzWjKxwzz33yMKFC2XcuHG2W7YAF1A9c+aMbNy40QaEFStWyPbt243dhvXPDTRICEgJDDQMEvHMPuy7qWw7w1RW2R1TOKb+m7eflUsKljy4UQaTeP7bATBWKsMo0ql8mAFKtMsDxM2N1BBlY4aXyLPzehiwASpIHwePwvzqTfqAVUaZPYCDFXCV+T16b6UAlGFmD95fFHDX1sunq2oVcMMfPPfdIQDuzOuAq2OdfLXrnD24iz86Jdt2RwMujBGgnaZTVJgkjDLWkHKOnAiY/C9/l3xg4TwBSaa8j8ScJzMIZgXLVSL6VwVc2ByKYKLraTMWnSRNHFVm1xPgKivJbSkZxHY27H2GAPcGpq9S10a9H6PMZg53BlLN5JCZQ/x3udeX6oyG+3HV+gZjvPH78H+ub54CNzOSf3iuj127sP2ysa1DAu6BAwdk1apVBrZouTt37gz1TUlJiXTv3t2A/Ic//KFMmjTJ9ssW4B47dszAFqD94IMPZMuWLabboueG2YABA+S+++4zKQEZhcEhjNmHfTeVbWhzPOyrdNRHI7Wpv2p16LtRhqb12Deq7IEfpFoXoBtmML/3rkoWm1KQLGBtz8wKtNI+PQsNLHhIlikwvrnkuGxK8gACRCMMiMqNkSYC3P2H0UsDpsPDty+JpABzAsABuOGqFwJU2xVkYd5v/+mkfPV1NOAGmmuZMdJ7p7TUXGF2h3W2AfP61TvJGW431amROWBgs++vtPf4H50VCYF2fqqSArOXRGDL/ujvZSV5pn3+QAdQdOEwzZt9Iy1DgAvTP6RMnyn/Kyn4Ae328YdV6lE/DFJZBXkhyrbpdXrno5MGuNt2n5eTOusKs2AmJ+bff3q+j7Uftl82tnVIwD148KDpuDDcJUuWyI4dO0J9c7MA9+LFi6Yjw2Y//vhjWb58uem2hw4dCu0XgUBYPUx+zpw5pl3X1NRIRUVF6P7pbuRhJJiAVgazAkCOn2qWs+eig2dMkWGRABCsiCkyN2m8EUz64+en7QZHDjiqLC7KRqnm+vQsndpq27BC2DYyBwCy6A8nkwbfCHYQ/IGZPIakoNPNMHNBM8B2jQbiALsoox2CMjzYgDjnyrnx/bc+OClbkwQFYeujTQIol2+YBHBdc+W4MH+CZpznm+8lD5q588RP9MudJ4MnEgz9+lUKEkxpcSehb/iLmcWY29PUKjMEuOdUcjpZq/3XwfDnSgDWbYkeMGxGpBor92HPqnwp0fMJM8f8129tEIKSMP+jGq9oTBAk5voyqKJp/+NCD7hJJYX9+/cLLBKmCpPctWtX2HWwQNzNkBRqa3XaqrIGrPudd94xXZksBrIZwqx3794yYcIEmTZtmjFcdGYGh/z8/LDd27QN0HVMlAceGeB4kuBZheqrTOeYIj/+cDeb3pJVEA+6sMB3PzllQLJ15zkLgEV1drQ+8N+bE2iJ1RqJJ0K+Y69O3RVAYJJbdRofZUTQ+R7Mj3ZoL8xgpO98GDCd7TAdfcijjODbU48EzJvBBp+1BiCrKvJNX+QBnvNAS22ZwCB+h3UvUX9tT6IJw+QIlHGeMDyYHnbaskPSG6DmPViZfjQ+Q4B7UXX/cxo4QxL5t1c1qLwBwE0siYwbUSp/9WQAuGSnJJK2CMbhY2Zyr6tUQYbJhYiZHDowQVsGtB8t6G0xi6j7I5OftQuGC7OrUYY3UzXcZ599VsaOHRt5ji7NDMAlOEWQKswSacOZkhRcEI/jr1y5Ur744gtjuLt37w7rjhQUFEhZWZllJDz00EMydepUC+T16NEjdP9MbSR4hpwAwyVtZneSIBI3I1NRorePq7Qw4Y5SAVSIEMMMeHBgyUgAiz8+JV+qXso0nulumAHUBOPGjyyR555QbVhZMwGwRm2DaSCA+/sUtNLOmq5EpgJTY5gy/YpNYyKQd04fNNg22jIBlFTSpsaqtvz9x3rYA9hdmRRZCgfJKlB/vbb4hGUshJ2X20YfemtmAhkAT+gAhXSCDzlvBhWnoxNcBBTIWIiyCg1q9WfAU0BgIHCBvGMKKlsUuPFXKsG8G7Idpmm2Q78bmXdUH274LEOA69IVV+v98p+/PmKxBe4jfBRmzBq+OzuYEeFf/BxrDIzM4JhZcS8SRHxfZ1zJskrIfqjQ1DIGtB881cvuo9h2s/m+XQCuCx4BuM8//7wFj6JOevPmzbJo0SIBOHlPaliYZRtwXZra2rVr5e233zaGi9xRV1cX1h0LiMFmAdpHHnnEwJbAHrptNs2CFQqIAAgMIFmwAlDNV7kMKWGSRnDJm+WV/6MLoknCAHlwePBhb4BnogcnaC/IfnjhmV4WpCDX87Tm4BrzuwogyZgf+cBokOib39QgF2lr6K9onpjTSldpvxa9f9KyAdA9AeJEBihOUgB/QfODATim4U0XL9tDDLClEuQi6l2iea0A97cVIPEVenMnDc4wCBGNX/LJadNcCRLSzygrLw3S35A4GFiQYrDWZl8ky56I6sMNn2UIcAFI/giOvqbpcRAAzqle0+bCjFxZshOYOYwaWiI9dDCMNSQp7rktOrtiprVyfZ3s0hQ+crujLNX0wqg20v2sXQCuS/wncLRgwQKZPHmyyQHxQOSyAMhrJQ8XWSGqoICA2ciRI405P/HEE/YeRwHUbSl8YBp0WYdr0tEIjMGyFy9eLFu3bg1N/3L5tsgbgC3FGPzx/zBz++fl5WUkiAaA8JATuf3FW0ct4TxqyuX65G5MgmiA0m063QYoaYtUK1gFKUoHjjQFU0P3xbhXpoKVypCRKBYqwx2vzJlzJC8YMALY0IKTMRPXbDV5qsqWYUAjFYzQ95A8zjQ0W7YEDHfpl5p/q4MCD3giI1JdWJijwF2uBRm9LIcW8GzSTIDWFGQA2gwqA28rlHunVBgjBRwYINBvkTg+1TSlnSolwMCZIUSZSSfK6K5JJ3qeGOfzmZ4X/oIpA1ZRNqh/Z9OUaQf9Fj03LcsQ4Lpjf626/YfLa+08iC8k0thh6MyyJupMhvzmGi1KKe7cSX2tdRjqw4azgZSAdsvAz/1Y39hs188dK+y1V7cCQR8GyB/SQpBB6TL/sMaTbGsXgBufj0oBADmz8VNtlwUAwBEsA+DQSZubw0c0AC0blWZOSuD47777rkkJAC8ADBADyLHmzg92i5SAZFJdXW3yQux+7r3bv7RUp/IZSBOzvFnNTFiv2tZrmv9ImlhUUMH1AzZJvmJ5aZ5lKpQU52olWq7d7HUKbrV1l+SU6qMEQ248Y9dC8Mo0PUhzKpdHlLGQhgVIkZu6TiuCYN4fakUXD2IqZgnxqjPTbh/VdLvo+wLta6NqeQePXVAZock0vUZ9IKPMJcDDJAkq8XAD3E4yIV0NrREmn8w4H4I6PZTZooHTNtvOq2/OKINDNyfoRYBHiVmk0Q7giMYYG+xiQPqDZoXgL1hiskIWgm3kK9MOwUZknLQsw4BLzjaDEAz39ypJbdf3cY+MddMGatWzh+gsZprOZshQIdjK9SfjYZ/O2rinN+1otDaQXIAC7vcoA2AfnB4wZ2YlAPvNsnYBuO5kXTCJfFn+KIaA5WGAKtN1ymT5g+UmygJw7VEqTBYAUgXt9erVyz5qK8NFMqAvBMmQEpAUqICLryRz/XAA2r9/fwuU1dTUmJ7L9jDr3LmzMfy+ffsaK4epZ8KYshO0oSBgs0beCTSkaoCHEjbJVVaIGXBE45kxPEAb7XCmpkshAcTe4K2dIsf31WnNgBvHoQjg2gAQ/cxZU90UHEmshwHOuk/zevXBxtxUlYHp3xVwiXozdWV7KgYDc8Uiqfgpvk3OB5kEiWPh4z2t6ox9tu46K2/98aQF33ZpsDHZ1BktOcgK0eoyTcNDqkjLMgy4FMgQyCStjfNZp5kkVjGn7D/W7J7Tm44ZzB0KtoOVsfdVWQstH3ZL3GDDtgZj/mHfj22L91wTJDHkCYKRruoubb/EHyCF/7crwHXpUjBbwBaggeVhDQ0NptUCdDDdqCwAd94UEqAJA7ixaxO0FXAJipH+RZCMYBlBs7BKMtcPJxGQiQBj5TWqksxp2qwpQQUazDgT5irPmJKmEjyLPyYPAH8YjCSMlQSfBv+6IJcF3zSYRJALIGFNBIzgEaBG9D6VEtyg1ev/Oq05qD7KMUAk9xiQS8XIBLhfg0kALgE9MiAwzotgzJpNjfLfb2pwR/vHegjowalYlJ9i/ZeorSCok2fM9AdamUeFHob8Qh4vDPcw2mcSLXicfs+i/ArcVcoUE0X5E/Xj2vYMAy7Xh8ERieWjFbU2oCEHhDF2/MV9VK7BUvR17h0GfQuQKnBzXchSSGVA5Pxh+VSWMRCN1yyIoquD9bVzzfKbdgW47lxdNJ+IPn8Y6xO4v0SFBO77aL8Eo0i7AnDRhmmHdrF0AZc2kDDWr19vGjLSBulgpIVl0hIF+9p6jHQrz1p7XBbAKdJpH4EjQI2sgm/MqDAGiW4KUGIUJAD+AAigC2OJsiggi/pe/GewYR4+GOBcTeOarGs8MFWNZzosykPwjT6S20taVjpmwT5lVgWauQB4MOUFLKkaCzN0cnRcNG+CefiPPdcqI/zpm0fNX7UaGEo0AAR+yrFg5wvfDUq0o9YgCOvDDdsyDLiubQB24/ZGWaMZNF+oj5FMCPBeSLI2hPt+qq/uvkHuIcVuqg6wsdJWqu1kYr92CbiwP6QE8lJjJQUKDJAW0EmjDIaMBnz33XfL7NmzLQ2LdmgXSxdwaYMgHUD76quvmqzBimH0K5OWLcBNt/Kstefm0qTQbWfoGgNM4Qi4VShLge3zAGAuCISWF6RLRQeBuHxtmaoHRxUDVjIuYDpzHqi0/oUxHTRCqqIYENBzkw0Irv34VxgrOjPsimAaAcuo/GAGBLIeWEyHWn+yHogLrNK8VUp68VdU0NNlhVBu/JLmmfIazALie5bi/7MEuK5yDqnrc11sBokB2aQ1UlcqZ8B9w0B/uwZ/kY6QtgZrHCFtTTuVgybYp10ArmO09BEWm4zBJjgXvamCZR6HDBliyzESfKOcFzkh1tIFXNogB5jvv/LKK1bgENtupt5nC3DdVLm1lWcAJCwN5kXgjIcX8HbBCTe153OYI0yiRpcUpKAAnay/LqlXqAzPgaXzE/nAn2heMIBGnnCyZRRhaQTKeHhgQgTJooDHHce9ot8xLUUHJMNhoqa73aXT7X76fzcIuH15RSOl4oyFcP64tNbAgOolzj0VC7IgAn8MVP3RqqUUSGF2tMlCLrFGHwjakSmBH1m17cXv9TaGi69ZvvJni44FJdrKAsk+IcDHH1NspupcY5emRrDsRWW4LMvYJssS4NIn+kseLXIJlWeweIKn+B6pAN2cfdIx58+y0lwhMwFJa7auCkfBTFprSqTTibjvtAvAdat60beoxV7i+t7ivy69DO3zySeftPQyVt5yOrD7wq0KuJw/N29rK88ADliakwg6KxgwvXZTWsAUjY3Pb9OpOeyRv14aaScdzBVMxIPa1wpmrDcL4DIIkF0QZUz7p4wtNdDkoSQdLZVsC9cma0KQKjV2uAKtMm8CZj2qCqx/bp/YVzcjQFogbW31XwIwIH84FbNsAx0gYPozdREWKsgIFJJ7jEwRz5id9EAwkPQn1iP+6+/00qBZqYHpTg2U4a8tWpGHPMSgQyocr/yREQEwA9ZcC7Tp5zTohobeJssi4NIv7qNazVc+oDMKfM1qaqyVi+TEZ8nW/kh0bs6fpOvdrYsKMVMAbKu756e3pkSiA7Vie7sA3EGDBlm6FEEz1rqlVDeVoJgLRvE9NFuyEFh1DMAl/YpgE3pufDbArQy43ButrTxzgMvi3OhfpCzBLh3TAyC6aATcAFeBljxZC44pI40yNDvWmwVwSXNKthYDa9XO0sVcWCyG3E0Al2k/aUakptEfmB4BL4wHDj0Z3ZTIP0ExcopHDyuW8cp2WLc2rGQ5ts805bIpSEGi0gv/USGFBhscLwgmwuDzNBGgID9g+t26asVY74Dpsx5AsbJrznmLTps3aFucL3I2AxH3MkkrpLcVaH+ZLbCQzqO6bOTgfqzRG6wdzJSb/tSpBmxgq0DlAJfiE3KIYfIMLoALq6CRhtcmA3Avqb6+b6VcWfEfcuXA6ujmOpdLTnlfkX5TJGfUkyI9R0Tvf/VTzoNAKiu1Ub24Y09Qlk0uMyl15DBHpX0FfoTh6/XWQYeKvW6VeabbztT1ihn4kHQSrcmQUifbuFO7AFwKHV566SXLTaWYgYW7U0n7chICOa1otuS3skYBkgLMliBXWDbArQ64dmMrUAF0qVSecSMDXuRBPqYr5JM0ztScBxtzmqFjZrBh3sdLCPH3qqWpacI6bA8gS6bd8cDwywyklvGLBWfPay6mFgPsV+ClgutkbbMtWALw0jP6QA4xDxlVVwHzLjBWC9sksMe5JTPAnCkuxwAw9xw8b+yL/jY0BtN6A3Ytoigr1pxl1WqrewRsn19rYICoUvDFT8wMYMintK8EhxjM+OOXDahMYx80R14J4jF44WuAn/0JttGfQEpwr8GvNrCd/NSLKjXwfQZAcnFdJV6y80z4+RWtBLuks48jm+TKxkUix7Yk3NU+KFBGXarl6j1HSc7g+0UqB0bvf/VTzolzgL2Tt7zvcJPNxlhvg1kZC/dEFTY4rbZCry0yEWl+SEcM1Fx/NNtCveb4+//Ksg64r7/+uuXLAqAEnMIMoGQNBfJwWUuWPFuY7t69e3WadN5SrmKDZQ5oYbaAKgUOo0ePtr+wgon4Y5Jl8PLLL1u2Qfxnsf93zNsVKvAZ58D3oxbNiW0jnfecE4MIx4Wp049MWmzl2bVfbNCHOdnU7dqyjaoNkjyeaNnGVPvKOrMsp0deMGsqwFSjjIfnmau19QE7Vf1PH0wKKGB9LMdHfqaVGOszFQu4rFELM2fhcwaEdMyt1gXw7tfpLoBbr4CL32C2tAs4stAK01YYtQNMgJ3p/jW99WrcF6B2oAtgpGPweYJqsFv6aNNwBS9YMgNLuud7rS9XtLOw3DP75cq+VSJ1B699FPomT0vV9Wd2pMttktPzjgB8Q3cM3+jWXOB67lLpiEEOOYVrzGCFjo7PWfOC2QzwyeDuYgg2s9C4ASu/EUcgB9lyta8ShPCj3pytWQdcclQBzSiJwC1eA4CygDdFBEeOHLE/ihv4f2wwzWm1/OYZubr8kZlQWVkZWhIc70q3uleydC60X5gy/aNvGGlhfI+qMnKDs2FkQ3A8jhumQbf1mDz43LD8pM2vtPKMRVUI5DAljTIYIrog0XMCMrCIthjT49/pKmFkAPBAwfqijPLUBVoRxrEBT4CEoBlTTf4AHM6L88OuSQq6H1NM9iegxPZ0jLYBM1gYyfsuYMfhaBJWCXgC9ByLP1g0oIrBUq0s3F6DHvA9l7mRCtsOvtXyX87YriuSCvioB+M823K+149ytcMXdcHws6d0RZ7oVd0Ciq5lxPm6BgTACwC3wgI/iQUFGUAYRGHuSCikw1HkYEyfa66zGWYGXF9mBMwuyAhhZoPMxa9bcA0A5HQHtFZ0PemuWQfcpD0I2cGVzgJsMMp4wAWMCLQBuLwCjGFabUjTflOMB1hekdW+WJ8U8DuRpPKMm5kFRSiFnavpVASdHFjENJvyWwIk9osRKm3wo5TJfjGCH40kCATgpqIRp9wRv2OH8ICbmQG+AC6DHjMGBhYAl3REGD1sloGPAbC9WbsEXGMBOkyTHgY75pVcV5d/6yQF0skAWpdjy8PvLXUPBMGgBtNQWVwl2W9/wdhYJ4BUr+ce72FpNuSMpntjU130a/2lBxexh7lEGRVXVF4B+BmZKkcdzH/W7jzgZmYEKgHaSzB5nV7w3CPpALIEzHjfFiKQzRNvl4CbzRP2bV/3AIyS3yJboQtCU1FFuhI3MFO6MLMpswLsBC2DhWmSUA8AA8TpGLmX/JggxQWAP6wlyqi4euFpllHUCkRlM2h23rwHOpIHPOB2pKuV4b66KRpLLBI8I8806ldgmUDAHGwVKk3PgmmScoTUkI6xjOLL/PSPAi4pUuh1UUZl2Ivzq1VH1hQrzVKAXXvzHuhIHvCA25GuVob7CpOF0VLh8z+/PWYLydjPnWuObZRZ8Ex1VIAPPZX/p2MUO/xc1+cFcFM5Lj/f/qNnexvQE5hiCunNe6AjecADbke6WlnoK6Br+bD222QaPNNAVrJ8WPRT0sIAW36Ch3SxdIwfePzpG8kXY3FtI2H8vf7oH5kSQVDEfeJfvQc6hgc84HaM65TVXrY2eEbpKKBL8IwFssdrMCud9CO33CDrCtRpwIzEflKajHnrP5b+yevVrKTJuur/Swuq7bjJKsSy6jDfuPdAmh7wgJum4/4/fY3sALcyFlkDZA9EGTmNVJmRNfB9zVYAeMl3bG3wjIVhPvjitKaknbM8y6B0M4hABwUCQdqPLcyiQEyF2UL9FVfWMfUJKVFXyH/WXj3gAbe9Xpmb2K+gZPSy/T4Zv3nGyl1sI9EfC4JlwRoB5DuyJkCprhpG5dccDZ5R6psO4FJssUnXQ4VhU1Dg1ia42Hy9ZBWwpR+sJTBA19a92b9BdRMvgz/ULeABD7i3wEVOdooEzmCULM5CmlZ85ZmrUUdGoCadpRf5uRNq1FnfgKXv0pEUAHXYNcwWQHUVUrFSQiAxBLKC+60vyme9eQ90RA94wO2IVy1LfXaVZ/yGF9N90rQAN3JeKZuknLZGa9RhmgAu6xlU6fKLaLrevAe8B5J7wANuch/dMnu44BkLXbN8IHm6lPIO1GUZYbUAbrlqteUKwAAxQIuWm2xVsFvGgf5EvQeSeMADbhIH3Uofkw5GAAtp4c+aOcBqTGOGF+svppbYugn8nLQH2FvpjvDnmmkPeMDNtEd9e94D3gPeAwk84AE3gWP8Zu8B7wHvgUx7wANupj3q2/Me8B7wHkjgAQ+4CRzjN3sPeA94D2TaAx5wM+1R3573gPeA90ACD3jATeAYv9l7wHvAeyDTHvCAm2mP+va8B7wHvAcSeMADbgLH+M3eA94D3gOZ9oAH3Ex71LfnPeA94D2QwAMecBM4xm/2HvAe8B7ItAc84Gbao7497wHvAe+BBB7wgJvAMX6z94D3gPdApj3gATfTHvXteQ94D3gPJPCAB9wEjvGbvQe8B7wHMu0BD7iZ9qhvz3vAe8B7IIEHPOAmcIzf7D3gPeA9kGkP/C+ZJBzi2nif5wAAAABJRU5ErkJggg==;imageBorder=#000000;" parent="1" vertex="1">
          <mxGeometry x="104" y="210" width="139.2" height="40" as="geometry" />
        </mxCell>
        <mxCell id="ii2NFjTAbhS2r2lRkWKy-7" value="AWS EC2" style="shape=image;verticalLabelPosition=bottom;labelBackgroundColor=#ffffff;verticalAlign=top;aspect=fixed;imageAspect=0;image=data:image/png,iVBORw0KGgoAAAANSUhEUgAAAvcAAAMZCAIAAAALJIyqAAAABGdBTUEAALGPC/xhBQAAAAFzUkdCAK7OHOkAAAAgY0hSTQAAeiYAAICEAAD6AAAAgOgAAHUwAADqYAAAOpgAABdwnLpRPAAAAAlwSFlzAAAZ1gAAGdYBGNHK7QAAX8dJREFUeNrt/emPXMe5qHu+7xs5VtY8V9Y8F2eKEilK8nDO7XuBi4vuxu3uv7KBBhrob+ds27ItS5YoznORVax5HrOmHFdEf8ii5L2Pj7dliRKz6vlB2OYGKIlauWqtJyNWxNIQggAAAJw5xiEAAABUDgAAAJUDAABA5QAAAFA5AAAAVA4AAKByAAAAzpgYhwBAzQlRFBWOgkgs06QcDgBUDoCajxvvy/mjQm43v78Z5bZScWto73aNnVrfIok6cgcAlQOgpsomhGrfeB+Vjw+2Zp8s3vn95stvG5NusDmVaKpLjN+2ic+se1xiKTETVRFRpXkAUDkA3m+qGpVLB2sL68/vbDy/uzv/Mrc2Xz7OJbK9kaaiw+PK4ZYsPbbucdd31fovWUtWlCcOAVA5AN5jPooKh3uH6wu5lbntmSdrz+9sv350srcdvE9l6lVFRUPx2G/kwvZCtPzCr8+6zTfWd8Ha+q2xW1IZEWFIB6ByAOB9Ebz3lUq5mC/sb2+9fjT/9X9bffr10cZypVQIwZtzwUyrM1OqaqbBiUg42Ixe7vi5e9Yx4iY+daO3rHNY0g0SS4o5prAAKgcAfunECaFSLOwuTi/d/Xz9+Z29xdf5vc3CYc5XihJEVMPf+ZtUQhARiSqhcODXX4aDjcr0Fy476cY+tqEPrblbzHFsASoHAH4ZvlI+2d3cXXy18+b51syjrVeP9ldmi4f7KiJmqqam35XQ/9A5p48cSwiheBIKR7K3GvZW/d6qrby07gnrGrXOIU01MKADUDkA8HPFTRRVivni4f7R1sr2zJOle39ce/r14eZSCKKq5mI/bKpJVdWJOJEQjrajVzvR3D1rH3Kjt9z4J9YxYg0tkqgTF2cGC6ByAOCdeLs+PCoc7G29frz47e/Xn36dW5svHR9WSvmf4jGat39/pRS25sq59Wj6C9d3yY1/ZiMfWlN3iCe/6yI+DoDKAYCfjC+X9lfmNl892Hr9aHf+5d7iq6OtlXL+WESt+nDxj3aaLyGEckFKJ/54P+QPot0Vm7vrslPWd9m6x7Wukc8CoHIA4KeIm6hSONw/2dk4WJvfeHl/5eEXW68fFw52gwQz+8HzU/9k7JzOYUk43AkHW37pqV964jZmbPhD6xy2pi6ta5Z4iiEdgMoBgB8mhCAheO99uXiyv7n+/O7CN/+2+uSv+d3NSuEk+Mic+zsPFL8LqqJOfBQ258o7S/ryC9d7wY19bCM3rW1A4tWtk405LIDKAYB/VrlwvDP3Yu3p1xvP7+6vvDncWC7ktqJKWYJUJ6d+nrB4+28JwZclKoVKMSqd+O1Fnbnj+i64gevWe0Eb2vm8ACoHAP4TUbl0vLtxsDK3uzC9NfNo48W93bkX5fxxULF/vzj856WqKioSQjjeC4c7sr3gN2f9xhtbv2LdE9beb41dkmAOC6ByAOBvheC9j8rF8vHh4dbKxou7i3f/sPbkm3xu20cVCcFisRDCezErpKrqgpr6imwvVHaWdOZr6x53E79yozetbUASaYknlR0FASoHAKqRUzjY3Xr1cOnuH9df3D3cWCwc7pWOD0NUqYbF+5I4f5M6b9e1V8Lxvl964neWKi//5LIX3OgtN3hdmzr5WAEqB8B5jptQKeQPN5Z25p5tzTzZnnmyN/8yt7ZQKZyImZmJ6vv7VO/pn0wl+FA4kvxhyG2E3WW/veCXn1r2gvWMW0uvJtJ80ACVA+AcxY2PyuWT43xuJ7c8u/Hy3vKDP29O38/nds05EXWJeC29F/x02bmIj8LeWrS/Hs3fd93jbvJXbuCatfVLXbOm69W4cgJUDoAz3TciISqXjjZXNl7cW7r/x43ndw83liqlQlQuVhOntv8Lq+M7xZNo5ZnfXqg8/m/We8lN/To2/KE0tIuqqLF1MkDlADh7ieNLRwc78y82Xtzbmnmyt/jqcH3xZHezUjxRc2qmarX9X/hdvAQfSoVQzIfjfX+053eX/ewdy0653kvWPSrJDCcDQOUAOCN5UymXTnY3jzZX9hZfrT/7du3Z1/tLM6XjAzFnZi6eOGv/xd/NYYUoHGz4gw2//MyWnoShNzZ0TTuqWyc3iYszpANQOQBqsW2CD95XKlGpcLCxuHTvT4t3frc98yR/sBMq5RCCiyfet5VT7yB3TCSoqpTzfvVleXNOX3zuhj5wk5/ZwDWtb5dESsydbsYDgMoBUCORE4oHu2vPvl17+s32zOPcytzRzlr55NBXKtWVU6rn4tb+3es/JVRCsRIqxVA4jtZeWWufG7xuIzetZ0KTdZwwAJUDoAbqplzMH6wv7C/O7My/2Ji+v/368eH6YlQqiqq+XR9+7g5LdeNkDeIr4WgrHG76zTd+Z9m25y17yXUOW8eQNnaIizGkA1A5AN67uPFRVC6cFI72D1bnl+//cenuH7ZmnlYK+RAiVX2PNi/+RWOnmjvBVKNyWHtZ2ZjR+j/7gStu4lc29IE1dkiyXmIJMSN3ACoHwHuROFGlfLKzvvLoq6V7n29OPzzZ3yge5aJiPoQgotVdgnn05G3qqL5dVS++HI52oplvopUX1tbvRm66sY8tO6mpRuFwAVQOgF8yb7wvHuf2Fl9vvX68M/tkZ+7F3uKro+21EFVOF4eLcrf+R60jKj4KJwdyvB8dbofD7Wj9lXVPut4p65m05m7WYQFUDoCfN25CqJQKxaPc8fb6/uL06pO/rjz8y+7ci0q5aOZU1c7e4vB3mjvOiTiplPz6a1mf8W/uhv4rbuzj0HdJW7KWaZFEHa//BKgcAO+6b3zwvpLP76/Mrjz+cunbz7dmHhcOdn2lFII3x8XhRxaPiUg4yUUz31QWH7u2fjf8gY1/Zr0XLNMq+n6/2AugcgDULh9Vjnc3dmYerz+/uz37dH959mhrpXCw66PIzHED/tGJ8/bw+ShUylI89qVjf7hjK9PWPeH6L1vfZWvrk3iSQwVQOQB+GsH7cuHkZH8zt/Jme/bpxrNvN17cO9xYqpTy6mKq5mJxjtJPnDvOiUgoFWVnMdpd8mvTfn3aNt+43gvWMahN3ZpuUjMOFUDlAPhRfFQ53FpevPP715//f3fnnpeOcyEECcFiCQZv3m3tmIWgIiIn+9Gbu37padTc44ZvuKnfWPai1bdILC7mav79XwCVA+AXq5xK+Xh7bWf2yd7idH5/++0Wd8xP/Syh892q81AJxaOws+iP96PlZ9Yx7AavueGPrGtMeNYboHIA/GtC8JXCSfH4oFLISwgW4wrwi7SOioiUi6G04Q83w/aC317wG2+s74J1jVvHoGZaGNQBqBwAP/wua1b9i81vfmFmKiYSQuEoLD3xa9P2ussN33Tjn1h2UuvbNZmReJJhNoDKAYAaVymFvbXy8e+iubvaNuDGPnbjn7jucYkl6VGAygGAWvR2sCaEUClLed+f7MvBtj/Y8qvTUc+ky05az6Q2dfFaDYDKAYCarZ1qxoQgpeOw+qKyMaNz9/zAVTdy03ovanOP1bdIIi2nz/UAoHIAoAaTR1QleDnYrLz4UzR3zzqGY5OfhfFPrHNE4imxWHUai/EdgMoBgBoqHD0drQkhhIpE5VDO++JJ+XBb39x1PRNu8AMbuKJNXcI6LIDKAYAazR0VFRUJIRSPwsaBbL4Jq9N+a9623ljPpLX2a3OPJjMM6ABUDgDUbu6YqAXVcLgdvfhzZeZb1zXsxj9xY59Y57CkmySWEDMmsAAqBwBqL3Sq01hBgviyFCt+7ZXf36hMf+n6LrjR2zb8kTV1iDoOFUDlAECN1k516+QQSidSOAq5tXCw7ndXbOW59Yxb15h1DGmqgSEdgMoBgJqtHXNiTkTCwXaU24refGudo270phv72DpGtL5Nk3Xi4sxhgcoBANR280hUCZtvyvur0fSX1nfJjd50QzestS/EU29/C7kDKgcAUGOF83bv5HJBSnmfPwj5nN9eiObuu94L1n/Zusa1rokDBSoHAFCztWOuWjvhYCvkNv3qS7/8zG3M2tAH1jFizd2aaZZ4iiEdUDkAgNoNHhMVicph8015d0lf/Nm6x2OTv7LRj619oLrmXJRl56ByAAA1ljhv46W6dXKxHEpFXzwu7a/a7B2XveAGr1rvRW3s4FCBygEA1G7uvN06OZ+Tk/1oe9Gvz/iNWRt4bdkpaxu0pk6NJzlUoHIAADWbO+pCCOorsrtY2VvW2b9a10Tswn8JozetrU/jKYknTx/rAagcAEDNpY6EEEQkVMJJLlp66neX9fnvXPaCG//EDV5nDgtUDgCgpktHRPT09Z+Fg5BbC7urfnfZLz217IR1jWlbvybqTl+KDlA5AIDayx3nRJyEEPbXotx6NH/fdY+7sY9t8ANrG9BMq6TrxRytAyoHAFDDxSMiUjiOlp75zTf69Pdu4Jqb+MwNfSD1reJi1WEdlp2DygEA1FjivF127kM5H0onIX8QTvajrTk3/aXru2gDV617TN6+JgKgcgAANZg76kREfBT218Peml987Fdf2Na8DV6z9gFr6tFMs7gYQzqgcoDzKoQQvAQRM/1uLgCopdwxlRBMJSr71RfR5qw9+4MNXXMTv3KD17WhXRIpMVfNIo4WqBzgPEWOj8rHOV8uJpo71MU5IKjN0FH9m62TfaUUXh1Fq9OufdANfWCjt6x7QhPMYYHKAc5N3BQO9nOrbw7X5sPxXn1cWtva4x2D2j6kDW184UXNto6KivhKONiW3GZle8HvrdjWvGUvuM5h6xjSxg5xcc5wUDnAGeS99+ViOX9cyO1uzTxZvPuHzZd3GxI23NFQV6cyfN1N/Nr6L2qmRRN1EouLGvcD1GDumDoLIWhUDisvKqvT2tDmB665yc9s4Jo2dVkyI7EEy85B5QBnRwi+nD/aW3y1fP+LlUd/2V98lT/YDZVSOtsbKqmwvxs9+0O08Mja+t3oTTd623rGJZ7iSR3Uaup8t3Wyj8LRbjTzdbTy3DqG3NANN/KR9UxqppWdBEHlADXPV8rHO+tbrx9vzTzemXu+u/AqtzJbOsyFEBLpOgmiEkJUDsdH4WQ/5Nb9wUa09sp6plx2yrrHtbHj9NlkoPZKR0RVfBRODuQkFx3thtxmtPrSeiZc7yXrnbSmbp5IA5UD1GDcRFE5f5TP7RxuLG2/frx0/08bL+4db6+GEE53kg1BVUVVVFVVzYloKJ2ElRd+bUbn7vmh6274I8tOaXOPZVqqQzvkDmoyd5wTESkX/PorWX8dLTzwfZfd2Meu96K19EqmRZMZNeNQgcoB3mshBAk+qlQKuZ2t2adL3/5u5dGXueU3lVLBV8pqJiH84xuCqErwkluPnn5embnjOoZiE5/JxGfaOSyJdHVRLnvLomaLx0REjvaj119Hi4+tJesGr7sLv7HeS5ZpEVVR49wGlQO8p5FTKZ7sLrzaeHF389WjvcXpw/XF452N8smhmqnZf7JryPcby4bgvUTHUjrxpZPy0U5l7r7rHrPB6zZ4zRq7hG+9qMnE+e4Mr4RyWcp5XzgOR7t+Y9a6x13vReu7bB1DEk9wqEDlAO+RqFI+2d043FzJLc9sTj9Yf3ZnZ/5l4WBHRM2c+6FX7e8W5YqE4nFYnwnrM2H1uW3N6faiy05aW781dkiCQX7UaO7Yae9UimF3Odpf9auv/OpL25x1fZetY0ibe7SumTEdUDnALyYECcH7SqlSzB9vra08+nLp3ueb0w+Ot9eiSklEXCwRqg/f/KhvvybOJIRwtBu9/CLMfuu7x934bTd6yzpGJNMsLi5mquQOapCZBFVVye9F8/f9yrOoqduN3HQXfuv6Lkm64XTNuaqwIgtUDvAzd07pKLfx4t7K4y83px8crM4f722Ujw99pSwSqs8f/FRPGKhqCEF8WaKKX532ufXKq69cz5Qb+dAGP7CWHokxyI+a9N3OyRIqoRBJZamSP4iWn1j7kBv6wI3ctO5RcZzeoHKAnydtQqgU84fri7uLr3bnnm+9frw98+RgfaFSzIcgZiaq72JkRVVFnUgIpWMpHIa91bC36ncWbeWl9UxY97i1D2q6kUF+1GzrqEgIlZLkNsLBht+a9ztLfnPOeqesa1TbBq2+jV0VQOUA76pufFQp5Y8LuZ2DtfnVp98s3fvj1vTD8slhCF5U1Zz9HImhak7MiUg43I4OtqL5B9Y+4EZvubFPrGtU66tbJydYqIKajB1VEZMQpHjil574tWlr6rLhj9zYx6H3oja0WapBYgkWGYLKAX7CwglRuXS8vbb25OvFu3/YnL5/srtZyh9WigWR8EvuUKwqUSlsL5QPNqOZr13XmI3edCM3rWNY4kk+ONS8Sinsr1We/d7P3bOOITd+W8ZuW+eIxJPCs2igcoAf2zfeF45yewvTW68ebM082Z1/ebAyd7yzHlVK/9Ti8Hf8vfe0wcpFKeX9SS4cbuveSrT0zGWnLHvBusd4/SdqUnXb5NMZ4rKU9/3Jfjja9geblaWnrmfc9V6y7JQ2djKoAyoH+OFxE3ylWMjndo631vaWXq0/u7P6+KvdhZeVwom5mKi592hLD1U7HeQPx/vhaM+vTvuFh27oug1/ZD0T1tipmWaJp7gZoBZz5zRjQgiF47D8XFZe+rmuMHTDRj6y7JQ2dVtDq8TT5A6oHOA/r5vgvfdRuXCytzi98vCLpbt/3Jl7UTjY9VElRJG950uZqq+M8JWws1TOreurr1zXsE3+xo1/ah3D4mLfbyzLHQE1WDzV8zYcblWefx5m77jOYTf+iY1/ap3DmqwXc99XEUDlAP+BjyqHmysbL+9tvLi3M/cstzJ3vLNeOj4IUaSni6fe4wvo326dHMpSLIVSPiocRbmt6M091zNpA1dd/0Vt7OKDRi0mzvc/e96H6ERKeV/Kh4MteXPXZSfd8Ec2cM0a2il4UDnAvxO8Lx0fHG4s5VbntmaerL/4dvv1k+PttUq5aObUzGI1deZ/t3VyCKFwJGuvoq15v/bSNmf95qzrmdTWXmvqkmRG2GoNNVo8b3dVCJsHsjUXNmb99qLbnLPucWsfqJ7eDOqAysF5jxtfKVdKheJRbnv26eK3f1h5+EVuda6cPw7Bq4iLxWv7vZiqqhqCavBhdyXa3/Czd6LOETfxmRu9aR1DkqyXWFKqw1ScEKjB81uchRDkcCt6/sdo5hvXPebGbruxj61jWOqa/2brZIDKwblKnBAqxfz+8uzK4y9XH3+1O/8yv7dZOMz5UiGEICpBzsgEv6qevgg9KoeT/Wjledhfq0x/4XovurHbNnidQX7U+hkeQhDxUjz2a6/8/nrl1Veu96Ib+ciGrltTj8TiHCVQOTgvfFQ52dvanXu+8+b59tyznTfPdxemi7ndIEHV3q4PP3P3gerDmyGE4rEvHMn+Wthb8zvLtvTYuidc95i1D0myjthBzZ7gKhJC8VgKhyG3EXIbfnvRlp9Zz6T1TFj7gKYbOb1B5eDsxo2PKsV88WD/aGt1Z/bJ0r0/rj395nBjKQQfRNT9PDsXvwd3A3VSHcvaX4tya9Hs1657PIzftpFb1jag9S2azIiL6fdP7AROHtTM+W1OxIlIONiIchvRwn3rGHajt9zoLesc0UyLJuslniB3QOXgjAghiEjwlcLB/s7c86W7n688/Mv+8kw5f1wp5UN1Yuq83hFERMolv/Yq2l22Z390fZfdxKc2/KE1doTqmvnAA8qo1fNbVKRSCptvyntr0fRfrGfSjX3sRj6ytsHwdg6LR3ZA5aC2RaXi/srs1vTDrZknuwsvc8szR5srxeMDUbP3f3H4u0yc75edlwunWyfnc9HOgs1+4/ou2cBV6xoT0+/30WdMBzV3gn93ehcOwvGe312K5h+63gvWd9G6xzXTwoEClYMaFIKPKsXjw+Pt1f3lmY2X99ee/HV75ml+fzuImJmLxxmi+P5u8N0cVm4j7K/7pSd+5YXbmndDH0SZNn+wFaJIQhAlc1DLp/fRTjjc9muv/fJTt37dhq5b94Q1dWmmRXnpG6gc1FLkSCjlj7dePZz54v+3dPfz4+3VSiEvwVssFkJgjPof3A9CCOqjsPaqvPkmevo73zEeRamQP5TgWYeFs3B6R6WwNV/eXdaXX7juMXfht27strUPiMXETKsjl5zqVA7wXldOCKWTw93F6a1Xj3PLs1G5JCLVlVMkzn96LzjdOjkq+f1idHLo8xLW96RSYvQLZ+n0DpVipXgc5TbczNeWnXKD163vkja0c5SoHOD9zxzx5XLxMFc6zkXl4ukjOPgBt4K3Wycf7/uDvD86Dr7CF1yctdM7fxDyucr2vK6/9htv3Ppr65nU6tbJ8RQP3lM5wHt8KTOt7nyjZlys/vX7gZmaU6u+45PncnCmTm+pju/6KOwsVfZWo5lvLDvlpn5lQx9Ya68mGySeEnPkPZUDAEDtZbyInO4M7ishvx8tPvI7C/r0d673kpv41AavWab1+2WGoHIAAKjB2FEJPhSPwndbJ+8u2+Ij1z1uPRPWPijxFGM6VA4AADWaO2/3P/dR2F2J9lb93D3fPe5Gb9rIR9bab/WtcrozOKgcAABqtXhURELx2C8/jTZn7dkf3NANN/GJ9V/T+jaJxeX01XAED5UDAEBNJU71gR0J/u3WyUchfxCtv3Ydw67/sg1dt86R6josUDkAANRe7IjK6dbJPgp7a2F3xS8/8+uvbHvBBq5a+4A19WimSVycIR0qBwCAGg0eVedCMI1KfuV5tDZtT/7NDd9wE5/ZwFVt7KyuOT+/78WjcgAAqPXUkRBCqEhU9rn18OrLaPWldQy7wWs2/KF1jWm6gaNE5QAAULulo6IivhIOtkJu0+8u+90l23hj2SnXPW4dQ9rQLjHmsKgcAABqNXdMnYUQtFwIKy8qq9Pa2OH7rrjJX9nAFW3utkSdxJNqjkNF5QAAUIOpU53DEpHgw+F2Zeav0dpzaxtw/Vfd+G3rvaiZFo4SlQMAQO2WjsjpOyIOQv7AH+76vbVoY9b1TFrvBctOWktWXZxDReUAAFCjuWPqTERCOS9bc9H2QrT4yGUvuLGb1nfFWvs006LJjBpvxaJyAACo2d6p7owsR3vR7B2//ESbetzIh27qt9Z/xdL1ovb2bRI8o0zlAABQQ43z3ZY5IQrlcijnpXBcOdn36zPWNWq9l9zAFescFuawqBycSSGKolLe4kmL8UMO4Ez3jjoRCZWSVF//ufLC1l6FrTfWf9k6hrSpW9NNYsaQDpWDGi8bCcF7Xy5VioXy4W50sJNqakk2tUs8LbG4qsnb1+MBwFmrHbMQgqpK4SCav++Xn0tztxv7ODbxqWWntK5ZEikxV80iDheVgxrkQ/Fgb/3F3dVHXxU2F9rrU9mGmPYM2tgnrv8yiy0BnPHQ+X7NeSUUj2VnsZI/8AsPrH3IjXzkRm5a54gwvE3loMaEUCkWcuvzuwuvdueebb16tP3mmavkU/29pWSpsjVtOyt+5bn1TFrniDZ1azzBFxkAZ7d0qk8cB6mUQm7dH2yE7cWwv+Y3Zq1n0rpGrXNI69tEmcOicvB+x42PKqX8cfFgN7e2sPrkq+V7f9p6/ah4nJMgLR1doqa+ErYXKrsrMvuN67/sxj+zgSvWkrW6JomnmagGcIZzR1RVTEIIxeNo/mG0/Nyau9zQDTd+23ovaUObpOolliB3qBy8V20Tqv8TVconuxtrz75euvvHjRf3jnfWS8eHUakQfPj3s84qPpJ8Lnpzz6+9sqYuG7ruJj5zA9c03RjU/t33HwA4m9EjEpXC3lrl+A+VuXuua9SN3bbRW9YxpIm68PYCyJWQysEvr3xyuLv4avPl/a2ZJ3sLL/eWZ4+310OlLKpqptWH61S1+lVGVUIQH4XiUSgcRkc7/mjXb85FPd+6vsuWnbLWXoklOKoAzmjfvC2XEEJUlpOinOSik31/sKGLj1z3hBu4Yr0XtL6dxRlUDn4xIYSoXCwc7B9vr+0vvVp7dmf18Vc7cy8q+SNRFTV1rvqzHP7eD/nbVQVBonLYWYx2l/3iY7/y0g3fsL5L1tZvDR2SqmcOC8BZzh1VERORUDgMS89k+Xloeeg3XrvdW9Y9oU3d1tAq8ZQqWydTOfjZ8sZ7732lkD9YX1x/fmfp29+vP/v2ZG/Tex+isroferZoNXpC/tC/+SZaemSN3bHRW27qV9Z/WdKN4uKixsgtgLOdPGJOREJuq/L095XXX7uuMTd22018Yh3DkmoQq26dzGWQysG75KMov7+98+bZ2rNvN6fv7y/PnuxuFHI7UaVs5t5+NflBiSMqIiGIhFCOpFz0pXylcFhZfeG6x9zQBzZwTVv7Nc4cFoCz2zjfz2JVpFyScsFXiv5gM5q753ov2OA167tiTZ3iuB1TOXgHQgjl/MnxzmpudX7nzbPNVw+2Xj3KLb8p5Y/MxdTM/cgtH6ovd6n+nFfKfm9F9lbDxqzfXrT1GctOWueItQ5oXSNDOgDOdO5YdfQ6FI7l5CDamvdbc7b5xq3PWPeEdQxZc4+kMlwIqRz8NHXjo0qlVCydHO4vzaw8+nL5/p933jzN57ZDCCri4omf/ofNTIMGUSkc+Dd3ovl71px1Y7fd1G8sO6l1TZJIizkmqvFDzmSRwEsSUVO5Y3a60iq3HuU2/Oy31jnsxj52459a14ikGyWWEIuRO1QO/nXeR0fba2tP/rry+Kvt108ONxaLR/vlwomPKioa9J1tTH76aHIIwUsUhb3VytN/q8zfd90TbvSWG/3IWvsknuIDAnCWQ+fthVDEh9KRX3/tcxuV2Tsue8GGPnCD16x9QJQbNJWDH/q9N4TyydHe8szOm+fbs0+2Xj/eW5g+2V2vFAtqTs3M3M/1I66iEqKSHGzJwVaU2/R7q371ufVMnm6dXNesxqAO/medHoXCkRS9WBBlMAe12zoqIYTSiRSPwuFWyK3r1pxfeWbZC9Yzae0Dmm7k5KZy8J/HTVQul04OCvvbe0uvVx7+ZfnBn3cXXlYKJyGIqrpf6BFgVRNnIhLyuTB/zy891tZ+N3wjNn7buie0sVOrG4Z+/1/ChwkRkeCjkM/5QkXSKmxKgFqPHXUiTkIIuY2Q2/BLT6x90I1+7EY/sq5RrWvWVIPEeGEOlYP/IW5On8ApFg83l1Ye/GXp3h+2Zh7n93fKhSNfLr9fi7jVxHvZW64cbvnZO5addGO33cgta+sPsUQIQSTwjR3fZY6UilKOSTrJQA7OUvKIiJSLYfNNeW8tevFH6x51k79xox9b+0AwE/l+72QOFpXDnSAUDve2Z59uvLi3PfNkb+n1wep8PrcTfEXkdPPi9+RH5fvFllFZykVfOAqFQ7+7Fs0/sJ5J670UNCXBixrPmkJEJEgIPngvQTgfcFYK57vroA/lgpTyPp8Lx3t+fyuaf2i9U67/snWNaaaFQ0XlnPO2CVGpcLK7ebC+tLf4cu3pN+vP7uwvz1bKRa3Gjbn39un9t3NYIRzvhaNdv/bSlp5a/6tKQ4/fXgylPLc0yOmWk9VXi3AscBZzR93p1fwkF44f+bVpW3oc1mdt6Lp1j1pjt9a3sdkYlXPu4iZ47yvl0snRwdr8yoM/L377+62ZJ8Xjg1Aph+Cdi4UQamR1oqq5EIJKCHsrldx6JcSjAy+H23zQAM5T7mgIQX3Zby34vRWd/rP1TMYu/NaN3rSWXoklxBybyFM556NyosrR9vrW64drT/668fLB4cZifm+reHwQvD99m2at/RhUX/8ZQiVUSqF0HA5LoXTCWA6A85Y6EoJIRUrlUClFxZOwt1p5+WeXveCGP7T+K1rPHBaVc4bjxvvSycHh5vLe4sz27NOt14+2Z58crMxFlXJ182JzrsZ/vquLaHyIysFHfOIAzmXpqKhI8CGf8yf7svkmbL7x2wu2/tq6x619wJq7JZ7iWyCVc1biJgRfLldKJ4WDvZ35F6uP/7ry8C87s0+LxwdmpmbvZPPiX/aHnKcwAJz33DGRoKYiwe8shb3VaOZry07Fxj8JIx9pS5+lGySeFDOullRObfPl0v7Km7WnX688+nJn9unR9lo5f1gu5L9bQM4cLQCcwc6pXturG4X4SE5yfuFRaXNOn/7eDV6LTXxqA9e1rol9pKicmhR8VDw82F+d3Xz5YOv1o503z/aXZ/P7W1G59HbzYvYLBoBzEjsiIQrFIykchoPNcLTtt+ftzV2XnbTslLYNajx5zmOHyqkxvlI53F5ZvPv569/9f3YXXlaKJ6Kqao4lhQBwHnPHTnsn+LCzHG0v+pk7vveCG7ttQx9aW5/Vt0gyIy5+PnOHyqm1yokq+d3N/cVXR1vLlWJezXFMAABS3eVVXagU/fKzaH3Wnv7ODd9w47et74o2doqLV7eBPVfPM1A5NSZI8FElKhWjSlmCP905CgBw7hPn7RxWON06uXQcCofR2ivXOeL6L9vAdesclkT6XB0VKqfWTuPq8KSZmvEeEwDA38md6hdgH4Xd1bCz7Fdf+o3Xtr1gfZetbcBaspppPidzWFQOAABnNHecC8G0XPBLz6KVaWvscP1X3NSvbfC6NnVJLCEW0zO9ZoXKAQDgLKdOdRN5icp+fy0Ujyobs65z2PqvuKHr1j2udc1UDgAAqN3SUVERH4XDXTncqewt69aC33jtshetZ9I6hrSxXV2cygEAADWbO86FELSUD2svKxuvo9dfu74rbupX1n/Zmrs1kZF46izNYVE5AACcr9Spbp0sPgqH25WZv/rVF9rSbQPX3ORvXP8lTTdSOQAAoHZLR0REfCUUDnz+QA82fW4zbC367KRlJ61n0lp7z8AcFpUDAMC5zR1TNREJUUm2Fyo7yzp/3/ouxkZvhf7L2tKn9a2aylR/D5UDAABqsndEVSTISS6a/dYvP9PmHjdyMzb1a+u7LKl6MRO1mts6mcoBAODcN87bt2GFEEm5EsqFUDwKJ/t+7YV1jNjAVRu4Zh2DNTeHReUAAIC/qZ3q48nlUthZinaX/fJz25i1rXnru2RtA9bSo+kmMauJIR0qBwAA/MfaEVUJqqpSPI7m7/uVZ9qcdaM3Y+OfWPaiZJolkRKLvedzWFQOAAD4u6mjEkIQkVAJxUi2Fyone5W5B65zJDZ600ZvWvuQxN7rOSwq52cSvPfFfAje1TXwjk0AQO2UjoiohBAqRcltSG4z2lsJ+2u2Nm09k9Y9bl2jmml5P4d0qJx3HDfBV4rF0slB6WC3nNtMmNS391imRVMNEk8qLxUHANRK7qgTcSIihcNo/n60+NCae9zoLRv/1LJT1tAmyXqJJd6rrZOpnHdRNuH0F95XCie78y8W732++fxOxvm+5rRrqkuO3nQTn1r3eHAJeRs6FA8AoIaiR0IIuc3K09/L7LeuZ9yNfuxGP7L2oZBqeH/ua1TOO+ndqFI+2lzZevVga+bJztyLvcXpwt5mV1dnuVIf7R1XcuvRynPrHrfeS9Z7wZq6hMQ5E3n73SkgIhJO/xcAzuB97vTLfFlOipLfj/I5v78WLT50PVPWf9l6L2imTaics3ab8750cni0s360sbT1+tHKwy82px8e72z4qJysq1fpUtFQOParL8LGjM7dd0PX3c5HofeCNnVbQ5sk6hjSqfVvNlIphNKJSCBxAJyDy56JMxEJ+cOw/MyvTvulp279te0sW9eYNvdYQ6sk6n7BOxuV85N8h/fBe18pFw73dmaezn/931cef3WwNl8uHPtKWSSouX93LxQnIuFwu/L8T9HcPWsfcuOfuLHb1jUqqYxYrBb3l4SIBF8JR7uSLkm9E+PjA3CevuZpTETC/nr5YEtff22dw270lpv4zLrGvts6+ee/r1E5P4GoXM6tzq0+/Mvaszu7Cy+OttYK+9uVYj6EoKqip777hVYfVhcv5UqoFHzxJBxsRW/uWs+kG/nQDVzTxk45Qy++P18qZamUJKSZhQRwniJHv/uyJ1E5lIu+nPe5zWjxkfVMuYEr1nfZWntFHZVTM3xUOdnfOlhd2F+e2Z59uv7sm+2Zp/n9HXXOzETV3pZK+P6Jjb89I1RUJIRQPA6FQ9le8JuzYWfBr722ngltH7TWPk1luFXWlFAlGjgWAM5l7tjpo4nFEynMR3vLfnPOb8y49RnLTlnHsLb0aKr+Z7u1UTk/PG585Mulcv74aGdta/rh4t3P1558fbixGLwXCS6R+GGTTaoqJmpBVQ63o5d/rrz+q+scceOfhIlfWeewpRslnhRz378SNnAHfZ+/z2h1g3SOBYBzfTU0C0FVRHLr0cGGn3+g7UNu/LabuG2do5ZqkHhSLPau57ConB/6Vd2Xjg+3Z56sPPxi7dmd/eXZwv5OOX/kK+Xv7nH/wp2xuiwnhCDBi4/85ht/uKWv/+p6ptzoTRu6YS1ZiSc5/gCAGvra93brZB+KR7LxunywEb3+yrpG3OhtN3LL2vvf9Z+ByvlnRaVibm1+d2F6983z7TdPd948P1ibLx4fiIiZqz528xOcEKIiEkoFKRyH3GbIbfqdJVt+atkL1jNp7UNisep7QyQwqAMAeP9L5+3WyaUTKR77g42wu+L31vzatOu7ZH2XrSUrifQ7GtShcv4TwUelk6PCwe7B+uLak78uP/zL9uvHJ/tbIYrUzNw7GW1Ts+rTx+FoOzrcipYeWeeIG/rIjX7km7L+aCf4ikjg+VYAQM3kTvXR4xDCyV6Y/dYvPfXZC/Fb/y9J1Gk8ReX8jGVTHSMJwUdRIbez/vzbxW9/v/r066OtlXL+0JfLKvJzrYFSUZWoEjbflPdWo1df+LbBKEpLPheC55MCANRi8ogGqRTD4ZbfWdSTi9rc/Y7+TVTO3y/OcuFkd/7F5sv7WzNP9ham91feHO+sR6WiSFCzapT+PH+S0+4qF6VU8PnD6GA3KsWizZyUi6KsNgcA1NotViQECd6HqBIqRfH+3d1SqZx/x1fK+f3tw82V/dU368/urD35Znf+Ren4IIiYmZr9Qjv16em+giGEfM4fFPz+sfgyM1YAgJpMne/XpNo7vZVROdWVTcFXyuVi/mR3fe3J1/Pf/NvGy/snu5tRuRh8ZM6d7u/3PiSwmpqrjieJ8PQxAABUzj9UPD7cnn28fO+PGy/v5Vbn83tbhaP96uJwVQu8bAEAACqnhoQQKoWTo+21/eWZ3YWXW68ebby4t788WynmzTk1UzXiBgAAKqeW4sZHlaiULx4e7K+8WX/6zdK9P2y+fpTP7ZiaiLh4grgBAIDKqcHKiSrHW2vrL75dvvenzVcPDzeXSscHlWK++ngObwIHAIDKqbW48b6UPzpYW9icfrD1+vHO3PO9hVfHu+uVYt7MqZmZ42wAAIDKqcXKifJ7WyuPv3r1u//35vTD8smhiKpZLJ7gJAAAgMqpYd5H+cPd/aXXh+tLlZMjZeQGAAAq54wIEqIoKhV9uRSCN6VyAAA4487NKwK0uqOeqRlbBgMAQOUAAABQOQAAAFQOAAAAlQMAAEDlAAAAUDkAAIDKAQAAoHIAAACoHJwFgUMAAKBycCZpkBBOcye8/TUAAO+BGIcAPzZzvA+VUrCIV2cAAN4rjOXgxwlBikdhf02KxxwMAACVgzNDRSRElVA6CVFFVBnOAQC8P5ixwo+MHFUVDUF5IgcA8J5hLAcAAFA5wP8Mc1UAACoHAACAygEAAKByAAAAqBwAAEDlAAAAUDkAAABUDgAAAJUDAABA5QAAAFA5AACAygEAAKByAAAAqBwAAAAqBwAAgMoBAACgcgAAAJUDAABA5QAAAFA5AAAAVA4AAACVAwAAqBwAAAAqBwAAgMoBAACgcgAAAKgcAAAAKgcAAFA5AAAAVA4AAACVAwAAQOUAAABQOQAAAFQOAACgcgAAAKgcAAAAKgcAAIDKAQAAoHIAAACoHAAAQOUAAABQOQAAAFQOAAAAlQMAAEDlAAAAUDkAAIDKAQAAoHIAAACoHAAAACoHAACAygEAAKByAAAAlQMAAEDlAAAAUDkAAABUDgAAAJUDAABA5QAAACoHAACAygEAAKByAAAAqBwAAAAqBwAAUDkAAABUDgAAAJUDAABA5QAAAFA5AAAAVA4AAKByAAAAqBwAAAAqBwAAgMoBAACgcgAAAKgcAABA5QAAAFA5AAAAVA4AAACVAwAAQOUAAABQOQAAgMoBAACgcgAAAKgcAAAAKgcAAIDKAQAAoHIAAACVAwAAQOUAAABQOQAAAFQOAAAAlQMAAEDlAAAAKgcAAIDKAQAAoHIAAACoHAAAACoHAACAygEAAFQOAAAAlQMAAEDlAAAAUDkAAABUDgAAAJUDAACoHAAAACoHAACAygEAAKByAAAAqBwAAEDlAAAAUDkAAABUDgAAAJUDAABA5QAAAFA5AACAygEAAKByAAAAqBwAAAAqBwAAgMoBAACgcgAAAJUDAABA5QAAAFA5AAAAVA4AAACVAwAAQOUAAAAqBwAAgMoBAACgcgAAAKgcAAAAKgcAAIDKAQAAVA4AAACVAwAAQOUAAABQOQAAAFQOAAAAlQMAAKgcAAAAKgcAAIDKAQAAoHIAAACoHAAAACoHAABQOQAAAFQOAAAAlQMAAEDlAAAAUDkAAIDKAQAAoHIAAACoHAAAACoHAACAygEAAKByAAAAlQMAAEDlAAAAUDkAAABUDgAAAJUDAABA5QAAACoHAACAygEAAKByAAAAqBwAAAAqBwAAgMoBAABUDgAAAJUDAABA5QAAAFA5AAAAVA4AAACVAwAAqBwAAAAqBwAAgMoBAACgcgAAAKgcAAAAKgcAAFA5AAAAVA4AAACVAwAAQOUAAABQOQAAAFQOAACgcgAAAKgcAAAAKgcAAIDKAQAAoHIAAACVAwAAQOUAAABQOQAAAFQOAAAAlQMAAEDlAAAAKgcAAIDKAQAAoHIAAACoHAAAACoHAACAygEAAFQOAAAAlQMAAEDlAAAAUDkAAABUDgAAAJUDAACoHAAAACoHAACAygEAAKByAAAAqBwAAAAqBwAAUDkAAABUDgAAAJUDAABA5QAAAFA5AAAAVA4AAKByAAAAqBwAAAAqBwAAgMoBAACgcgAAAKgcAABA5QAAAFA5AAAAVA4AAACVAwAAQOUAAABQOQAAgMoBAACgcgAAAKgcAAAAKgcAAIDKAQAAVA4AAACVAwAAQOUAAABQOQAAAFQOAAAAlQMAAKgcAAAAKgcAAIDKAQAAoHIAAACoHAAAACoHAABQOQAAAFQOAAAAlQMAAEDlAAAAUDkAAABUDgAAoHIAAACoHAAAACoHAACAygEAAKByAAAAqBwAAEDlAAAAUDkAAABUDgAAAJUDAABA5QAAAFA5AACAygEAAKByAAAAqBwAAAAqBwAAgMoBAACgcgAAAJUDAABA5QAAAFA5AAAAVA4AAACVAwAAqBwAAAAqBwAAgMoBAACgcgAAAKgcAAAAKgcAAFA5AAAAVA4AAACVAwAAQOUAAABQOQAAAFQOAACgcgAAAKgcAAAAKgcAAIDKAQAAoHIAAACoHAAAQOUAAABQOQAAAFQOAAAAlQMAAEDlAAAAUDkAAIDKAQAAoHIAAACoHAAAACoHAACAygEAAKByAAAAlQMAAEDlAAAAUDkAAABUDgAAAJUDAABA5QAAACoHAACAygEAAKByAAAAqBwAAAAqBwAAUDkAAABUDgAAAJUDAABA5QAAAFA5AAAAVA4AAKByAAAAqBwAAAAqBwAAgMoBAACgcgAAAKgcAABA5QAAAFA5AAAAVA4AAACVAwAAQOUAAABQOQAAgMoBAACgcgAAAKgcAAAAKgcAAIDKAQAAoHIAAACVAwAAQOUAAABQOQAAAFQOAAAAlQMAAEDlAAAAKgcAAIDKAQAAoHIAAACoHAAAACoHAACAygEAAFQOAAAAlQMAAEDlAAAAUDkAAABUDgAAAJUDAACoHAAAACoHAACAygEAAKByAAAAqBwAAEDlAAAAUDkAAABUDgAAAJUDAABA5QAAAFA5AACAygEAAKByAAAAqBwAAAAqBwAAgMoBAACgcgAAAJUDAABA5QAAAFA5AAAAVA4AAACVAwAAQOUAAAAqBwAAgMoBAACgcgAAAKgcAAAAKgcAAIDKAQAAVA4AAACVAwAAQOUAAABQOQAAAFQOAAAAlQMAAKgcAAAAKgcAAIDKAQAAoHIAAACoHAAAACoHAABQOQAAAFQOAAAAlQMAAEDlAAAAUDkAAIDKAQAAoHIAAACoHJwLQcLbvwAAeJ/EOAT4MYUjokFP/+J4AACoHJytzFFTF1PV0+EccgcA8H5gxgo/jook67SxUxJ1HAwAAJWDMySoxpKabtJYkqdzAADvFWas8OPo3/yCuSoAwPuEsRwAAEDlAAAAUDkAAABUDgAAAJUDAABA5QAAACoHAACAygEAAKByAAAAqJx3LEh4i7cQAABA5QAAANSqc/MeK1WLJWKJpIj6yItWVE1UlVcvAQBA5dR25Jgl6xub+0Zbh6ZEQil/XCmcBB+Ft7NX5A4AAFROTTIXa+jsH/sv/4/OiQ/Wn32zdO+P6y/u5ve3QxTxJm0AAKicGqaqsUQy1tqVamipa+1sHpjs/eA3W68fb71+nFt+Xc6feBUzE2EOCwAAKqc2uXiiKTvc2DOUvfrJ1syT1Ydfbry4s786f7KzUTza85Wy917VmMMCAIDKqVXxdH33hY/aRy7n9/+fGy/vLdz5t9WHfzne3YzKRQmn684JHQAAqJwao6qqaolkLJFM1GWS9Y0t/eODt/63zekH60/v7Mw9KxzsheDNHOuwAACgcmqVuVhdS2ddS2fb8MW2oYutg5Ob0w/2Fl/lVueOd9YrhZMQRO09WXZe3dfQh+BF2NsQAFDL3m7WS+X8HFwi2T56sXVocvjT/2Nr5vHind+tPvoytzZfzh/7StlHlV9w2fn3/2pz6hLqEiIlCRUWiAEAarJuRIJqdRDh3T0iQuV8T1VFnTNX19Lec+lWc9/o8Kf/x/abpysP/7L+/M7hxqJUB3VEf6mzQsxJqsHS9SZHcvBKyhU+NQBAbaaOF1VJ1ks89e7+JVTO38sdc8n6pmR9U2NXf1PfSEv/aNfUja2ZJ7vzzw9WF4qH+0GCmKmaqrzb6KlOTgXReEqasy47Ze1D7uDEHt/X+TkJx7yjAwBQI1kTQvASvFhMW7Kua9T1X3HDH1p927ubIaFy/hGLxRu7+hs6e7NXPttbfL347e9WH/91f+l1/nC3dHzkK6UQpPp8zE/8CX03QWUxiacs06wtWTdw3U39OnSMxF491tczoo7XjgIAaiBu3g4haKJOkhlt7HSD19zEZzZ03TLNau8wRaic/5yqxdKZttGLDd39I7/6v+7MPV+8+/nKoy8PVud8pfTdbOJPNa14+s8JQSymje2u96Kb/JUNXLXmrCbqKpWKBM+HAgB4//tGVINWn7sxSdZbdsqN37aRm9bWZ+kmiadE3+2MBJXzTzEzS6RiiVS6qbWutbOheyB75ZPt2aeb0/d33jw92dsO3quZmP2o0AkheC/iQ6JOW/vcwFXXd9m6x629Xxs6NRYXEfFHp0M4Kjx6DAB4bxMnBC8+iMWkJRvru2TVO1rnsLVkJZ76eW5gVM4Po+bSze3p5vbOievdl2+tPb6w9vTrvYXpw62Vk93NSuHEe6+qP2zZeQhBggQRF9dMvTR0WNuA67vkRm9az5TVNf4Pfwji5r3+sQ4hMJkI4PxeBU9HcUxTDdrQrs09ru+iG71pA9c00/ozL1Kmcv7FD9FcrCk7XN/ZO/TJ/7678HLp7ucLd/5tf3m2nD8OPvrnt06u/jZVFyyujR2u/7Kb+NQGP7DWrLqEmONo19SZUd1vUkWrD2zRowDOV96oqohqLC7pBusad5OfudFb1j4giTp1v0ByUDn/iupojTNzsXg8kY6n6xo6enuv/2p75snqk683Xt473lr1lZK52D8a1Dl92jyERJ11DMWGbtjgNesataZuzTRLLMEdsvaYSTItqYwoYzkAzlfjSPWOFotbc48bvGHDH1j3uDZnraFdEin5hb72UTk/unjMEnUNibqGxp6h1sGploGJ9tFLO3Mv9pdmDjcWC4f7vlJWs/8QN8EHicW1vl2bstY57Pou2sA16xrVdCNxU7M/5KKimqyXVKPooYSIuUUAZz5ugoTq/JSkG7Ulax1DrmfKDVy13gva0C6/9Jg2lfPTfY2Pxeo7ezPtPX03fru3NLPy8Iulb3+/M/8yn9uJSgURfbuRtUosKfGUNXVY/9XYyC0bvKatfRpLSHVpFbfGWg1eETOJpyVZJ5Uj3sAB4EzHzdsrn4uHWEozzdY54sY/caO3rHNYYykxe7tW5pe8qVE5P+ltTlWdi6czrUOT9e3dfR/8Zm/x1dqTvy4//OJ4fUGiSMRLPGGdQ270Yxu9ae1D2tCmyQzzU2fj5/7tSaAiymM5AM74FS+IxOLS1B0buRkbv23ZKc20abpB4kl5b15zTeW8k9aJJ9PxZLqupbOxe6ApO9Q+ejm3PJMsH6frE4nWlnh23LIXtGNIU/XcB8/SJ/8P/j8AqP2wqa4h9aKm6QbtGLbshOuetOyUdY1qQ/t7eNmjct7lTc8s1djSfeFmx/j1/N5mcWPOSZTsGXFNnRJPcnwAALWSN6f3tVg8pBqsocM6h93IR27kpnWO6Ht8R6Nyfo5v+BZzdW1d6abW6lsjxHj5FACgNvqmukFGENFYQpu6YsM33dSvrf+S1TVLPCku/j7/+amcn6Vz1NSZOI42AKB2eC/BBzXNNLuOEeu/4vovWeeItvZrfUtNTMtz3wUAAN/7fgP3WEIzLdaS1e5x13/ZBq5Z54jV1BMXVA4AAPj+6RtVC85JPGXNPW7oAzf1G+u/ZJlWsVjNPXFB5QAAAJHqFJWKZFpc94Qb+sD6r1jHkDZ0aLpea/ONQ1QOAADnWAjBe5Eg8ZS1dGrHkGUnXe8F65mytn5NpGv6P47KAQDgXMZN9RfmNFEnyTprybqBa27yV9Z3SevbzsZG/FQOAADnNHREVeuaXP8VN3rL+q9qa5/VNUoiLWZnY2dTKgcAgHNUNsF7CZEkUtbSZ9lJ671o2SnrHLWmLoknz9i27VQOAADnIm8kBDGnmQapa7bWXtd/1Y19bH0Xta5Fz+iLoqkcAADOet+crg9XTTe7wWtu4jM3dEObuzSZec83L6ZyAADA/yRwghcfiUto+4AbvO4GrlnXqLX1a0O7xBJn/rXCVE6tnbHVk/bt/+GAAAD+bt1ICKJO61u1qcta+1zfZRv+0HovarpBz82BoHJqjIqqmqpTVVH9/j2xqhwcADjvbfPdzcJiIZ7UdLPrv+wmPrORD625R+MpMasuraJy8F5WjlosVZfINKg6771Vs4fEAQBUF4dLEBfX9sHY6E0bvmndo9bYoemm8zA/ReXUPIvFGjr7B27+X1wsvvX68f7yzPH2uq+Ug6qaMagDAOewbELwp+un6tusY0g7hlx2yvovW9e41jWe57sClVNzlRNv6OrLtHV1Td5YffLX5Xufb04/PNpeLR4fRKVC8J45LAA4L3Hz/c08Kcl6a2i3ngk38akbumGtvRJLcCOgcmqPqlosnmnrGrr9v3VfunWwtrDy6Iule3/anXlSOD4IPuIQAcB5upMnra3fjd12Y7ctO651zZqoExcXvutSObUbOhqLJ+ubk/XNmdbOTGtnx+iVnfmXm9MPtmceH6wvVooFUTFzDOoAwJlyusrWiznNtFrPpGWnrGfCusesfVDrmkSEiz6Vc5YiPt06NNUyOJG99tn687urj7/aevUgtzZ/srNROjkKUSVU31QiUrtdH0IIwYfgg7B4HsA5jZvw9s1TEk9Kptmae1zXuBu5ZUPXrLVXXJy4oXLOLBVNNjT3f/jbnssfH20uLz/48+Kd32++epjP7fhKufrUfQihFsd1QghqTp2oxVULIoEvKgDOW+FUF9MGF9N4Spuzbuy2m/qV672gyXqJJcTcuVofTuWcw8xRU2cJF0uk4qm6ZKapc/z67tLrjRd31599s780UzzOiZqZqVrt/FwH8V5VtanL1Wet4VhL03K8wKcN4BwVjg8SQjDVTGus77IN37CeSWvr1+ZuTTfSNVTOuePiiYbu/vquvrbRy62Dk62Dk1uvH+0uvDpcX8zvb1WKBTVTs/d3XCdUV4qpJuu0qcvaB6xnKpZsca+mdWmNsRwA5yNvTtfMajwljZ3WMei6x23gmvVdsdasmuMIUTnnmqomMg09l252Tlw72l7bePHt4p0/bLy4e7i5XCkVfKUcvP/b3/yLf135/okbcxpLhlSDdQy60VuxyV9L54jb3dKVLRElcSAiUn3+MvCkFs7euf32YmgxcXFNZrQl64Y/jE391vouaSojZiLK/BSVA1FVURdLpBq7+lP1TR1j13OrbzZe3F9+8Ket1w9P9nfNrLqX4Hvysy0SRJ02dLqRD93ox5ad1MZOy7QEF1fbE1UKB8B5CB0xk/pW13spNnbL+i9bS6/WNUuyrnYeOaBy8DPGjsXiqaa2ZGNrQ3d/U3a4ZXBie+bJ9uyTnbmXR5vLleKJVp/X+flfFnH6ddyLqqYatH3IukZdz4T1XbDuSW1or44yhSgSvrPjb5lpIqWJlKgwiYkzUTb+dHw9UWfNPZadtJ4py05Zz7g1d6uLc4SoHPyntaPxVF3r0FTzwHj/h/9169WDhTv/tvHi3uHGYuEwV84fBx+F4Ks3jHebO9UVkdU/VCwekhmrb7WOITf6sRv5yLpGJJ7iKwv+0clsTlMNlsqIHjN0j1qOm7dXQxeXVFozLdrS6wauxiY/s+yU1TVxhKgc/Atfgy3V1Nxz9dO20UtHW6vrz75Z+Ob3G9P3C/vbPqpUE+fdLTv/23+yxpLa3BUbvmnjt633otW3aqJOYnEhcfCfZY6k6iWZlsoJ43yo3cJRVQ0SnNPGDjdw1U392vouWVO3JtISS3KIqBz8q7cIiyXSsUQ6k25ur2vuaBmY2lt8tTn9YGP6fm55ppw/DiJmVt1m+af8mQ5Bgg+qkmqw7nE3cM36LljnsLX0a6ZFzPhKjn/uFFY1J+pEVAIPbKEGA8d7CT6kMto2EOu7bP2XXfe4dQxpfSvzU1QOfjIulmjsGWzsHui5fKt9/GrLwMTm9P395dmj7dXiwZ6vlH3w1cmjH5M7IYTqLJXGEqG+xZqz1jHoBq674Q+ta4QfafyI3OEQoKbiRoKEIC6u9a3a0KntA67vkhv5yHom2PyGysE7+9ETiacyPRdvdo5fPdndWn3y18W7v9t49u3x7nqlkA+nr035V+awTodk1YIzjae0uSc2etNN/db1XdJ0g1hMzPH0KIDzUDiqquqCi1lDhxu67qZ+bQPXtKFDY0k2L6Zy8C6/D6uKqrOEiydiyXS8LtM+dim3Mr/27M7aky933jwvHuZCCOZ+2BzW6ZCsmWbaXM+EG/rA+q9Yx6A2dmiqkdeIAjgvheO9eB8SaesejQ3ecEPXtXPEmnu0ron3T1E5+FmZi2VauzKtXa0Dk029w60DE1uvH+3Ov8ytzB7vbFSKJ0FEq9tS/c/rprpWSxNpaey0jiHrmnC9U9Z70doHNcb8FIBzEzchiDlt6tLWfusccdkpN3DFusYkVU/cUDn4JblEqmPsavvwxfyn//v6i7tLd/+48eyb3NpCKX8YlcvVt51//9hndVLrNJRi4hKabrC2fjd4zU18atmLmmmpLlHnwAI4221zeiVU1XgqxFNW3+aGrrnJ39jwDatvFRdn82IqB7+86oySxuLp5o6+679uH7l8uPF/33hxf+XBnzZePjjeWZPg/4cl30HEtL7V9V12E59Z30Vrzmq6URLp92iTZQB4x6UjIYhLWteoG7ttox9bx6DWt2kqIxYjbagcvF/MuWR9U7K+qb4jW9/Z1zIw3nPl2fbs0+03Tw9WFyqloq+Ug5Y1kdb2AeuasOyk9Uxa97g1djA/BeB8hE0I4bv5qW7rGrOeCdczaT0T2jGkyQxxQ+XgfefiiebekaaeoezVz3bnXyzf/+PaszvhZD/V2har89bSZkMfutGb1jWudSyJBHA+4kZOXzOi8TrJNGljp+u9FBu/bcM3tKGDYWwqBzVGzRL1jZ2TH7QMjI/+9v/Mb8xLbr2urTOZHZWmLk2kxSU4SgDOQ96oqoYg5kIsZZ0jbuIzN/GJdQxLqkHjKZ68oXJQk8zMkqlYMpVqbCm3d0f5w1iqTjMsiQRwXhpHgpcQgsW0qcv1X7a+K9YzYe0D1pyVVIalFlQOzgI1l2hokYYWDgWA8xA3p5sXq0qiThs7rK3feqbc8Idu4Io2dRE3VA4AADUWN9VHb0RVxYVYTJMZax9wE5+48U+tZ0ISabVY9bcxS0XlAABQa6ETgsRi0tAeG/rADX9kvRe0scsaWiXJ/BSVAwBArZXN6fyUiCTqtLXXdY1az6T1X7HslDV1UTZUDgAANZg3IiKiFg+JlKabrK3Pjdx0E5+67AVJpE43L2Z+isoBAKAWS0dicW3ocEM33ORnru+S1rdpql7iSVW2wKFyAACoLf7tm4ZT9do+YH0XXfai9Uxo54g1djBoQ+UAAFBjQggiQYJILC6pBmvstPZBN3DVRm9Zz4Ql0hwiKgcAgJpMHFUNohJPaFO3G7wem/qN9V+2hnaJJcS4S1I5AADUYuB4LxKkrtF1jtjAddd32brGtKVHM81qjiNE5QAAUGtxE7yISCypjS3W2mudo9Z30Q1cs45hTWU4QlQOAAC1FjfVX6ipS4R40pq73eA1N/Vb6798+vJwFk9ROQAA1GboeAlB6+qtZ9KGP3SD16xjSOvbNV0vFmMJFZUDAEBtlU0IwYv3Ek9aU692Dlv3pPVOWs+ktfZrKkPcUDkAANRe3ogEUaeJtCQz1tzjBq+5iU+t/6rWt/JwMZUDAECN9o2oSgiqyTrrvRQb+9hGbmjbgKWbJJ4WJXGoHOA9u2x9R0SUd8cA+PtXCi8+EheXlr5Y7wXru2zd49Y5bM09kkhz4aBygPeRmrl43Myqb8g73YWd1vlXUtF/F4vAGTq5RUIQVU01SKbFWrJu4Iob/dgGrmpdM9cKKgd4jxNHNZZI1bV01rV0JjKNUbnko0glfLdvKYfon7kJqKqaqcXUnIpK8LxOGWfgzBbVIKqqIRbTZL31jLvxT934p9bWp6kMmxdTOUANZE6yvrnv+q/TLR09Vz5Zffzl5suHJ/ubqipqqiLC3fof3ge8l+AlltSWLmusM7cjhy+kUuHQoObjPQTxUbCYtfW6wQ/c0HXrGtWWrDV2SjzFdQFUDmoicjSWTDX2DGY6si19Y829I62DU9tvnuVW5463VivFgpqpqihzWP+xbiQEUdP6Vm3udh3D2jpgubwW7onNSDjhEKFW40bC6bmdbtDmHm0fcn0X3OB1672omRauAqByUJPMxZqyww1d/X0f/S9brx4sfP3fVh99dbCxXCnmo1Lhbx83Oc+58/YgqLp4iCU10+x6L7mx2270pta1uGffysvnIsoAGGr0zBYRsbjEU5ppdp3Dbuy2G/tEOwY1npbqo3t82wGVg1pUHbBxlqhrac9e+aRlYHz0v/yfGy/uL937fOP53UJuNwRf/T3n/G4gIYiLa9tAbORDN/qxdY1qY6emGrRcVj0d9xKeP0aNntuxhDVn3ehNN/qx9YxLfaulmyWeZO0lqBycEWYuWd+UrG9q6Oxv6Oxv7h3pvvDR1usnO2+eHawvROWiqqnZuRrUOd3gVUTr27Rz1LITrnvCeiata1Trmk6PQ7kk1fcU8iwTaufMPl0frqbpRm0ftJ4Jl71g2QvWPar1rZzLoHJwZrl4orl3pLFnqPf6r9Zf3F369vO1Z98cbS4XD/fLhePgfXXN+RnOndMNXkU0lpRURjJtLjsVG//Exj62pm6Nxf/j38DXXdTOmf32TpWQVL01dFjnsBv+0I3ctK5RiSUYuwGVg3PBzJL1zX3XftUxdvVwfXH18VeLdz/fmr5fOMr5SqV6JTxra86r+wadbhqkwWLa2uvGPrHJX1v3mGWaNZFmDS1qt3CqZ3YIorGENHe70Y9jk59Z70VLN0kiLbE4vQ4qB+cpdJyzdCaezqQaW9MtHe2jl3fmX2y8uLvx8v7BylxULoqanJ05rCDBB+9FTRrarPeC671kPZPaOWRtA5pu5AEF1HDh+CDBBzWta3Ld49Z/xXovWOeItfWzfgpUDs79OZ1INveONGWHuy5+1DZyqbl3dOPlvdza/PHORun4MPiKhJpdcx5ON36WECSesPp2ae5x3eNu9CM3+IG29oo57gGo3bw5fX9LLBEyLdba6zpH3OB1G/rAOobUxTlCoHKAUyqSzDT1Xf9199SHudX5xXufL937fOfNs0JuN3r7BG5tzWG9HcNXcS7EU9bSExu77SZ/ZdmLkq5XlxBlDS1qNW+qO3yKM42ntakrNvKRu/Bb139F041iMdaHg8oB/kPmqKo6S1gs3jo0lWpqzV75dG9xeuXRl6uPvjxY/X4OqwZCp/p8cQhBTDPN1n/FDX9ovZesNWuNHZKqFzUu/6jZxvHVc1syLa573A3fsP4r1j6ojR2ablA1jhCoHOAf1U4smWrsHmjo6msdnGjsGWwZmNh6/Whv/mVuda54fOCjipqd7iLznl3+T8fwg0g8qU3d1jls3eOu/4r1X7aWXjHiBjUcN6G6qUE8rQ0d1jls3ZPWO+V6L1jboMYTHCFQOcAPyh1LNjT3ffCbnku39pZnlu5+vnjn97sL04WD3UqxEKLy+7Nv8vdLaM1JLKWpemvudsMfuonPrP+yphqrj1Ezho8ajJu3J7fFxCUklbGWrBu4Hpv6tfVf0kwLe9+AygH+5dBREXGJVEv/eKala+DD/7o9+2z54Z9XHn15sDZfKZzI+zOiE4KY07pm67/qJj51A1etuUtTjZKoYwgHtR46oqaZVuudciM33cA1ax/QdKMk0sxPgcoBfoLWiSVSsdZUurkt097T2DPYOXlj6/XjrVcP9xanC4f7PqqYuV9gHdbbMXyN10lL1mUnLXvBslPWNW4t3WqOzw61WzbBexEv8bS29LrspPVetJ4J6xzW5h6LpzhCoHKAnzp3zKWb29PN7Z1TN/aXZlYe/WX5wZ/3FqaPdzbKJ4dRqRB8JPrut9j5bn24xSSVtoZ2bRtwfZfc6C3ru2x1jXxSqOG4OX2rWkzTDVLXrC29buBqbPw2Lw8HlQP8TFw80TIw3tDVN3jrf918eX/5wZ9Xn3ydW3lTKZ6IaHUfj3cUOqf/5CASi2umxfVfdhf+ixu6YU2dEk+K4xlM1HDhVPc+CGZa3+oGrrrRj23gurX1ayotLiGBh3BA5QDvnqq6eMLFE/F0JpFpbOob6/vgt5uvH649+2Zn9ml+fzuE8NPPYVVfQBhCSKSttd8Gr7n+K9Yzrq391tDGHmio7cDxXkIU4mnrGIz1X7GBq9Y9pi291tAu8RRtAyoH+AWYi9W1dNS1dLSPXmwbu9TcP7b+9M723PPD9YVCbqdSzAdR/ZFb7Hw/hh/XdIs292j7oOu94AY/sOwU81Oo8bzxEoKo04Y2bezQtgHXd9kNf2jZKa1rJG5A5QDvR+7EEi39E409QwMf/S+b0w8Wvvnvq0+/PlpfqpQKPqoE76u/7Qfkzvfr1E3NQiyh9e0ue9Fd+LUN37CWXjV3uj4cqLW0ebvzgarFg4trpskNXHMTn9rgB9aa1XiazYtB5QDvEVVV58ylXUc2XlffMjAx/Kv/2/brR8sP/rQ5/fBkb1PV9IdGSfVrbjKpnUOxwQ9t6Lp1T1hjh6abJBbn8o+aDh0JkcQS1jlkwx/ZyE3rHD49t+NJzm1QOcB7ylws3diabmxt6h1t6R9r6h3uGH+wNfNkf/HV0dZquZg3c/9oDuv04RsvLqEN7do+aN1jLjtl2QvWMayZZm4AqN2yCSGIeFHT+lZtG7DOEdd7wQauWPeEpuo5t0HlADXDxePNfaONPUO913+z9erh/Df/fePZtwcbC+X8caVYCFEliIT/cAuQIKoaT4dEnTV2uOwFN/GpDd+w5m6xuLB5MWo0bk5/pRpPSDIjmVaXnXLjt93ITWvOSvXlDJzboHKAGnK6b7JzdS3t2euftY1cPFhf2Hh+b/Hu7zee383vb/+dp2pCkETausbcyEc2ctO6RrS+TRNpcTFlBS1q/u4R1/ah2PhtG7ttXSNa16LJOnFxJW5A5QC1GzvmYsm6hmS6vq61s76jt2VgfPva081XD7ZePTrZXovKxVCphBC0qcu6J6zvkuuZsM5RbevTNGtMULPebnwg5rS+1bonLDtp2SnrnrCOAU01CnvfgMoBzlLuxBKp5t6Rpp6hniu3N6cfLN79w87rx/UJjbfWu7r+WM+YjX5sQzesqUONHzTUbNxURyVFJZ7STIs2d7vucTf8oQ3dsNZecTw4DyoHONO5k2xo7r32WfvY1ZPtleLam7gvpftH4u0DUtcsLiG8gBA1WzjVfTCDOU2ktbXfTdyOjX9mPROSqtdYUszx/A2oHOBsR46qOkumXSKVqm8qd/SKj2L1jZpI0zeo3cCRECT44JzWt7m+KzZ41XomrW3Amrs1zfwUqBzg/OWOSyRdopNDgdqNm9ONuavzU00d1j5o3RM2eN31XbKWrJgjbkDlAABqLW+qsW6x4OKaymhz1o3eik3+2vouajIjaqLK/BSoHABA7XVOdf2U1LfG+q+6sY8te8FaeiTToskMi8NB5QAAaq5tfAhegmgirS291jNp2UnrvWA9k9bUpeY4QqByAAC1FTdvJ6hcXOIpq2vSlj439IGb+Mz6LlqqniMEKgcAUJOFo9UnbFxMGztc32U38ZkNXLXmbk3USSzJIQKVAwCoucDxwXsRCcmMtva5gauu75J1j1t7vzZ0qItzhEDlAABqK26q68NFYnHNNEhDh7UPuv7LbuSmZcct1cgRApUDAKjJwqluXBlc3Bo7beCKG//MBq9ZS4+6hPB8MagcAEBNBo73Ij4k661zODZ0wwauWeeINXdrXbPEeP8UqBwAQM3FTfXl4bG4NnZqS691Drvei27gqnWOSLqBuAGVAwCovbyR6qtGYqkQS1lTpxu46sY/scHr2tSlLs7mxaByAAC12jkSvMTrrHvcjd6ykZvWPqj1bZrKiGN+ClQOAKDWyiZ4L96LOW3utq5R65502UnLTljbkKQyxA2oHABArcVNEJEgopqok3SDNna6gStu7LYNXLfGDnVc2wEqBwBqLW9ENYiqShCVWNJ6xt34ZzbxmbUPWLpBYknWhwNUDgDUXuKEUJ2fimlzj+u7ZNkLlp2wzhFr7pVkmvkpgMoBgFqLGwkSqvNTGW3qkJZel70YG7lhfZe1sYOXhwNUDgDUZOGoqopJLBaSddYxHJv8lY1/ap0jkqxTc6LGUQKoHACotcAJQUIILmbNXTZ4ww3fsJ4Jbeq2hnZJ1okIU1QAlQMAtRQ31cAREU3WaUufdY5Ydsr6r1rvlDV2EDcAlQMANRc3Eqq/dnGJpzTd5Nr73dhtN/aJdY9LPCVm8naDYw4YQOUAQK21TiyujZ1u+CM3/onru6iZVk03SDwlStoAVA4A1FbX+CDBi4okMtYxZL0XrfeiZSesY9Qa2ykbgMoB8M/fVE+dzn3gF/wkRCSIxuIh1WCNHdba74Y+cGMfW8+ExlMcIYDKAfDD6FuievqIKzMhP3veVI+/iGo8oY2dbvhGbOq31n/FMs0ST4iLc5QAKgfAD00cc4l0LJmREKJKxZxTM0Ln520cL8GHIJLIWOeIG/nI+i9bx7C19mmmhQ8CoHIA/IssFm9o781e+aRSONlbeHm0tZo/2A1RJaiqkjvvNG5CCF5EJJbUTIu19Fr7oPVfsuGPrGvEmJ8CqBwAP5KLxZv6RjIdPdmrn6w++nLx29+vv7xfyG1XisXgK6fb0ImQOz9l3Lw9oOISkqjTpm43eC124bfWf9nq20SdGJsXA1QOgB9P1ZxLpDNN2eFkfVPn1If7y7Nrz75effTl7pvnpcKJhKDcdH/i0PEiIslG1zXiRm/b0HXrHNZMm6bref8UQOUA+Olbx8UTmbbuutau5v7Rpuxg+9CFrZnHO3Mv9xZfHe+s+XIpqPHIzo8omxCClxAkntTGTuscse4x6550fRetbUCTdRwh4Ge62gVWkwLnnq9UTnY3Vp9+vXTv882X94+210pHB5VSIfjobRe9R60TQkim6wZGxsZa092VzVjw4T35451eT4OoaSwpqXptybr+q27yM9d/WevbGScDqBwAv8D92UdROX9SPN4/WF9cffTV8r0/bc48LuZ2qs/MUjk/pHJE0g2ue9KN37aRj6x9yNINkkiLOYbFgJ8ZM1YARETNxZL1jcn6xrqWrkxLV/vIpZ2551szj7dfPzlYnSudHIpzZlZdioX/WDfeS/ASS2prr8tOWe9F6xq1zhFtzmqyjrgBfrFLG2M5AP7Ofdv7wuHe1szj1Ydfbry8v78ym9/fLh3lonJR1ap7C/5yTfG+jOWcbiGtqsmM1LdYa5/rv+JGb1nfZc00U4TAL46xHAB/7wuQarK+OXvlk87x60dbK+sv7i7c+d3Gs2+Ptler4xanG/ie2wo83TbagjNN1lt2yk186sY+trZ+TdaLi4kwggNQOQDe18wx58y5WCIZr8ukm9rahi/uL7/Zev1w9dGX27NPi4c5izk9h3NY1fVT3ouLaVu/G7zuhj6wjmFtzVpjp8RT1A1A5QComd5xsUSmvSfT3tMxdrV97HJz78jGy/t7C9OHG0vHu+uVYkHVqi9mOtOjO+H7+al0ozR3u/Yh13fRhm5Y7yWtayRugPfx+sVzOQB+wH3eex+VCwe7my8fzH/931Yff3W0uVIpFaJy8WfbOvlnfS7nby6RajGJJ0Ndk+sai43fdhOfaVu/xlPCyzEAKgfA2ckdHxVPDk92t442lzZe3F158JfN6Qcnue0QRd+99PzsVE4IIkFczNoG3OhNG7llXaPa0G51zRJLEDfA+4wZKwA//OuRuVR9c6q+ualnsKF7oLl/oufN863ZJ7tzL3Jr85XCsQ9iZjU8h/Xd5sVqWtdkHYPaNW69F1zvResa00yz8HQxUBMXK8ZyAPz4JCgdH2xOP1p+8Me1Z9/kVucL+9vlwrGvVKoPsvy0EzrvcCznby+ILi7pBqtvs86R2MhHNvqxdQwxeANQOQDOHe99VCqU88cne5trT79Z/PYPG8++Od7diEolNa32w0/VB++ocr77E4YgGk9oS68b+9hNfGo9U1rXqIk6cXGevgFqCzNWAH4CZmapuniqLtXQnKxvbukf3/vwv2y+frw182h/8XV+fzsEb+be0zms6uKp4EN1fqp7zPVdtr5L1jlqbf3MTwG1i7EcAO9EpZDfmX+5/vzOxou7O3MvjrdXCwe75cKJBFGz6iTWv9okP9FYTvXyF4KISiwh9S3WknUdIzZ4zYauW+eIujhxA1A5APA/JIT33kdRqZTPbW29frR8/8+rj7/aX3odlQrB+xDCvzyH9ZNUzvfzU+Y0ntbmbjdyy134jeu7pOl6sbiYY304UOuYsQLwbr5CmTkzF4vHkqlEprGlf3zgo/+69frJ+vM7my/vH24ui+ovNYdVXT8VRLWu2fVMuuEbNnDV2ga1sUPTjZQNQOUAwD/FnEs3tqYbW5t6R1uHLrQOT7aNXNqefXqwNne0uVI8zAUVUdOfIXdO14eLxpPS2GldI9Y1ZtkLru+idQypi/NhAWft6xYzVgB+HqePwURR8fhgb+HV0v3Pl+//eXdhupw/rBTywUf/5NbJP3jG6vt/rpNYTFMN1txjQx/Epn5r/Zc03Siqb/+djOIAZwpjOQB+ri9V1Y6IxVKNzR0TVxq6+wdv/q/bb54uP/xi7dFXB+tLEirhHT0KU93fL91o2Sk38YkbvG6t/VrXKIk6NeOjAagcAPipcsfiqUw8lcm0ddV39zdmh7smb2zPPtude74z/7J4uOtDUDU1+1HFE0LwXsRLok6beiw75bIT1jNhXePW2quxBB8EQOUAwLtiLlbf1p1p7eq59HFuZXbl0ZcrD77YXZg+2dssHO75cil4/4O3Tv5ufbiLaape6pq1td8NXImNf2q9U5Zp4bAD5+g7Fc/lAPjFBe99pVIpFYpH+ztvni3c+d3i3T8cri1UioUQguq/2zr5HzyX8/36cHVa3+KyF9zEpzZ0w9oGNJGWWIL5KeBcYSwHwHvwfcvMJRIukUjU1SczTfUdvdmrn27PPtt8eW9z+sHJ7mYUlc051f/5HNbb+amQqLO2gVj/Feu/bF0j2tpvjR0ST/FcMUDlAMAvnDvJhqaOhqttwxe6pj5sG7nQ1De6O//ycH3xZG+zdHwQVcqq9v0gdHV7Qe/FOa1vlcYOax90/Zfd8IfWPamZJuIGONeXFGasALyPQvDee18pHx/tLkyvPPxi6d4fd+aeF4/2faWSSCb7h0fH2tLdle2YSIglrL7F9V208U9t6ENr69N4StTe09dmAaByAKD6yE65cFLI7RxuLu/MvVh7+vX6029Otlf7+gfGO+p65CDeOWTDH7qhG9o5bI2dWtcs8SRpA4DKAVAzfBTlczs7c8+3pu/nlmbqrNLdkOhoaYxnJ13/Vesak3QDcQOAygFQe96uEA9RqZDfWSusz8UtNPSOueZuiadOr2jMTwGgcgDUdO74SiWUCypiiaS4OHEDgMoBAADnCBtkAQAAKgcAAIDKAQAA+GX9/wHg+UcaX0mATAAAABJ0RVh0U29mdHdhcmUAR3JlZW5zaG90XlUIBQAAAABJRU5ErkJggg==;" parent="1" vertex="1">
          <mxGeometry x="40" y="180" width="38.29" height="40" as="geometry" />
        </mxCell>
        <mxCell id="ii2NFjTAbhS2r2lRkWKy-5" value="Google Cloud SQL" style="shape=image;verticalLabelPosition=bottom;labelBackgroundColor=#ffffff;verticalAlign=top;aspect=fixed;imageAspect=0;image=data:image/png,iVBORw0KGgoAAAANSUhEUgAAAXIAAAFyCAYAAADoJFEJAABPhUlEQVR42uydB3xUVfr+n3PulEx6AiGhiAqikKioQRQVhgAqotjWoKKra8OC5bfurt2d/0hZe6MoiH1tZK3YKXEoFiAWlNgQRIQkJKRPysy95/w/92YmRKQkZCaZO/N+9wNm4prMnPue5z73Pee8LwdBEARhakjICYIgSMgJgiAIEnKCIAiChJwgCIKEnCAIgiAhJwiCIEjICYIgCBJygiAIEnKCIAiChJwgCIIgIScIgiBIyAmCIEjICYIgCBJygiAIgoScIAiCICEnCIKIXiw0BBEFg8vFUJzDctMG8MbeDuartDH9X/RNtzAaHqKr2VqpSv2ftnSfdJQ0yqKqjQLZ6yXcbv37kkYoUoSDiAzx1nG7BQ0HYcK4JVEnISd2JffWypTEZPsJHDgKwOEABgCyP8BSGWQ8jRARbiRYAyCrAfYbgI0AvhMCX9XXN39WdF96DY0QCTmNef5CfkjW0Za+6b9rHneeqn/T6aobzG08HxL5YPJwRteGiEyBF0zKbyXYQuEXb3jcST+0xG+hZWtlP2VD6VcqCiYJcugk5FEt4IH8opFCOf7vWxxxPXtczpm8FlLm0BARJlT2bwC+4LeyrU9tmDWo2fiey8VRnMNI0EnIoxqna3sityX8nQE3ArInjQgRBVJSISUeEX7v4x53r3oaj66Fth+GG5eLZ7vW2wI3TTZ6uvdSxZbwK4O8h0SciCJr3pMxOUOxJWxyzqi/OBjvRuzrDp0gR27asc1fyFEwSdNf5E2rGQhmLWBMHE1DQ8SAR/xSFb7zlt+dusl4mb9QoVQLCbkZx1UGHXme7ZYrATzKIB00NETMeHSwRgHc6PHd/0ybrbWMxDwMt00agtCTO2WtRQ9Yp6vQkme79UUGOY9EnIg9NyMdCuRTebZbnzccOcACc4MgRx7BuFw8t2SiUjR/mN/pqkrlNnshgziKBoYgd86/rq1tGl10X3pN7pS11qLeizQ6AEdCHsljKZ0ub5ZiYx5AHErDQhCtYv6D8Mk8jzuhtO18oZHpPJRaCRHZrvVW/Z+5rm3x3MaWk4gTxK5ORwzWDY4+R9rOGYKEPCLi0+kqtBS7c3x6YCbbUlcxiEE0LASxO8ShydbUlfpc0eeMPncoMxC6dADRufGTustItqW8wCD/QsNCEPuaObygprn6b0XuPg2UZiFH3q04XYVKMPiSbel3kIgTRDuRIj/Fnn578FVgLhEk5F3vKTzF5dJIrUxvGMag/ZOGhCA6Iubav/Lu8ea2nUs0KCTkXe/GCyZpTtf2BM7wIiDtNCoE0SElt0NhL+pzqGUukSsnIe8mV85tSdcyiME0FASxHxMIYohiT7qG3DgJedcSKABUX5LEnDN8QwF5Fw0KQXTGmMu79Lmkz6m2c4wgIQ8fxTlGsBXNH+bnTLuTQSTToBBEZxApClPv0OdU2zlGkJCHz423VHDDqHvqj2BSnE2DQhChMOXy7Lx76luaq+hzjFw5CXm4yMYko+BPrmtbvMKVlwBJBYAIIgQwSCtTlJdbT30G5hpBQh4uV86SbWlnM6YdQYNBEKFEOzLJmjaxtTs/QUIeYvE2xqnYneM7EbdmMYj7aVAIIgzOnIkH9Tmmz7W2c48gIe88bRZf7Hb+L0D2pUEhiDAIOWQ/m43fvLu5R+xt3Ih9u/FAMDmHnnM0Z34Pg4ingSGIsPlLL2AZtezrt74xXmavl1S7nBx5p8gtmWic4NT/KFy9j0ScIMKNSADT7g3OO2MOEiTkoSDvHm+ulGI0jQRBhB8pxVjnDC911yIh7zRM/5PYu06e6GrowxT2DIOk8SKILpl8knPJn9Hnnj4Hg/ORRoaEvOO4XMzjzlNtNpwPiCNpQAiiC8WcaUfbrfxcfQ7SlsR9u07izwLOg4srTldVqmK1fw8msmhgCKLLJWprTW1zTtF96TW7zk2CHPleabu4otjsj5CIE0R3IfumJDse3N3cJEjI9/2U4nLxUdOahwDyQhoSguhOxMV505oPa3M4iDIJJOT7wOViRfOH+XObbkpSFG0uNYwgiG535XFMEbP0OWlUSKR8OQn5Pgkc/klKShgHKZw0IAQRAVIutXHJKQnOtnOUICHfnRPnwUc2p8ubxZk2g9EjHEFEBMZclNoMfW62fovqsJCQ78GJS+MEp12ZCojDaFAIIpLEXBzObfwq48SnPlfJmZOQ/4ns9RKB7YaQ4noaEIKIRDGXNw137UhuO2cJEnK0iHdha8MIbrc/AYhUGhWCiEREjwS74/FgA4rg3CUhJ1pwu0WiNfVIJuV5NBgEEcFIOTlZSRlCB4PaPqnQ55dBN55sS32fgXaqEETki7nycY2/6pwid5+GXecyOfIYw+kqVII3s2Rb+sUk4gRhEh1n2skptrRJQREPzGWQkMfu04g88p+lCYB2F00PgjDN5GWAvKtl7rY68ZjNMMTuXSx/obJ57hma01VoSUgc5GYQE2h6EISpfHl6nMPhO3DkuFVGhcT8hQqKCyQ58hgiN22A8dlVHN8HEDfSpCAIMwqY/KeK43q1ndMk5DHzVAY09nYw/bHMZpUzGYSDpgRBmBGRaLcxtz6X9Tnddo6TkEczgYI7xe4cX3pa6kmMyfNpMhCEeZEQl/RMSx2uz+m2czzm3GmMfmY5ZoZ3LSBzaSoQhNnFnK8qvDP+pLbzmxx5lNLmFJgcPaPhJhJxgogWxAl5M5uuCgp4rJ34jCkhL0cv/fNKp2t7IgP+TcFPEFHzmM0AMT1wdF8G5nrMEFPbD8tHZ0iMHs0GWMf8mzFxCoU/QUSTmMuEOB5fv2mk5dNyrBfweGQM3chigJaGrfpFlXn3eIcyBV9Q5x+CiMokg5cxZfjSO+zFgZrlLBZqsvBYulk5XZviGGczScQJIloRCUIKtz7XY8mwRr+Q5y/kwTuyYs2cKJkcT8FOENHs3MTZirXPycYLfe7rGkBCbm7anPaSkmEGg6TSvQQR1UiLhDajtbJpDJz4jPYtOiyxd510ugot3Db8cgYxiIKcIGLAlTNxxJjpjRdq/s8LgDoZ7WVueVQ/YeUv5B53nqphRH8GNpPCmyBiyJcz8ZBiPb5voKAWj+ZceTQLuXRmZxgXzm6TtwCiB4U2QcSQK4fsDUij/25AC2T0ftZoJH+hEui0jbEzG0cIKT5hkDYKbYKIOTn3AtZRy+60fbmrNpAjj3BaFzdcLi6lfJhEnCBiFZkAqT1gnCWJ4oXPaFzsZEW9F2m5U9ZaUy3ZpwuI4xhFM0HEsCkXztG22/PqpkxcrmtDNC58Rt3dKXfKWgvcbmFNyLRIjkcZNZgmiFh35QqDmK1rgq4NhkZEGVEn5I29HUx34/E9ek4FxIEUxARBMIjB8T0zLtK1oU0DChLyiCOQAysuXq+lHDjkCDBBzZQJgtjpy5mYkdzvyGxdI9pqBgl5BOHE6JZ9ogWTNDDcBsgUCl2CIFpduRS9mKJdH9i1wgKaQUIeSW7cg09ES9ef+iOlxNkUtgRB/MmVQ1zkdDUdon9paEaUuPKo+BC5JRMVuN3C6dqeKCV/jkFaKWQJgviTK4d0WGziGV0rjIVPXTtIyCODxN5GLQUo1qRzGBNHU7gSBLEnBMRJzJo4tq12mP8GZWZaGkYYJWqdLm8Wt2ENg+xHoUoQxD487I+AcC67M7FsVy0hR97VFOcEb0SM29g/ScQJgminLz9MQpnSamZ3agk58i534wGctn9lK2CfG8dxCYIg2udjdzCmnLC0eeaG1m+Z1JWb1pEbW4cCg26R/AEScYIgOujKe0ipTQsKuJm3I5p9sZPlKbeNEExSR3yCIDqMhDxnjO1fh5t9vdCMQt464GNm1PcCl7OofRtBEPsnJtIK8McNLdmNxpCQhxOXy+j8wyQ/n7YbEgTROVcuRgHKyUYnIZMeEGJmE/Cd2w2rUhWb/QdAZFIoEgTRSU+7sd7XePRqd4/aXbWGHHmICZzCMm4+itX+OIk4QRChQQxIssZPCxpcs534NJWQB05hybxpTQPB5CQKPoIgQiblTF52oquhj64xZjvxaRYhZ8G8uNO1KQ5czAGknUKPIIjQiYxIslvxoK4xbfLljIQ8lAROXinWzJMBQdsNCYIIg5rLSdyedVxbzTHHTcgk7zF3ylqLI/2QRFuybQWkyKGIIwgiHEjwlf4635mNlRvqi+YPU1u/TY58/3G6ChV9EIvmD/PbE+03kIgT7eXgXhwPTI7DvRfEoX9POmpAtBdxoi3JNlnXHF17AhoEEvIQkOvaFi+ZuJmCjNgXyQ6GG0+1Yf4VDhxzkIJjByh4+ioHpp5sQ1Ic9eIm9pkCYBLyzmzXepuJ3nMEk79QcWZnMLXxCIc9JX42IC6hMCP2hMKBs3KtuGSkdY+CXdso8azHj/e+9kMTNGbEXsRR8oebahv+n8XxbaOnuFwGWsSRI++wC08bYOxUsaQ4BgJyMoUWsSd0173gyn27bt2t3zTehnmXO3D0QQoNHLFHBJPX2pISe+kapGtRRJuYSH5SKDmjN7JHz7UmK2nPAnIQhRaxK/3SOW6daMffRtmQEt/+B8y0BIZTjrBgYC8FP5ZoqG+isST+JEJWBmQ4Rk5etC7pTQ0ej4zULEZEvimnq9DicecZjzFjZjRcB4jZFFZEWxLsDBefZMW5x1ph6aRXUjWgYLUfL6/yo8EnaXCJthKpMc4vXXq74+WANinGHvMIIyIfF4x8VGDQJHALBRPROq0YcPpRFrxwjQOTjuu8iOtYFODCEVY8f60Dpx5pMX4HQbQgFaHJW4M7V4LaREK+L/IXKoFFBWmxDr+DQfSnYCJ0juyv4MnLHbh5gh2pCaFX2/QEhlvOsGPO3xzI6Uf5cyJoHsQRFstxVxh7yXVt0jUq0t5jpL2hQ2742b5h1qDmMTPqMyXYRgYZT6EU22SlMFw1xobRQyxd+nuXrlfx1DIfyuso3RLzvhy8SviaB3jcadVBjSIh3/N7kfogpaen2xOtjtlg4q8UQrFLnBW4YIQN5x9vhc3SPe+h2Q+88pkPCz/3o1mlaxLb8AfqfY3TKysrmwNCziLlxGfkpFZcLuOmog9QvC1uBJi8kAInRh9lAYw93ILnr4nHX0/qPhHXsVth7Ih57pp4jM62gNLnsezK5fVJ9vicVjce0KxIwBKhE3kaIC0UOrHH4D4cU0+2I7tvZC3f9EpmuPtsO87OtWDOYh9+LqXTRLFnMKQDUt4NYEIkmp9ux9huWFwukb1ejrXeer1k4jEKm9iiRyLDlXk2nHxE5Lte/Vn6g69VPOPxocpL+fPYcuVMcM4vWdp07ysozmHO7AwWCdsRI8L21JckMRRM0pyYGi8Y7qJwiR1sFmDyCVY8f43DOKBjlnKcEwJbIM8/3mpsXyRixpVzIeS0I73XOnTNMrSLHHnrYoHxPsZOb5gumbiDwiU2GHmYBdeMtSEr1dyZ561VAk8u8eHTnzW6qDEDv37ZnfFz2zykdevCZ/c68pbFAmMAxt7jPUow+XcKkOhnQC+Ohy6Kw//7i930Iq7TN41jWn4c7rswDgdlULncWEAC94ya1jy4Vby7eeFT6VY3Pno0g8dj5MiZte+TDJJqjUcxKfEM1461Gwd6eqdGn+D1SeOYeIzV+JzfbxPw0XbFqIVBOjhg6z9y3Aebe53OkFGOQC2WbkttdA87T3Aib6Z3ApN4B5CUbYxCLBw4a5gVl5xkRWKM1AOva5R4drkf735F5XKjWM6bGONjlt7h+GxXTetqus0WBctC5k5Za4Vkj5KIRyfDByp46ioHrhtnixkR10kKNLeYd4UDuQdTaEcnMg5SPBR8dUjW0ZZYc+TM6SpUtlb2U/pn9r0KTMyioIguDujBce04G44bSCKms+onDfOW+oyFUSKKpByQnLEzN5dsW2xL98lid46/OxY9WbfcPFwuBrdbjHU1DZA2bTUge1BIRAcJdmZ06Dl7WGgqE0YTqga8vsaP/67yo6GZ9p9Hj5jzXxUfcy5xO36Dy8XhdsuuFnPeLZ+7OMe4gUib9k8S8eiAM+CMoy144VoHzhtOIr47LAqMfecvXOPAaUOpXG60wCAOklZxsfGiRdui3JG3LAboz5Yyb2bDcUzKT4w8E2Fqhh6oGC3WBvYi9e4IP5UKzPnYh+9+p/3n5nflrFJAOj13Jn5n6Gr+Qt6VC59dOvOc2RnG3crpKrRwiQdIxM1NViqD61w7Hr4ojkR8Pzg0i+OxS+Jw19l2o5YLYWZXLtMVMLeubYbGtWhdVDry1t81dlrDWYKLNxiomJwZibMCF51oM1IoNiptFhKaVeC1z/x49XOfUTqXMKUr9wvJx3jucqz6w7ejyZEHWiXJE2+pSJRcPkQibkbXAZx8uAUvXBtv1EchEQ8ddguMReLnr47HmBwql2tSV261MPGQrnGBzEOXbdnqsl/U87AblJIB49igg4ZMBXA+XXZzkd2Xw/WXOJwzzIp4mzlk5rdyFdNfr8SybxswuK8NyfGRn/5JsDOMGmzBMQcr2FgmsKOedreYy5WjD7fb1/3aY+gPPdUsXlI0X3RpuiNstGzHMT6Mc2bdYC75pwwyjS65OeiZFCgve7h57Hd9k8CzhbV44/P61lOVVoXhLyMScenoJCTYuVlEAR+tU7GgkMrlmkvM+SYIfnLh3XG/7KqB4SL8szOw1dCw/5LPBIm4KbBZgPzjrJh8gs3IiZsBIYBFRV4sWFKDmoY/zhu/JvHqyjp89JUXV45LwRm5CRG//U9/e+OPtGDUYAUvrfLj9dV++GmDiwlSLOJgprCbAUzdVQPN6cj1O5H+IbLXS6ftliM5sJpBWulSRzb6o/3VY21G02Oz8NWmZjz+fjV+KW3fSuGg3lbcOCEVQw+ym+YzbqsSeHKpzzglSkS6K2d1wseP9ODe34IaGE5XHtaZanT+ceepua5t8cm2lGUM8ji6xJHLwF4cU0+xYWh/8xyrL6lSMefDGiwvbtyv/z7vcAeuPTUVWanm+cxfbtIwd4kPm8rpuH+Ee/NFNb6aC4rcfRqCWhiu3xTW1Eqwe0aKNfVUQJCIRyipCQyXjbLh9KPMc9qw0SfxoqcWCz+th0/d//xx4XeN+PTHJpx/QhIudiYhzhr5A3DMwQrmX+nAoi/9RoXFukbKn0coE1LtaUMBfBbuTkLh+eE7k/tszPSGPmByFSAPpOsaWVg4cPaxLeVlE+zmSaN8+FUD5i+uQUVdaFMMGckKrj4lBacMjTfNWNQ1STy/3I93vqRyuZGIBFvj87GzV7njS4yXYVr4DI8j35ncl2DyHyTikcnDF8chp595UgrFv/vw2HvV+P53X1h+fnmthun/q8SbX9TjhgmpyO5ni/gxSYpjuP4UG44bCNz2Gp0kijQY5LFxdn6BPt120caId+Qs4MrZSOttfS1MrGeQSXRJI4+Xp8Yj0wQLmrrzfvKjGixe1wDZRVkExoBTh8Zjyikp6JkU+Te7DaV+XPlEJRR7IgV25Lny3/1MHLOy+cEdgcqICPWJz5BvqM12rbcab9LtFjYm5pKIE/uLT5V4wVOLyY+W4uNvuk7EjVkmgQ+/bsBFj5biRU9dp/LwXYUQfmjN9RQ4kefK+9kkvyeQUpEBjQwp4UmtuFzcab31GAE5gY4aE/vDJ+sbMffDGpRWd2/jy0afxFNLavBukRfXnpqC0TmOiBdzNNeTM484V45LR02rvn+5+shmhC0NErqfJVu6/3gzuU1+wICj6BJGLpGYWtlQ6sfj71Xj61+bI3LMjjrIjhtPT8UhWdaIG7fL55TtfNTmVhLziFNz/r7ml1d43AllQa0MVYqFh+HGIBUrO49EnOgI1V6BB9+pwpVzyyJWxHX096a/R/296u85kp05pVkiTMeZHM+s7MQ2Ih4yQiPkLlfw58iTZtZlSCbuoMtGtAdVk8Ze8AsfLcU7a7wQJtgSrb9H/b3q7/m1VXXGZyAxJ/btciXnEHePnVnbo9WJ79TO7hdyJ0bz4BuzSWUmA3rTZSP2xec/NeFvs8sw+4NqeJvMtwlaf89zPqzBpbPLjM9CYk60Q82HSqlcHzS+Ae2MEEce4KTb6zIA+Ve6WsTe+K1cxS0vVhh/fqtQTf95tlS0fJ5/Pl9hfDYSc2If3OB0bQppdzSl0/cXl4tvxq/yxONeT7QlW19gQDZdJ3Pwl+FWJMZ13WJnfZPAvMU1uPfNqqgQ8F3ZWqni7TX1qG0UyDnABpul68a2sl7g7TXePf57KQUgNHCLjQK/+4nnPDG1z7CbV66wLvRh9GgGj6ebHXlxDoPbLeJS48cCOJ2uEfEnRyhhiMzkR0tR8Gl9xOaUQ4EmgP99Vo8LHinFW6vrjdK65MyJP91YGabYUhOONPaWh+C0p6VTbjzQULnctd4mhfh/jFGHKuKPdLS8bLRQ2yDw8KJqvLXaaxz3zx1gjxgxp33m3Q+DtEGKW7Jd6/MzsF14dmqq7FJHnjtlrdEt2uPOU7OsB90MhqF0eYidj/oa7nplB256pjzmRLwtG8v8+Puz5bjz5R0hL/JFztzkrhw4o7f1wPxAeVsZ0FR0qZA39nbodw+We2tlChhupctCtCU1XsGxh8QhNYHTWCRwDB8Uh/TEyKnZQmIeEa6cS8buOfKfpQn6y4CmdqGQ5y9UirFQHXdrZXJKctxcQKbSZSH+EFgcOOvYBLz8f1nIPyERFiX2sm76Z9Y/+yv/l2WMBY+wISAxjwhfPiAjNfkOXUt1TdW1tcuEPDdtgFFT15dg6y8h8+liEHsiMY7jhtNS8dzUTBx/aFzMfG79sz5/fabx2RPiIvephMQ8Aq4BkzcgzpGia6qhrV0g5IanKKraKPTHAQvHg9SDk2gP/TMsuP+vPY0//XtaovpzPnBJy+c8wCSfk8S8e2GQScImbtc1VdfWtlobHiHPX9jy/y+YJDJSki+WDCfTZSA67FRvyML1p6Uabj1aSHJwo5nz89dn4bhB5nvyIDHvXiRweUZK8sm6tv5Ba8Mi5NnrW4q95C/kgsvbGGi7IdFxFA5MOiERr/w9C2cem2Dk0838Wc4enmisBZw3ItF4bdpHfBLz7nTlNnB5S0DAWUBrwyDk+QuVYGH0MUedfhuDPIiGn+gMKfEc/zwzDU9fm4mjD7ab7v0fM8COp6/LxM0TU43PEg2QmHfj2EMeP2bohEnBxjwdWfhsd/RlZ+cYP/REV0MfALfRsBOhYmCWFY9dnoHpF/ZA77TIzyv3SbNgxuQeePSyDAzIjL4lIhLz7nLlYJKx+52uup5tNbc9WNr38yEdJY3yxFsqkuw2+QAg6VgYEXJGZTsw4tA4o6ztC55aoztPJBFvZ/irM9lIC1mjfDslnQDtLjGX/bgN1594S8VDTSW/NrXV4M45cperZafK/GF+S5LjRACTaLiJcGG1MFw0KsnIOY8/Ot5ogtzdcAZMOCbB2A9+0cikqBdxcubdHnE32xLjs3XNbavBnRHy1h/gdBVaOMc0QFpooIlw0yNJwR3npmPe1b2MSoLdxRH9bZh3TS/cdk4a0hKVmLsOJObd4sqTmCJv0TV3d1rccSEPbIExRNwy7CoGOYyGmehKBve14YkpvfDv/HRkJHedkGamKHBNSsecq3rhsD6xXfqVxLzrkcBEbjluQquY72M74l7/ZfAEJ5ATxxj7Nw0v0V2MOzIeL/1fFv6Wlwy7NXypjTgrw2VjkvHfm7Iw9oh4GngS8+5y5VbGxD1V3iH29pz4VPb4cwCUnNEb6DWVH9In+w4wqjUebRgNEPpyOGzmyPlaFGZsUzxlaAJ21Av8Wh66qoqMtdws/nNxT5w42GGq2jAVdRoWLK3Fpu3hrTJJzSm62JUzZCbG2b7f1OOo4pIBKwU8nj02bd59tLpcAScO5pzhHcqBVQyS7EkUEm8FJo+QOG9EgukW8dZtbql1/tO2zgnY4L423HR6arfm4vcHnyrx2qp6vLi8Fk1duMOHcyvtZumyFAvbAqGdXHh38k/Gy53a3A4hD5zeRPZ6OcZ2yxuAPIuGNJqjRaJXfAOmjk/CSUMcZnvreO9LL55aUouq+o7V+05PVHDNKSk49ajI2B3TET5Z34i5H9agtLp7WuaRmHepmD9U6Lv/FqOTUMsRfrlvIc9fqKBgkjEj8qZ5JzCOdwCp0HBGv5irzXU45mCLUTPkYJMddGlolnj+k1qjzZp/H63krBaG809INPaEmyWtFGRDqR+PvVeNb35t7vb3QmLeZUJeJyQb47krfu2uGt16LXb9j9qeJmIcD5OIxwiMwWJPwpebVFw+t8xoU1bbKEzz9uPtDNeemoIXbsw0ctx7YlS2A/+9MRNTTk4xlYhXewUefLsKV84tiwgRBy2Adt3UhEyyMHn/7jR6T46cBdsNJR845K8M8mkaxth05lJqRkW/y/KSce5xiaYrbLX2lybMer+mdQFwYJbVeNIwW00XVZN4/fN6PPdJHbxNkXljJWfeJXKuaUKMq9/y4yq0HNBU26ZY2B9E3eUyOuKPc1X2FzZ7ESB70gDGtpjrHJhhxQ0TUjD8EHOVZxUCeGtNPSyc4YxhkdehZ198+mMT5nxYjS0VasS/VxLzLhHz7yDZ+GV3xW8NLHrKoJjv9pSmtNtvhSQRj/U0S1DMN5f78c/nKzDisDhcPz7VNA0T9KcI/WnCbOjjrT9NrN7QZKKbJtVm6QKHdTgYOw/AY3+KdeNvXd0DjLqn4VghcRkNGom5LuaM7UzHffZjE/42uwxzPqyJ2Md8M1PXKIztlPoYm0nE24o55czDLub/yptWe1jry4B2twh4cQ4L1sC1KvI+BumgASN2J+Z+TeK1VXWY/Ggp3lnrhZA0TJ0XQODN1fW48NFSY9eNJsz8WUjMwyzkfRnntwR7QwS0G227UbAx02uGC8jRNFjE3sRcpyqwi+KqJ8rwdYTsojAja39pNnYJPbKoGrUNIkpuTCTmYZVysAvGTK86sK12M6er0OLBJ2Ks7x9pIlH5kApjEbuPnj8ugO7K6BwHrhufgqxUKo7ZHrZWqsaBnhXfN0btZ6QF0LA6rNdZvXb1UttDVU6M5ry+JMnYqSLi+VBA5tIAER1x5kE+Wd+Iix8rw4IlXXtc3Gw0NEvM+7gGlzxeFtUiTs483K4cE2Ui76trt67hDPkLlezsHCXLduD/AEykISI648x1eiYpuDpw9J1oHTZ88JUX8xZ3vJQAOXNi90HFZpf6f/1HcfF6jRmFsabX5HJmWU6LnLFFVgpDaY0Mi5jrDOnXUowqu19sV8v79jcfHnuvqtPFvfZGrxQF22s0EvPYogxgE5bdmfAV16elwpRzScRjjwcvcuDvp9mRGt/BkzL7SLME+f53H66dvx3T/1dplFqNNXRh/X8LK3H9gu1hE/G0RAW3npOG/1wU2cc+KM0SFjKlFMcbGg6Xix+knHQPAw6gcYktzhtuxTEHKTjjaAt8GvBziWj/dkLGwBUbpObfV19Y/FLmx9trvEZ6QXfpCo/unpfNfokXPXVwF1RiQ0l4BNyqMFxwUhKmXdDDKL9b5RXGGEd0JoDqmYccxpjYNNL6GjvRVdHHbnP8SJ3xY4+Xp8YjM2WnqG7ZITB3iQ+rf9FCnmYJkpVqMYpb5R0enQ+AS9Y14ImPalBeG74nkBMHO3D9aSnom75zh9CGUj8un1NmijGiNEsIb45gv/t8jcdZ7Fb7mSTihM4BPTj+c34c1mzUMGexzxD29qZZ2ivmpdUqXK/twBtf2I0iVoN6W6Ni7H7Y6jNOZX73my9sv+PgXi01b4YNjDP1WNFx/pDSJ84aN9LCwM6izWJEW44doODpqxx4a60fL6z0o75JhlTMdb75tdk4THR6bgKuHJeCtARuyrGqrNcw7+NafPR1+E65Jjs4rhibjLOONV8VShLzMKdWILnk7C8WMDZkXzlOIvZQOPCX4VaMO9yCZzw+vP+1uneh2g8x13/eorVeLPuuEZc6k3DeiETT9Mr0qxILP21ps9bQLMN2DXTx1kU8ycGjLsZIzEMk5hJDLRJIp6Eg9kRKPDN2tpyVa8XsxT58s1kLqZjreJsE5n5Ug0VFXlx3aipOHBzZqYPlxS1t1rZVha+87LCBcbhxQgoO6mWN6vgiMe88EsiwAKBTG8Q+GdCL4+GL4rDiRxVPLvWhtFqGVMx1tlSouP2lCqPu+fWnRZ6IbSzzG3nwLzeGr7ZM33SL8dn31uWIxJzYRcgTLdTKjegIIw+z4PhDLCj4wo+XP/WjcXfH8Tsh5jqrNzThsjlNOHt4Ii4f0/1phZoGgaeX1uKdtfVGpcJwkGDn+KszCZNOME96icQ8QlIrkFaqcER0GKsCTD7BilOPtGBBoQ+Lv1V309a7c2KuCRgtzhZ/04ArxiXjrGFdv9Cnv4c3v6jHM8tqUR+m+uucAacdk2D0EDXrgi+JefdDQk7sNz0SGW6d2JI/n7O4GcVbRUjFXKe2URglXt/6wosbJqRi2MCu6bn5xc9NmPVBNX4rD18e/MgD7UYJg2jZgkliTkJOmJjBfThmXerAku9UPFXoQ0WdDKmY62za7sfNz5XjpCEOTB3/x8MwoWRLhWoI+Oc/ha9DT2aKYhyKGnMELU+RmJOQExHGuMMtRg795U99Rg69WQ2tmOus/L4RX/zUhPwTEnGJMxnx9tDkk71NAs8W1uKNL7xG5/pwEGdluHBkEi4amQSbhVHAkJiTkBORid0KXOa0YcJRVsxb5oPnezXkYu7XJF5eUYcPvmrAlHHJmHBMgv7j908wJPDuWi8WLK1BtTc8eXD9vY09It5w4RnJtLeAxJyEnDAJmSkM/z7HjnW5FuO4/4YyEVIx16mq13DfW1VGv8sbJ6QaOeeO8NWmZmM74S+l4SsvO7hvSynfnAOoUBSJeRiFnIHOdRLh48j+Cp68woH3vlLx7HIfqr0IqZjr/LTNjxueLkfe4S2uNzNl7663tFrF7A9qjIM94SI9UcHVpyRj/FH7/7RAkJi364mvxZGzJkDG0XAQ4Qy0M462YEy2gudX+o0aLkBoxVxKYNm3DVj1QyMuPCkJk0cmGTnptjT6JF701BpH631qeOyL1cIwaUQiLhmdDIeNFJzEPPxIMJ8FkFUAetNwEOEm3s5w7VgbzjzaYpTL/fzn0Io5ArXAnyusxXtFXsOdjzsy3hD5j75uwPzFNWFtcDFyiANTT0tBnzTKWJKYdym1esT9RkJOdCV90zlmTGoplzt3McfGrTUhFXOd8loN9xRU4o0v6o2DPd//Hr7ysgMyrcYe99wBdrq4JObd8MQrSi0c8nMV/FgGyWlIiK7EKJc7JR5vrbHimWVVqPWGXmzDWR88OZ7jyrHJOHNY9JSXJTE3IZJ9waXAcgZZRqNBdAecAecOt+LlmzJw9nHJRunWSEd/j+eNSMSrf88y6sGQiHePmFMPUCM/3sCkfN8Ctflz2BzFgKT0CtFtJDsYbj4jGWcfG4/H368Ka4XBzjD8kDijS8+BGXSsPiKcuc8LxZYQs2PAgI26hvMlmFXKIDwUFkQkMCDTgkcvy8CMyT0iatHwgJ4W3HtxTzx4aU8S8UgSc80HzeeNYSGXn+sazuF2Cwn2MzO2IRJEZDByiAMv3pSJq09OCdkx/P0hIY7julNT8Pz1mTjhMNqlS2IeOUgwwYBCXcMtLe5c/YlBWSXBxlJYEJGCVWG4aFQSTjsmPux9MXeFMxj9RK8al4LUBEqCm0HM4UNMpVkY8JOA+oP+pYL8hYojPa4iSUnWJNjZgfMbRAwwuA/Dwb0iv/aHw8YNh378oXFGFcTtNVpYf9/Qg+yYMbknJg5LQJxJDvWs/KEJn/4Y2w/VxhZWKcAVW6xY8hml/i3vlfcaDZY7Za21aP4wv3NG/eFW4A0BDCKJix2O6a/ihlMT0D/DPIdYlqxrwBMf1Rh7xUNJVqrFOESUd7h52qxtKvPjsTC3nzMbupBHvzNnVRrkKM+did/pGq4cesaFfPPog3BI4wiVWaUA46OomFbsUFLD8faaOtR4/UZhJzOUVx2QaTW2/Smc4futPuPAT2fQXfelo5PhmpSOQ7LMsZBZ2ygw58MaPPB2FbZVahTIMebMGfA4rxcfbRpraz40qY9RzofB5WJwu+WY6Tv6MGZ/TQInUjjEFpq/AYk2v+kOuJTVaIY7L/yuwTiK36HJwGAc4b/mFPOUlxUCxmnVZwtrUdcoKHBj0pmzLZBNI5bd1WNbULtb7Ff+QgUFk4zb+tjp9TdKhv8HII1CIfbEXKjNhuO9cUIqjjHRkfN1m1tK0v60rX0laYf0sxmf0UzlZVdvaMKs92uwudxPwRqjYt6yU0X8e9mdSTPaaneLDcnPZvB4AJeLH8RHVCmQqZKxXAqDWAt6qxEqlXU+fPh1AzaU+pHdz9btXezbQ2aqBROHJaJXioLi3/1o8u3envdMUvB/Z6Th72ekGv9fM/D7DhUz3qjEM0trjY7+ROymWRiwSgp576+jbFWGZudnAx6PbIlkj0ca/5/Ro9mvrvEVA/JuZ4yxcyTlymNWzKXQ8FuFirfXeNHkl8g5wG5sB4zoIGfAoX1sOPPYBCMF8eNWf+t2RZuFGeVt3Rf0MNy4GfA2Czy1pBb/eaMKm8PYBJrE3DxuXBHy5mV3J6/UtdoQ8hbt3r1QC+YvUmB7GuDXAJJ6U8UYirWlKbBQm+FXJV5aXocPvmwwcsmnHhUf8Y0SEuzc2H2iC/rsD2qM2ihTx6egt0nKy0oJvFvkxYIlNajykgMPBdGwz5xDvieY74s9OPU/vs6dstaI9pQDBw5hsL4mgcEUBrFJMGfeFmpdFl7WbW7GY+9V4+cSyoOH54nTnDlzBlYj4RtVs/mX7/XXRfOHqW2bu+1qUWRjbwcrduf49JgaN6NuEcAGSYBceYw78yA/bPXhuqe2UzPhEFNareGJj6pR+F0jDQY5890IuXx96Z1p6/Svs13rbbt26PzTs2Zx8Xpt53+sviyl5QgwNp5CgMS87aP/knUNWPl9o9FSTf9jhv3nkUiTX+K/y+vw2qo6o7sRQWK+G35m8M/anUbv1Oo93QDyF3Jkr5djbP+YDPB5AOIpBGKX3aVZgmSmKLhufKqpTkRGAou/acCTH4f+hCrRPsyQZjG2G0oxdZn/wfkozmEomCR21y9/90LuchlVEfV/nzet9lCFsds1xi5hVIeFxFzd81HwIw+0G/nzQb2pzOve+GGrz8iDr9/io8EgMd8Xq6QQVxTenfyTIeA7tbmdjjz4HxXnsJOPGH+84Ox/krEsuvTRQ0o8Q02DDKmYcwacdkwCppycgjSqGvgHdtRpmLe4xmgELUOcRUl2cOPYPhFNYs6aIcUpy775YBWy18ugud6dI+d7dPQAcksmGqeGymobvmZcvgEwegaMIh79axwud9oQ1wEDrVjjwS17PvEpJIwO9pMfKcUrK+ugapT39astefDJj5biw69CK+LxdmZsC33gkp4U0PtJpNYz55AfVlR7i3QNNrS4jTb/aV7u7QeVDBjHkJ/NBtsSBVOyvBz8CAn0oUsfHZx/vA0jBikYP9SKKq/Epu2inQ5m56GhPYqXJrH2l2YsWddo7N/u3zM2z5YtL27E7S/tgGd9I9QQ2qDgk89/LuqB4YPijBOfb6/xUlDvJ5F2aIgBZRLqv+zKtxs3jz4IJVusQHGB3LPo742WxDo87jxV8321AlK8pt/A6LJHFz0SGW4/045Zf3NgSB8eEmceZGulittfqsA/nq/Ar9tjZ2/0xjI/bnqmHHe9sgMlVaE9lXl4fxvmXdMLt52ThrRE2v4Zpc78OV1zde1tq8X7J+RtbHzLD5SfMEjq7xml6CI++28O3Ham3RD3UIm5zpoNTbhsThkefbc6qqv26c74oXeqcPncMny1KbQ1wjOSFaPU7tyreuGwPnQgK4rFfAOT2v9aRXwvKZU2Dr49Lh8yd8paa1zqQXFxyfZTwNhzEkiky25uXp4aj8yU3YdAkx94aZUP/1vth28fhnJfC6C7kuzguGJsMs461jzlcveFJoA3v6jHM8tqUd8U2huV3cpa9uuflGR8vduZX+rH5XPKKKhDRHctgLZUN9Quba7xvd1U/WtT0fxh/j0tcHbEkbfeCRp7O9iq+3vWqX54GMSHch8/mDA3cVbgitE2PHt1PEYNtoTMmSPQFOGRd6sNh772F/N3tvni5yZcOqvUKKMbShFnDMYJ2pduysJlecl7FHEiepw5h1yj+diHutbqmtseN46OdAIKnibyuJMqTr6nbrai4BgBDKBLHt1kpTC4zrXjm98smP2xDxv3sCC6uxOg+2LTdj9ufq4cJw1xGEWt+qaba0F0S4WKWR9U4/OfQt8r89A+Vtx0ehqO6E8plO4U8649Acq8Ev7bPe7UCuzhBOcezVS7f0dxQcu+co8HG3sevWVg5sAMwfiJdEjIvPxluBWJcaydgs4x8WgreiRx/LBNGKmXPz+O7ns3y+74rULFO2u8Rg3x7H52WCP8uL+3SWD+4hr8580q472HkrRExThU9Y+JachMbf/0rKynXSthSXV04W4WDry69OsPH0dxQcuhzLnXt/vxrmMWqDiHGbtWCiYJHFnj4UyMl2DH0OWODfRH/TOOtiAvW8ELK/x4a60fqui8M0dgu+JLK+rw/lcNmHJyMiYcnRBx5XJFm/Ky1SEuL2tVGPJPSMQlzmRjbzgRW86cQZYxIV5qPYJfnNOh1aOO7V3S7xRoaS+UGNe3JNFh2Q7wc9qZaydM7MjbYrMwHDtAQV62BduqJLZWyZA4cx3dla/6oQmf/tiIgzNtRh2XSODrX5tx58s7DCFvCnFxq5OGOIz94GMOj9/vpxFy5GZ35uK28urGRWV9h2tG9iOote138x37PPpfuWkD+LoHs7x+n/opIFfTZY5N+qVz/Of8ONx7QRwO6MH/5Mw7sgC6Kz9t8+P6BdvhXliJ7TXdd6C4tFrF3a/uwI1Plxs7Q0LJwb2sePhvGZg5uYfp1gdi1ZmHaQF0k+ZT39Y1VdfWtlobHkceIHjic1DT8eB23iDBRgGg0ncx4sh3pW8ax8RjrEiKY/h+m2jdrtgZZ94a4dv9htPUBIz+oZYuajenPxk8W1iLaQVVxuGeUJLs4LhufApuPTsdfXuERsDJkZvVmTOVCe1OpUF+uXFcnH9fJzhD5chbKJikZWOSZcl96bVlVQ0FitTeo0sc2yi85cbwwjUOTDzGYhwhD4Uz12n2Szy7rBYXPVaKpd82hP2zfPR1g1EX5UVPHXyqDOkYnXtcIl75exbOOS569tCTM99/ONNWltc0/lfXUl1TdW3dr5+zv2/AUdKoR7jUHwc0hhc55M90iYmUeIb/G2/H/CscGHqgEjIx19leoxmpluue2o4ft4W+BGzx7z5cM287ZrxeiYq60KZzhg2Mw7NTM/F/Z6QiyUEKTmJuUMs0+R9dQ3UtDWjq/vn6zjwT6H85XYVKOXrxvra+l2hQ5iPiW/MSQfZ2sjNUrPhRxZNLfSitlh0+Abp3JwOMPzoBV5+c3Ol6I7poz/u4Bh9/E/rysn3TLbj+tFScODgurONMJzu7h86cAOVSTN/m3zItA9uFx50XdA77FYGdSdDpv5B5isslCvJ8mfdUf6Vw/CwYDqXLSwQZeZgFxx9iQcEXfrz8KUO9FyERcyGB97/04pP1DcaWvfwTEo0tfB3Bp0q8uqrOKDHb5AutgifYOS4ZnYT8EYldltcnuseZ78/WRAbs0IR4y+iPnL9Q6YyIA51vqsyQnw2MHs36NhxbZ7PzbZLxCQCoRYwJCNVi5z6DjANHHKDg1CMtqGu2YGOZ1qkF0Lb4NRjH/Jeua0RWqoL+Ge0LvU/Wt5SXXV4c+vKyE3ITMPOinjj2kDhw3jUiToud3UdHF0AlIJnU/tVcpxZuGedQkVEOeDydFOIQ4HQVWjzuPPWQG362H5iZ9aZk7DS6vJRa2RM/lgg89n4tvvu1PuQ/e9hAO244LRUHZ1r3mIJ4/L1qY194qOnOVneUWjFPmoVJ+e3mstJjN8wa1BzUzk7/7pAG06xBzQzyFUhZSpeV2BOH9eaYe0Uq7p6UYZRmDSW6O798bhkeWVT9h9Zn1V6BB9+pwpVzy0Iu4pkpCtzn98DsKzOoX2mMp1n2vQDKmiG0R3WtDOXvDskmVg8+ae0lJ714n8XLHMnYrXRpib1x8hF2jBycZeSoX1tVZ2wzDAVGSdnV9VjybQMuH5NsvH62sNaokRJK4oLlZUcmGaddCWJfOXMmtXfQyN8OvgxoZ6cJZfS1llwcO61qNGOWVwVjmXRpKbXSHkqrNTzxUTUKv2uM+HELlpe99tSUkD9RUGolOthDmqWBCf/pS+9O+6StXobk94X4/Rs7WVTV/4OU8iH9S7qkRHvISm1JT8y6IrLTE4P72owOPf/OT48YESci05nvmmZhUj6pa2N7GkV0p5Abbyzbtd7qwZztTPW9xKRYR5eU6AhDD7JjwbWZ+NdZaUhLiJyDM+mJCm4/Nw3zru6FnAOoRjjRMTFnwFbmb35I10ZdI0PpxhG2qoVut1ji7rkNTJvHANoTRXQ4dTFxWAJe/nsWzj8xqcP7w0OJ1cJw0agk41j9aRFYWpcwgZj7m4QU4hFDE93usDSsDbmQF7tzWnrMuVy8ub7xTUhZQJeT2B8S7NzoHPT8DZkYcVhcl//+kUMc+O+Nmbj65BQ4bKTgxP4aE7bK1+B9wWgWAbCARka2kBuPC/kLuX7nWfmf3uWA9i4gK+lyRh6by82xhNGvhwX3XdwTD17aEwdmhD9/PiDTikcvy8CMyT3QO80c5WW3VNByVESKOLf6FMUyx9BC3Y3r2hiGfsfhidLs9bL1ZuRXP4MFT0huuZMua2Rx+2tNyDusHtecmoyeSZG/cDf8kDg8f30c3vii3thOWNcY2qfU5HiOK8cm48xh5qlMWFaj4YmPalD4XQMFdASiKLYC5vevaF3g3KmNob1hhPND5E5Zay2aP8yfN63iMIXZlwrG+tKljSyk0GCFF5NPSsCFJ5lnP3Rto8CCJbVYtLbe2CfeqcnGYZSVvXxMMhLjzKHgzf6W1nivrAzd/nsi1CJurWeW+GGFdyf/GNTCcP2usD43JvauMyKsVvVtSbVYHgOzTANgp0scSY9+CvwiAc8sq8d7RQ3G3ui8wyO/R0iyg+Pmiak4Z3gCHnu/Gl9ubN5vl3/jhFT0zzBPh54l6xoMF15eq1EAR+q8AgNX7E8qNQ2/t9XCsN00wvnDN48+COg1lZdkfKD2F8M3K4wPB2MH0WWOsKBjHIxbUdfQbDyif7mpGYN629DDBOmWtETFKGd7SG8rfvjdj7p2nt48oKcFd56bjivGJiMlwRwu/IetPvz7tR0o+KweDc3kwiN7Tim/SCjXLrNlVKFXDt+csUbC45Hhu3GEm/yFSrDrxdjpNdeBKQ9LcuURm2bRfPWQUhhV/E7PTcBV41KQahKh82sSC1fV48XltXsUuoQ4jr+NTsJfjjdPednKeg3zPq7FR197jfK9RKTDJZPqbctnHHj/rhpoytSKQZvkvpD4iEE8D8an0MWOzDSLYks0xFxIgUVrvVj2XSMudSbhPBPU1bYqLXu+JxwTjyd3Eb5ovTERESjjjH0im9U3W79RsD7sF6/LZqaR7K/aKPKOGDuMKdZFAM+gSx75zrxtKmLq+FSc0A37uTuTinj8/WoonBl5cDNVJlzxfSPmfFCDbVW0rdBkbqiZi6ZxWPnb5/WHJbHAAicLx5bDrnXkAYxk//xJmu/gimJHsnxeY+xmBknNCyPcmQfFfEuFitv+W2EsDt4wIaVL9nN3lmBdFDOxscxv3Hz2d/GW6O6kinxL9fu/WeXJU50oDOpr9Djytr9rjKvqCGZVXpaM59ClN5czh0m360U6tQ0CC5aGZjsl0U0GiPEKqTWeumLmi18DbtlVIo6w1VrZgy44XYWK/k8NXxdDiudhVO4lItqZ25OMXS1t0YXmf5/V44JHSo2634KEZ78RgbG88NFSvLWaRNy8rodJDvkcX7VlHeAWTmeL1nXZk0BXflajUTPAPO48lUF7l0H7mCIg4l3GbsU86CIfWVRtdOQpolRAh1m9oQmXzi4zUimhPqVKdC2c8fV+n3jO42lp2+bpVd6lq9Pdsw0hsB1n7LSqM8CtBRKIo1CIcMMhBbTmuj+lWdoycogDU09LQZ80Cw3YXthSoWL2h9X47McmGoyocDuK4FAv8kzr/2pXbDXcHd0x41hwSyJT5Tpp1V6XTJnMuuumQnTIme9NzFd834jPf27CpBGJuGR0MlUM3AVvs8BzhXV44/N6Y2shESVuXMpP4dc+N160bDVkXZlW6T5HDjCnq1DZWtlP6Z/ZIxewvg7GsigkosOZI9CIYcrJyVTD2xgzYFGRF08vqUGVl1Io0eVweAOEyOO/q+vKGxpEcYFRorbL79LdteVA1pcksQ2zBjXX/LZxjSLFa7IbPjyx/858dznztlTWa7j3zSpcPW87vvstdte0v/m1GVc+UYYH364iEY9KN443V8w4YLXn+YObfFk2hm7SsW7bO1ZUtdGI6qL5w/yqFM9yKT+jsIguMUfgUM7UBdtxT0FlTBV5Kq1W4XptB254uhw/l/gpaKJyHii/CdH4cPD1htKvuu30VvdVRSougNExw+PBgaPGVyhKr2Yw5czuvLkQHQliBqbYILX2PUluLPPjnTVeqAJGz0uFR2e+pckvjTz4tP9VGp3tieg1M4B2z46fGt4tzxkNFGczFF/fbY9c3SmarbPf485TNamthhTLKESi05kHRe7ZZbW46NFSLP02+hohfPxNg/HZXvDUUo3waEeimKna+8UFOT4UTOr2nBmLgN8fXOXFmOlVI8Es7wIsiSLFRDHdzgXQXTnyQLtRA+XQPlZTf/7vf2+p6bJ+C51vixEDo3JNnPHJzAM+bmNIuy0/jghIYxgfPHfKWov+dUV1cxGT2ocUKtHtzIOs29yMKU+W4b43zbkQWFGnYebrlbhm/nYS8RiCS3wuq2tX6ZqVO2WtddcMQywKuYFRUCt/obIu4YlGqWlPAfJXCpfYEHMhgfe+9GLyI6V4eUUdVBPsr/arEi966ow0yodfNxjbC4lYCXSlVgr/TM/chQ26ZiX+WBcRVz9yVpxcLqPzvv7luOnV/xTM8gBFjfnY3zRLkL7pFkwdn4KThkRmuznP+kbM/agGJVReNvY03PiffMQz/YCbA6LFAXdEPEpG5FlqKbCUKaJIgudS+JjTme+vmG+tVHHHyzswbGBLudyDe0VG/vyX0pbysl9topoysRvb2KL5m1+KzJtMZL0XecgNP9vT09PtiVbuZMz6hozQmw0RXmeOQLncM49NxJVjk5Hk6J4sYLVXYMHSGrxb5KUqjzEd0EwyKa/0ar7XaxpE04ZZg5q7e4GzLZG0Z7t1QFa7e9TyOrmcyUD9AsK0zryjOfO2aAJ484t6XPhIKd74omvL5eq/e+Gn9Zj8aKmx/51EPMbjmeMnXcSL7htYszvNIiHfheDpqCX3pddIKe5mkGUURrEr5jq1jQKPvluNy+aUYe0v4a8Y+PlPTbh0Vilmf1CN+iZScIpj3gRVvTko4t15gtM0Qm6UgMxfqBjFEdWvV0JqBRRKJOY6m7b7cfNzFbj9pR1GLj3U/Fah4pYXK4w/+tcEYcQw5EcVG7xLjC+7qUyt+YQcgDM7w8jde9x5GpfiA0D+TuFEYh5k1Q+NuOTxMjzxUU1IusvrrnvWB9X42+wyw40TxM7YVeqg+hYEqxo6t2ewyLzZROpNEJBwuXg2Jln6KH0u0BTrc1Sz3NyEYgF0V9ISFUwZl4wJx3S8XK6QwKK1Xjy9tMZY1CSIP4oQ02Pq9vIfah4uLlioBrYaMkRgpdZILVDVcuKzZKJS7M7xNXNZyKUoptAiZ74rVfUa7nurClc9WWacFG0vX21qxhVzy/DQO1Uk4sSe4rXEJ3yvFBfk+HKnTFTaalOkoUTyQJYMGMec+dcpmreXZrPLMsmUCQCsFGJmnhwdq5rYXnbUCXzwVQM2l6sY0s+2x+7+pdWqUSd93sc1qKonASf26HEFA27z1fpWH+I4V/tM2SpRXCARwSmMiMbpKrR43Hlqtmu9rY+13xuCKadTkJmfcKRZgtitDBeelISLRiYZX+s0+iRe9NQaWwp9Kp2pJ/aVquBrt9Y0nGTsF3cWWuDJ0xDBzW9Mc9im2J3j6+OufIJZ+DAJlkmhZvrH1k6dAN0bzUZN8Fq8V+TFtaemQNWA+YtrjCJXBNGO2GyE8M8MHPqBE4AnwjuYmWHx0HiPuVPWWhzpGYm2hNTrwJXpFG7kzAkiLG6c8fkNau0dYoe3tmj+sOA+VBnZTxAmmOsItIZbee+BVVDFIgaxlcItupx5KBdACWL/A5LXqr76uWv+M2RHm8qGEZ+LM8/syV5vDKaG6p8g1GnGlwSJOUGEzDIyyaT6sOar/El/6fF8YprHRLPMHAm3W7QsfB7c1NzQ/AYX4kuKPBJzggiZGHL2a3Nd7ZOfPzKi0ekstAT2jUsS8hBTX5LE9Dm/8j+9yyVXFwBopPAjMSeIzgefoknhn/3FY0eU6a/qD0sy1eFDU82Yot6LWrcA1fnkq0xqCykCScwJovNCKJY11foXBDMARfMXaSTk4cIdOCLrcnGj1K0QzwKyisKQxJwg9j/geDOk7/7VswbVtnT9AYuUzj/tRTHjsMPjkU5XoQW+9AZmYX7JlNFUhyXaxDx4AlQ1S5qSMK0bl08L0VhwMD+vafPmyzSYUEvMaHlaZ/WymZnbVbXpRQ6xicIxOp25xXDmCg0GES43vkM2Ndy3YuaQUs9uNIaEvItE3YMnf4NU5wCgAtLRqeYk5kSY1INJLv1PLn/w5c36q1yTLXC2xbSzY/Pog4DRo42BP4gPK+NQssHYQIrO6BRzHoZCW0Ssm3G2TmjqXb/1VqtQnM1Kin6SgMeUAWbuvPLObh1s7LSKsySPexmAg0I0Wh2UhGoc56ezYESnVVxjmv+S5TMPesVwBxHa+ae9mDu1EjjtaUzxRu0zLrVXKEKj25lTmoUIifAxfCzRWNj6iFew3tSPeuYW8pbtiEap22UzM8sA/xOArKQwJTEniD2HEG+U/sZpK2a+WtZygtMQE0FC3s0ETnzC7xc/cKk+IymRSmJOELsLHf1/UixkNc3f6uJdb+IFzqgT8sCJT+Zx96qXft8TXMrvKGRJzAliVyRjm4Wov90zN6cecHGzneCMaiE3Uiwul1GHZak7cyOX6jyqjkhiThC7yJ3kELNXzBxSokeP0zmamz2lEl1C3uaGC5eL+1Tp4VIsocAlMSeINqHypepTFxs7VABppjK1+/xs0XaxcqesNZozJ/c7+Biu2D0SsFMIx8IzM21NJPamdFyT8I1tLNvxaWOVgxUX5Pii6lkjGq9Z0fxh/saqhnUQWgFFMDlzgmCQixvLdqzRtcGR1hh1myGiLupLiuYb6ZXMyr6wJKT+oCj8LIAlUyjHhpjTCVBiN268hvkbL/E3NpeWFPVGSdFFUdcgNhoducwtmajod14PHitm0v8ibUckZ07EqhNn4FBfW37vf7/RNSF3ykQlGu/y0ZlaqdrYcsd1u4X0yxe5FF9TSJOYE7EYCmwTNHVWcHdKqzaQkJuAQM0Ep6vQstTdoxjwz6DtiCTmRIwhmRRCc3tmDvwOwROcJq6nEntCHpjKnuJy4xGK+ZvXMKkupsgmMSdiB87ZWhXqJ8aLXoYWRG3zmWjvqsOcrkJjFivIzoYtYSWAJArxWHNmtDUx9m7i3GcVzSNryiu/KvqxTsKTp0XzCni0N0WU9SVJzOPOU5e5M9dx6X+DIpycOREDbhzio2UzBqw2Fjhb6qnI6P68UU6bxQ3GhHwKkL9SmJOYE1EsaoxVCNH4YDDjEK0LnDEl5CiYJOAyOmPDp9UUcak+RqFOYk5E6SXWtVtoc/wNO9a0fMfFDQ0gITc9rY9UHvfBTX6//10GQdURScxpLKLy8rLN0qe+9PkjIxp3pwHRewOLJQLOfKzl+lGCOz5mgJVCP0ahBdAoVDNFKEI9V6785b2WglhuESsfncfSdc7GJAvcblGt+lcrUvuCIp+cOTnzaBIz7dvK5qolHk+emp0/yRJbnz2GyMB2/Q7Nitx9GqRU3QyoofAnMScxj4ZLqTRJ6btj3YNDvfrLjO3bRUx9/li85sGH65OnV92nMestNA1iHEqzmN+RMsz3TDvg6rbzmxx5NNPSSci4yEKorzLIX2gakDMnZ25mEVdKub95/k4Bd7FYdaex9plltmu9ra+3h1Wm2s/VmPV5FptjQZAzN/lkZmBM3oAdtc+Vl8MXaBjByJHHwHTV/3KUNMrFD2Z5mb/5IwXaDzQlCHLmprxkvzZp1QWeuTn1bRpGxFzZah6rARA87eXD95WQ/tsl0EjTgiAxN9Ol4n4mtLvUiuZKxMgJThLyXSmYJJyuQovHnaeyanWJIrQPaGoQfxBzbqGxiGjxkh6/v/GdovnD/E5noSUWTnCSkP+Z4OMXW/xglhfCP5dB0nZEYqeY2xJJzCP28rBGqTU9vOr+wXW7mdMk5LGEx72ztGWV8H3GpfowTRGCxNwEwiW0eaqqrmydyy1lakFCHsOu3OkqtBS5+zRAqq9AihKaJgSJeUS78Uq/v/FJ3Y3nTllrjXU3TkLeFpeLV6r+rUxo90owQQNCkJhHovVikknxYFN1/Rb9yiT+WEeN1UnIA49l7jxV/6fuynlt89OKUKkOC0FiHoEoDN+gsm5W0fxhDYCLxXpKhYR8V4pzjANBxt5yoT4CoIkGhSAxj6Th534pfA955ubUG9/Iz2GxnlIhId+V7PUtzVnzFyo+oa1gUnuVBoUgMY+goQfeEWheqs9R42XBehJxEvJdcBu1i43A8Lh7lTK/fw4ga2lgCBLzSBhy1shV7wMrZg4JbkaQsVRvnIR8/5w50FTzM5faXBoQgsS8u504A5digV82/WR8g5z47p5WiF3HJHfKWktR70XaGPXG3nBYV4Dxg2lYiN0iJVRfPaRQaSzCds/kW1lzw/GeTV+V5KYN4EXzh6mUGydHvs+pafztdotlM3psVaT2EG1HJMiZd9dsZJLL5kc89w/6HQWTtD/MUYKEfG/objz4dUOd9oIitcU0KgSJeTcIFMdKi18uaJ2b8xfRdkMS8nbSsvDJ4HLxVff3rOOa/yGjUCJBkJh34ZByVarqvUvuG1gDGI3TGS1w7h6q1bmXOILHYxzf57JXA+Osp2T8aBoWYm9izhVbS75ckt502mUy/M/X0PTC7/ZzG7H5MhpQcuT7hdT/1JcksSXuntuYv/F2QFbSsBDkzLvCRfFaNNXc9Pkjh27NPSwpePCHcuMk5J1jsTtrO5fqczQSBIl5uEWcQZHqfz0P5JTSaLQPirR9YCx8tpwkgyaan+FcGS8Zz6aRIdoj5rQ1cX+Gjm3Q/I1POp2FFk+vckkLnOTIO487sLhSMEkr/HfWeiZ890lIesQjyJmHA8mklM33Lr9v8LceT17gDkgLnCTkoSB750my5ia5mEttCQ0KQWIeBkFibIXPq37Y+g06xdm+MKMh6ICeu9bbirFQHYPrj2I2x6cSsNOoEO1zmnQCdN/3PO5XVO9I8enWovJevXhxQQ5t+SVHHibcblkD/w+Q6ls0GAQ581CKkfZe7Y7aNikVgoQ8DOhuHMEGFP6mGxnkNhoVgsQ8FKkBvl021V3b0jACKC5YSGJOQh42Ny6Qv9AYs8B2xDk0KASJeWdFnAHCN7d1u6GxS4wWOEnIw0lg4TN3ylqr8De9BSm+pkEhSMw7MxxsPYN4vU0jZYKEvAtcOYDE3nVyqbv394r03yoBcg8Eifl+jQMX0Pz/8sx8obi1kfLOKocECXmXIH2q9qkitTdpKAgS8/0QICHeQ7V3BaVSOhlKNASdGLv8hRwFk4TT9Xtfiy1lpQQ7kIaF6LgdiM2tiYzxbf6GmhM+e+i1LUYj5YJJguqpkCPv8unnzM4wivl43P1+Z5r/Fuq8T5Azb+9n5j6mNd/62UPZm3U37tyeQR3xSci7B487Tws+1VRpTe9C+v8lKRgJEvN9WCAmmRR3VPnqgilJ5vHkUV6chLz7QlL/y+kqtBS5+zQs+2bxE4rQHqVhIUjM9/ARwcAVPp+t2PDYugeHep3OQkvbuUTs77gSIcE4vu/O8esBOXZ67QLJ+BU0KsT+2QMJzeeFEP4odI78Fc/0vpN17cnOX2+lY/jkyCOKgIgbVPvrb2RSzKVRIfbXmSu2BHBujbKPpfy3qqniquDtik5vhg5q9RZKXC6ee9hDlqKHD2tOP+Qvi+NS0pIkU4YzevIh9kPMuWIFhAZp9rZxkknO+VMVP1Rf892CI5pyp6y1lhT1pvK0oQwXGoLQowdq0fxhakuapeYiwSzzGWQ8jQzRcRE0eZqFKc2ciRs89/R7Sn+VO2WtpWj+MD9dWBJys4yrDLr0PMs/BoGxAsbYETQ0RMyIOVN+4pr6F8/Mp4vbuG/aZhgGKEcepqkXODCkwO0WhXcn/1jof/AoSDlbgpEbITooiObKmTOmqIzxBZz/mOOZ2f87Q8Rb2iWSiJMjNykuF8/GJEtwR8uJrsr+dpv1BYA5aXCIaHPmjCurIawX/3/27iA1jSgM4Pj3vbFTBCmMoFhECmU2pYtSLHRRN3XnpjsP0AMUeoEiU9p1e4IewG03XWql2K66CCQEhWSRgCAEopIhauaFqNFAskxAJ//fwgO8b/zjPPXN7y+ZzuqXKfUp++GEPH6qdaf8ovLmIvOiWmZBsOkxV3XaVp1PrZ1mg0OvCHm817paN7NjcIPVp5O3nwevxdGPIuYdX4his2JuTkXlVxRF3/98LTSu3IYazk4h5Pci6H7uZSKfPjhrBvPHWvkfOg/z2VzFGH0voiUVm2apsHYxV2cgYtsqzo/xaPLz77dCeHmX6edSiW5vNCXghByLuZRqw2cPXPNKrBRVrC+qvhXJqFiP5cEy5pOTOzg1UcWKHotIX0T2RLVrRP9H6v5rBd4WkSbkuGkGtdp8DkFgeZNgc9qxuG6F65aQ43rUt59r0XtqwsdJHR+5sxnl0wlmFXf7y5e1cfgonAXa7T2xSS+0qd2hbWb7lu0TAABuEX8IAgBCDgAg5AAAQg4AhBwAQMgBAIQcAEDIAYCQAwAIOQCAkAMACDkAEHIAACEHABByAAAhB4D4Og8AAP//vQA30fTydBwAAAAASUVORK5CYII=;" parent="1" vertex="1">
          <mxGeometry x="70" y="360" width="40" height="40" as="geometry" />
        </mxCell>
        <mxCell id="ii2NFjTAbhS2r2lRkWKy-10" value="Excel VBA" style="shape=image;verticalLabelPosition=bottom;labelBackgroundColor=#ffffff;verticalAlign=top;aspect=fixed;imageAspect=0;image=data:image/png,iVBORw0KGgoAAAANSUhEUgAABLAAAARcCAYAAACKp2g2AAAABGdBTUEAALGPC/xhBQAAACBjSFJNAAB6JgAAgIQAAPoAAACA6AAAdTAAAOpgAAA6mAAAF3CculE8AAAABmJLR0QA/wD/AP+gvaeTAACAAElEQVR42uzdd5wlVbUo4FWnT08iDDkJAhIVMyaCJAEDCog556xXFAV9JsxZFBMG9ILheo3XRI4CBhSzYsQISBzCpJ7uPvX+YNRhnO4+3afq1K6q73u/+3v3jnb3rqpd6+y1eu/VWQC01G4nP3OD8dHR3aKT75pHfufIO7tG5NtExHoRsTgiNlj9vy9ytwBIyaJNFi9fsHh9n08AzGRFRCyLiFtW/8+yyOKqvBe/i072m5GI33ZGer/9wQOOvyX1C8k8S6Atdjr1+Vv0sskDssgOyiMOjIhd3RUA6mjRxhvGgo02cCMAKMofIo/zs0523sjIyPk/eMBrrkltgApYQKPd6XPP2yXv5U+JiEdGxB7iHgBNoIAFQMl+lUX+9bwTn7ls7+N/k8KAJHJA4+zw6advlHXnHx5Z/pTI40FiHQBNo4AFwBD9OvI4dbyTf/rn+xx/bVWDkNQBjXGnU597x7wTx0Qez4mIhe4IAE2lgAVABVblWfxvt5e/5dIHHv+7Yf9wBSyg9u74uRfcaSSffGnk8byImO+OANB0ClgAVKgXWXylN5kf/5P9jv/1sH6oAhZQW7t+/rmbjU/m74jInhERHXcEgLZQwAIgAb2I+Mx4lh87jKOFClhA/eSR7fjZ5z0lIn9PRGzuhgDQNgpYACTkpsjj+DtdfecPfemxj50s64coYAG1suNnnnePiPxjEXF/dwOAtlLAAiA1WcSP8l7+vMv2O/7HZXx/R26A2tjxM897akT+3VC8AgAASEoecZ/oZD/Y86I3Hhd5XviGKTuwgOTtdvIzNxif1/14HvF4dwMA7MACIHlfX5XPe8YvHvjqJUV9QzuwgKTt+Jnn3WNsXvcnilcAAAC1ccS8bNVle37n+HsX9Q0VsIBk7fCZ5x8QkV+YRezkbgAAANTKjtHJvnPvi45/SBHfTAELSNIOpzzviCx6p0fEYncDAACgltbLsuzr97nojU8Y9BspYAHJ2eHU5zw96+RfjogF7gYAAECtzcuz+NyeF7/pFYN8EwUsICk7fuZ5z82y7NMR0XU3AAAAGiGLyN9974vfdPRcv4ECFpCMHT/znMMj8g+7EwAAAM2TRf6++1z0pqfO5WsVsIAk7HDqc/aPyP437LwCAABoqizP8k/e+7tvfPBsv1ABC6jcTqc+/65Zln099LwCAABoutGsF1+67yXH33M2X6SABVRqy1Ofsl4v630x/LVBAACAttigl2df3vNH7+g7D1TAAiq1qLPwoxFxZ3cCAACgVXaKsbFP9PtfVsACKrPjZ5777MjjKe4EAABAC+XxmD0veeML+vmvZu4WUIXtT332nTtZ57KIWOhuAMDsLNp4w1iw0QZuBABNsDI62f0u2/v1v5juv2QHFlCJLBv5UCheAQAAtN2C6OUfjTyfdpOVAhYwdDue+pynZJEf5E4AAAAQEfvc5+I3P2O6/4IjhMBQ7fzZl2w4mY/9JiK2djcAYG4cIQSggW6I8Xz3yw48/vp1/Yd2YAFDNdlb+ZZQvAIAAOD2Ns1Hs7dM9R/agQUMzc6fffa2k3nnjxExz90AgLmzAwuAhprMO/nuP977+D+s/R/YgQUMLxL1smND8QoAAIB1G8l6ccy6/gM7sICh2OnU52/Ry3p/iohF7gYADMYOLAAabGyiM7LTz/Z+7ZVr/qMdWMBQ5Nnky0PxCgAAgOnNH+lN/scuLDuwgNJt+8WXLRwdW3Z1RCx2NwBgcHZgAdBwyxbEgq0v2fe4W//5D3ZgAaWbN7b8yFC8AgAAoD/rrYyVR635DwpYwBDkT3EPAAAA6FeWx+3ySAUsoFQ7fv7ZW+YRh7gTAAAA9CvP4sD7XviW7f75fytgAaXKJkeeFBFddwIAAIBZ6PRGek/61//hfgBlyiM/3F0AAABg1vlknj/in/+7AhZQmh0+/fQFEXF/dwIAAIDZyrK43/2/f/yGEQpYQIk6ndF9I2KBOwEAAMAcdCcnYt8IBSygRHknO9BdAAAAYM55ZcSBEQpYQLmB5gB3AQAAgDnLsoMiFLCAsuSRZRF3dyMAAAAYILe86wHnH99VwAJKcafPPHe7iFjfnQAAAGAA827qjOyogAWUIs+y3dwFAAAABtXpTO6mgAWUJFfAAgAAYGBZZApYQEnyfFc3AQAAgAIoYAEl6WRbuQkAAAAMKstiKwUsoBx5bOAmAAAAMHh6mW2ggAWUFWIUsAAAACgkv1TAAkqSre8eAAAAUAAFLKC8AOMWAAAAUER+qYAFlCKLmO8uAAAAUIAFClgAAAAAJE0BCwAAAICkKWABAAAAkDQFLAAAAACSpoAFAAAAQNIUsAAAAABImgIWAAAAAElTwAIAAAAgaQpYAAAAACRNAQsAAACApClgAQAAAJA0BSwAAAAAkqaABQAAAEDSFLAAAAAASJoCFgAAAABJU8ACAAAAIGkKWAAAAAAkTQELAAAAgKQpYAEAAACQNAUsAAAAAJKmgAUAAABA0hSwAAAAAEiaAhYAAAAASVPAAgAAACBpClgAAAAAJE0BCwAAAICkKWABAAAAkDQFLAAAAACSpoAFAAAAQNIUsAAAAABImgIWAAAAAElTwAIAAAAgaQpYAAAAACRNAQsAAACApClgAQAAAJA0BSwAAAAAkqaABQAAAEDSFLAAAAAASJoCFgAAAABJU8ACAAAAIGkKWAAAAAAkTQELAAAAgKQpYAEAAACQNAUsAAAAAJKmgAUAAABA0hSwAAAAAEiaAhYAAAAASVPAAgAAACBpClgAAAAAJE0BCwAAAICkKWABAAAAkDQFLAAAAACSpoAFAAAAQNIUsAAAAABImgIWAAAAAElTwAIAAAAgaQpYAAAAACRNAQsAAACApClgAQAAAJA0BSwAAAAAkqaABQAAAEDSFLAAAAAASJoCFgAAAABJU8ACAAAAIGkKWAAAAAAkTQELAAAAgKQpYAEAAACQNAUsAAAAAJKmgAUAAABA0hSwAAAAAEiaAhYAAAAASVPAAgAAACBpClgAAAAAJE0BCwAAAICkKWABAAAAkDQFLAAAAACSpoAFAAAAQNIUsAAAAABImgIWAAAAAElTwAIAAAAgaQpYAAAAACRNAQsAAACApClgAQAAAJA0BSwAAAAAkqaABQAAAEDSFLAAAAAASJoCFgAAAABJU8ACAAAAIGkKWAAAAAAkTQELAAAAgKQpYAEAAACQNAUsAAAAAJKmgAUAAABA0hSwAAAAAEiaAhYAAAAASVPAAgAAACBpClgAAAAAJE0BCwAAAICkKWABAAAAkDQFLAAAAACSpoAFAAAAQNIUsAAAAABImgIWAAAAAElTwAIAAAAgaQpYAAAAACRNAQsAAACApClgAQAAAJA0BSwAAAAAkqaABQAAAEDSFLAAAAAASJoCFgAAAABJU8ACAAAAIGkKWAAAAAAkTQELAAAAgKQpYAEAAACQNAUsAAAAAJKmgAUAAABA0hSwAAAAAEiaAhYAAAAASVPAAgAAACBpClgAAAAAJE0BCwAAAICkKWABAAAAkDQFLAAAAACSpoAFAAAAQNIUsAAAAABImgIWAAAAAElTwAIAAAAgaQpYAAAAACRNAQsAAACApClgAQAAAJA0BSwAAAAAkqaABQAAAEDSFLAAAAAASJoCFgAAAABJU8ACAAAAIGkKWAAAAAAkTQELAAAAgKQpYAEAAACQNAUsAAAAAJKmgAUAAABA0hSwAAAAAEiaAhYAAAAASVPAAgAAACBpClgAAAAAJE0BCwAAAICkKWABAAAAkDQFLAAAAACSpoAFAAAAQNIUsAAAAABImgIWAAAAAElTwAIAAAAgaQpYAAAAACRNAQsAAACApClgAQAAAJA0BSwAAAAAkqaABQAAAEDSFLAAAAAASJoCFgAAAABJU8ACAAAAIGkKWAAAAAAkTQELAAAAgKQpYAEAAACQNAUsAAAAAJKmgAUAAABA0hSwAAAAAEiaAhYAAAAASVPAAgAAACBpClgAAAAAJE0BCwAAAICkKWABAAAAkLSuWwCUYfLWFZ08MjcCoABZlkVkEbH6/886nYiR7Lb/vyPWAgDNp4AFlCKfzCPy3I0AKCKmTvd/ZxEx0olspBPZ6Ehk3c5thS4AgAZRwAIAqLM8IiZ6kU/0Ih+bWL3C60TW7UQ22r2toAUAUHMKWAAATfPPgtbKiduOGs7rRmde13FDAKC2FLAAAJpsMo98xXhMrhiPbLQT2YLRyLoj7gsAUCsKWAAALZGP9yIfH4vodqKzYDSyUYUsAKAeFLAAANpmohe9pasLWQvtyAIA0qerJwBAW030onfr2G3FrJ6/HAsApEsBCwCg5fLxyZi8dcW//4ohAEBiFLAAAIjoRfSWr4rJW1fajQUAJEcBCwCAf5vo3bYba2LSvQAAkqGABQDA7fXitt5YK1a5FwBAEhSwAABYp3zlxG0N3p0oBAAqpoAFAMCU8vHJmFy6MiJXxQIAqqOABQDA9CZ6mrsDAJVSwAIAYGaTuSIWAFAZBSwAAPrTyx0nBAAqoYAFAED/JvOY1NgdABgyBSwAAGZnohe9ZWPuAwAwNApYAADMWj4+Gb2V424EADAUClgAAMxJvmI88olJNwIAKJ0CFgAAc9ZbNuYvEwIApVPAAgBg7noRveX6YQEA5VLAAgBgIPl4L/KxCTcCACiNAhYAAAPrrVwVkTtKCACUQwELAIDB9SJ6K/xVQgCgHApYAAAUIh+b8FcJAYBSKGABAFAYu7AAgDJ06zLQO7zzqG0nordblseuWZ7vnneyrSPPN4zI14vI1ovIFw9tMHkS32KI8qS/XZX3Im/A4yhrECuuv2HLJHuh5EXfVv1eUroXeXMnmtk0038w2Yssj4heftv/TNz2P9lkRNaLiF7BAxzpRDaSRWSdyLqdyOaNRGf+aHQWzYvOgnkR3Rb/jnCiF/nEZGTdERMZAChMkgWsnU986PylKxc8ICbzAyPygyKLe03mk+tn/1y7ZrFGk9Bsrf+/xPRH4apNFz/j4POaP46yB5LN69RiOucDRZCWVSPytO9DXuAnQaqfIQ2ZMH19VTbrb9eZ8vvlEbcVtVZMRL5sIrKxXsR4XuozyUY60Vk0P0Y2XBAjGy6Mznrz2/X0V45Htr4CFgBQ4PoqlYFs855HbNabzB6f5dkRecQ+EbEwuQy3KfWHKkZb28QtT+NS8gbOiYqHnrf1XhR+uXZdzTgKhavBvqqs+9fLI182HrFsIrIVveJ3aK294BrpxMgGC2Jko/Wiu8miiE7zd2h1NlgQWVe3irIs2njDWLDRBm4EAG2xpNIC1s4nPnT+rcvnHZpl2VMiz4+IiHlNTDwUrpqRhClcNSePdlywiMtVuCpxojVxwsz+K/PhDj1fNh5x63hkK/Io/fjzSCe6ixfGyCbrR3ejRY2dEdnoSHTWnx+UQwELgJappoC17fses8nE+NhLIs9eEhGbJrnYVrhq08XPOHjHBZuRRytcFXG5ClfD+gxp0KSZ/VdVef8m8siXjEV262QMo49fZ143RrdaHN3NNmzkn9YZ2WhhRJYFxVPAAqBlhlvA2uptj9k8svEX5Vn+0ixio4ZluDXNWxSuphu8wlUz8mjHBeteUajRKBSumjDNbtPLI79xLLKlkxGT5Q8s63aiu8WGMW+rxY06XpgtHI3OglFL7hIoYAHQMsMpYG357kPXyyYXvD4ie0lU0tuqj9WxPldtu/hpB+64YHPyaLuuirhcu65mHIXC1WBflfL96+WR3zAW2dKJ0vtkRdzWK2veNhtFd8vFzZgq3dt6f1E8BSwAWmZJ6X8eZst3HPGIrDf6rciywyKiwl/BOS5Y2mj1uWrA/VO4asiELvhyFa5KnGhNnDCz/8o63L8si2y9bsT63cjHJyMbL3nQeR6Tt6yIySXLY2TRvMjmdes9ZXp5ZPNGIus4Rli00YXzo7tAjzEAWmNlaauJLd/+qDtl2fiHIrKHJrvYVrhq08XPOHjHBZuRRytcFXG5jgsO6zOkQZNm9l9V1/t3y6qIG1dFTA7nx3U3Wz/mb7tpRI3/mp9jhOWwAwuAlilnB9bW7zz8qDzyb2eR3a1hGW5N190KV9MN3q6rZuTR+lw1p6KgcNWMz5C8kfcvj5g/ErFBN2JsMmKi/J/YW74qJm9YFiOL5kc2v767sTrzu0Gx7MACoGWK3YG1w/EHLBibv/ideRb/1eTEQ/GqGQmYwlVz8mi7roq4XMcFh/H50aAJM/uvzJt3L/IlY5EtGc5fK4yIGN1qo5i37ca1vIMjGy2KcIqwUHZgAdAyxe3A2vzth++cj84/K8+yI5qaeChcNSPxULhqTh6tcFXE5SpclTjRmjhh5vaVeTPvRbawG/mCLLLlvaFcY2/pyugtG4vu4kURNesplY12ImvQX1dMgR1YALTMykIKWFu/8/D7ZJGdG5HtlNwCU+GqTRc/4+D1uWpG7qhw1ZyKgl1XzfgMaexxwT5ko52I9UciXzEZ2RD6YuVjEzG5ZFmMbLxeZCM1Kgh1sshGR4LiKGAB0DKDF7C2fPsjDoronBYRmzQkw63p2lvharrB23XVjNxRn6vmVBQUrprxGdLmwtXtdLLI1u9GvmJiOEWsyV70blweI4sX1qoopA9WsRSwAGiZwQpYW7/z8KMiOl+JiPWalnjYddWMpEPhqjm5o11XRVyu44IlTrQmTpjZf2XeznsREbcVsTYYjXysF9l4+Tci7/Vi8sZlMbLegpo0d8/9JcKCKWAB0DIr57z3fMu3H/mEPM++FBELhr/AzGf9HxXw3RNdbOfJfruqE4+85o+jCSWCIu7f3G9rrSd0wZdb/b1I52kUPtFqPmkKfJZ5I1+e2ckisq3nRywcztG+fLIXK37/j+gtXZn+be7F0JrdAwDNNKcV1pZvf8RBWZZ/eq5fX/gCU+GqTRc/4+CHfjlJFa7yJjzCAq7GrquU5kTShasWTpe5zotpC1cNbdI+N1nEVgsjnz+kJut5Hit/f030VqxK/25PKmABAHM36wLUVm9/xH2zrPP1iBjinuXyClf1y10cF5zq4VeSQylcFX7/Bi9c2XWVyuTMUx9F63ZdKVwNbfCdiGybhZGPDqeIlU/2Yux310Rv1UTat73Xs/IGAAZZYvVv83c9fJfIOqdFxPpJJB6tSvvtuprq4VdWuMobNicSGLrCVRGX67jgjDNK4WqwO6hw1ecKK4tsm4URQ+qx3hufiLHf/SNiIt0iUd6zAwsAGGB51e9/cYfjD1jQ6Y18MSI2q3SB6bhgmy5+xsHrc9WM3FGfqyIuV+Gq78+QVtHnqtLZ2c0itloQkQ1nJ1Zv5Xis/OO1CT8GBSwAYO76LmCtWLD4xCzinpUtthWu2nTxMw5en6tm5NH6XBVxufpc9XUv7Loa7Kv0uZq7BSORLx4Z2o+bvHVFjP/jZo8CAGicvgpYW779iMdlEc+pZLGtz1WLF4z6XDUie3RcsMRHr8/VjKNQuBrsqxwXLGQI2SbzI184vCLWqr/fmOZfJrQDCwAYwIwFrM3ffvjOWRafqCzxaFXab9fVVA9fn6vm5I6OCxZxuY4LzvhBoXA12B1UuCp8amZbzr/tSOGQjF1xXXr9sBSwAIABzFjAGsnixIjYYKgLTMcF23TxMw5en6tm5I4KV0VcruOCfX+GtIo+V0nFiqmG0cki32R0aMPorZqIVX9fktYTUr8CAAYwbQFry7cf8biI7KFDW2wrXLXp4mccvOOCzcij9bkq4nKTP6iXxijsuhrsq/S5Kv1xZOuPRr6gM7QhjV9/S/SWjVntAgCNMOUqarN3Hr5BZPHeoSYe9V++VjdahasGZOb6XDUkky74chWu+vr8ULia+0eF44JDHUK2+fyIzhCPEv7lBqtdAKARpixgdfPO8VnEHeqQeNh1VefEo+JLUbgqZeiOCxZxufpcTRUr2jpdpr0Xc32WClfDfxyjnYgNhrcLq7d8LCauvcWKFwCovXWuoDZ761FbR+QvLHWBqXDVpoufcfD6XDUjd1S4KuLR63PV92dI6yaM44LJPPxB79/GCyKG90cJY9VVSyJ6vQAAqO9yOB/truvfR0Ymjo3IFpSywCxo3VmvwlXjssrCBp834JG07kHmRV+NwlVK9yJP/SbZcTXYV+XtuxdJDqETMT4yHuNXDa/J+sqJpdHZeGGlty8b6US2aDQo6Jluvlks2GRjNwKAthj/jx1Yd3jbIzfNInv2YKu7cvtcKV7VMelwXLCOM7ifoetzVcTlOi4444zS52qwO6jPVXJD6G6zOLLR4W3D6t2wwrIXAKi1/yhg9Tq9l0fE+oWu7hwXbNPFz5hKOS7YjNzRccEiLlfhqsSJVvNJU+CzVLhKMnRnnSy6W2wwvMuYmIzeTSutfAGA2rpdAWvb9z1mYS9iDr2vFK5KGW0D+1zlNX4crXyQhdcTHBdMaU7oc9WMzxB9ruoburvbLI5sZHh/kbC3ZLmVLwBQW7crYI2vWvXILGKjgVd3BS366rXudlxwqodf2XHBNmQ/Qxz64IUru65SmZx56qNwXHCwr3JcsDZDyLqd6CxeNLxLG5uM3vJxq18AoJZuV8DKsnhKIYlHq9J+u66mevj6XDUnd1S4KuJyHReccUYpXA12BxWuSpuaZf64kc3WH+7PvMUxQgCgnv5VwNrirYdvGXkcPOcFpuOCbbr4GQevz1Uzckd9roq4XMcF+/4MaRV9rpKKFUMexpo/bmSThZHN6wztZ/duHbP6BQBq6V8rpk6n8+SI6M56sa1w1aaLn3Hw+lw1I4/W56qIy03+oF4ao7DrarCv0ueqdi/If/y4LKKz8XrDG8BkHr1bFLEAgPr596/8st6Rc0o86r98rW60ClcNuH+OCzYkky74chWu+vr8ULia+1c5Lli7Iaz7R972L91N1hvqWHpLV1kBAwC1042I2Ob4RyzqRXa/vhMwhas2Xfy0g88b8Dha9xALr0fbcZXSvcibO9GaOGFm/5V5O+9FnYeR9/GvnQ0XRDaSRT45nMHlyxWwAID66URE5As6D4yIef9eVDkuWMpo9blqyP3T56oBE7rgR6/PVV/3QvFqsDtox1WthjH1jqt8nauxbL15wxvcRC9i1YRVMABQK7cVsLI4cNrVscJVmy5+xsE7LtiMPFqfq6IqCo4LzjgKxwWbMM3qGytS6HPVxyBGNlww1DH2lo1bBQMAtXJbD6y8d6A+VyWNVuGqAZm5PlcNyaQLvlyFqxlHoXA12EeFPle1G8J0fa5mXJAtXjjUsfaWOUYIANRLJ774mJGI7B5lLPzsuqpz4lHxpShclTJ0xwWLuNzq70U6T0PhasZ7MddnqXBVxeMo+Kpndy866y9Y80/rlG9s0ioYAKiVzuZ/HNsxIuYXufZUuGpO4qHPVTNyR4WrIh69Pld93YtWFq4cF0zm4dfkuOC6V2QRndHu8MY9PhnRsxAGAOqjM5LFbkUu+lpbuKp14qbPVSOyR32uSnz0jgvOOArHBQf7KscFazeEQY4LTmlBd7gXoZE7AFAjnSxit6IKV/UqXjUusyzkXjgu2JzcUZ+rIi7XccEZZ5TC1WB3UOGqdkMo4rjgVLL5o0O9lp4CFgBQI91eHrtlxac0CS+20/12Vd+Ldu64qvGDLPwEl6OCKd2LvLkTramTZvZf5ahgrYaRD2EQnUWjMdTOVPpgAQA10s0itml+qqtwNd3gFa6akT/m7Z3UBV5ubmb2MwoN2pswzeo7O/MUfmQ5g8jmjQz3uiY0wQIA6qMbERs0O9VVvBru8rsO969ZhavBrkjhKqV7oXDVjM8PhavmDCEf8kCyTjbc6+u1cislAFBT3YhYv5mprsLVVINXuGpO7qhwVcTlKlyVONGaOGFm/5UKV7UbRl7RILLucHdghQIWAFAjfe3AUrhqTuLhuGAzckeFqyIu13HBvkaheDXYV+lzVath5FUPYqQz3AtWwAIAamTaHVgKV81JPOy6akb+qM9VEZercNXXKBSumjDN6js7G9znavpVmQIWAMCUS6WIWFj/tbfiVULLb4WrkoZu11URl+u44IyjULga7CsVrmo3hDylezEy3B5YClgAQJ106732VriaavAKV83JHRWuirhchasSJ1oTJ8zsv1LhqnbDyL0IAAC10q3nkk3harrB63PVjNxR4aqIS3ZcsK9RKF41YZrVN1YoXAEA0IeuwlVzEg+7rpqRP+pzVcTlKlz1NQqFqyZMs/rOzrYfFwQAYFa6rV1s63PVgPvnuGBrEzDHBQcbhcLVYF+pcFW7IShcAQDUXw0KWApXUw1e4ao5uaPCVRGXq3BV4kRr6qSZ/Vc5LlirYShcAQA0R8IFLIWr6Qavz1UzckfHBYu4XMcF+xqFXVdNmGb1nZ1J7LpSuAIAqLNEC1iKV0ktv+26KnzoCldFXa5dVzOOQuFqsK9SuKrdEOy6AgBopsQKWApXUw1e4ao5uaPjgkVcrsJViROtiRNm9l+pcFW7IShcAQA0WyIFLIWr6QbvuGAzckeFqyIuV+Gqr5EoXg32Vfpc1WoYClcAAO1QcQFL4Wq6wStcNSN/dFywiMvV56qvUShcNWGa1Xd26nM1+MWouwEATKnCApbiVVLLb8cFSxm6XVdFXK5dVzOOQuFqsK9SuKrdEBq160rRCgCgLxUUsBSuphq8wlVzEg+FqyIuV+GqxInWxAkz+69UuKrdMBp3XFDxCgCgb0MsYClcTTd4xwWbkXQoXBVxuY4L9jUKxavBvkqfq1oNQ+EKAIAhFLAUrqYbvF1XzUg89Lkq4nIVrvoahcJVE6ZZfWenPlctXsMAAFSr5AKW4lVSy2+Fq1KGbtdVEZfruOCMo1C4GuwrFa5qNwR9rgAAWFNJBSyFq6kGr3DVnMRD4aqIy1W4KnGiNXHCzP4rFa5qNwzHBQEAWJeCC1gKV9MNXp+rZiQdCldFXLLjgn2NQvGqCdOsvrFC4arFaxgAgPQUVMBSuJpu8HZdNSPx0OeqiMtVuOprFApXTZhm9Z2djgu2eA0DAJCuAgpYildTDVzhqjmJh11XRVyu44IlTrQmTpjZf6XCVe2GYNcVAAD9GqCApXA13eAdF2xG0qFwVcTlKlyVONGaOmlm/1WOC9ZqGApXAADM1hwKWApX0w1e4aoZSYfjgkVcruOCfY3CrqsmTLP6zs4kdl0pXLU4IAAA9G2WBSzFq6SW344LFj50hauiLteuqxlHoXA12FcpXNVuCPpc+fwAABhEnwUshaupBq9w1ZzEw3HBIi5X4arEidbECTP7r1S4qt0QHBf0GQIAUITuUBdVjgs25P45LtjKpEPhavCRKF4N9lX6XNVqGApXPkMAAIrUHcqiSuGqIffPccHWJh76XA02CoWrJkyz+s5Ofa4Su38KVwAAc9EtfWGlz1UD7p/jgq1NPOy6GmwUCleDfZXCVe2GoM+Vzw8AgLJ0S1tY6XPVgPuncNXaxEPhqqqJ1sQJM/uvVLiq3TAcF/QZAgBQtq7C1fSDd1ywGUmHwlURl+u4YF+jULwa7Kv0uarVMBSufIYAAAxLt7DvpHDVkHuoz1VrEw99rgYbhcJVE6ZZfWenPleJ3T+FKwCAohVTwNLnqgH3z3HB1iYejgsONgqFq8G+UuGqdkPQ58pnCABAFQYrYOlz1YA1rsJVa5MOhauqJloTJ8zcvtJxwVoNw3FBnyEAAFWaWwHLccGGrHH1uWpt0uG44GCjULxqwjSr7+x0XDCx+6dwBQAwDLMrYClcNWSdq89VaxMPu64GG4XC1WBfpXBVuyE4LujzAwAgFf0XsPS5asA613HB1iYeCldVTbQmTpjZf6XCVe2G4LigzxAAgNTMXMCy66oha1zHBVuZdChcVTXRmjppZv9V+lzVahgKVz5DAABS1W3mGk3hqqmJh+OCRVyuPld9jcKuqyZMs/rOTn2uErt/ClcAAFXrNmud5rhgUxMPhauiLteuqxlHoXA12FcpXNVuCPpc+fwAAKiDblMTD4Wr5iQejgsWcbkKVyVOtCZOmNl/pcJV7YbhuKDPEACAOuk2MfFwXLAZSYfCVRGX67hgX6NQvBrsq/S5qtUwFK58hgAA1FHXccEmrHEdF2xt4qHP1WCjULhqwjSr7+zU5yqx+6dwBQCQsm79hqzPVZMTD7uuirhcxwVnHIXC1WBfpXBVuyHoc+XzAwCg7mpWwNLnqvaLbYWrEh+9wlWJE62JE2b2X6lwVbthOC7oMwQAoClqUsByXLD2i22FqxIfu+OCfY1C8Wqwr9LnqlbDULjyGQIA0DSJF7AcF2xq4qHPVRGXq3DV1ygUrpowzeo7O/W5Suz+KVwBANRVogUshasmJx52XRVxuY4LzjgKhavBvlLhqnZD0OfKZwgAQJMlWMDS56r2C22FqxIfvcJViROtqZNm9l/luGCthuG4YHM+Q5TYAACmllABS5+r2i9hS6knKF6ldB/sumpGuuu4YHOG4LhgMz4/FK4AAGaWQAHLccGmJh4KV0Vdrl1XM45C4Wqwr1K4qt0QHBdsxueHwhUAQP8qLGApXDViCeu4YImPXuGqxInWxAkz+69UuKrdEBwXbM5niOIVAMDsVFTAclyw9ktYhasSH7vCVYkTramTZvZfpc9VrYahcNWczxCFKwCAuRlyAUvhqqmJh+OCRVyuPld9jcKuqyZMs/rOTn2uErt/ClcAAG0xpAKW44JNTjzsuiricu26mnEUCleDfZXCVe2GoM9VMz4/FK4AAIoxhAJWXv1CTuGqlKErXBVxuQpXJU60Jk6Y2X+lwlXthuG4YHM+QxSvAACKU2IBy3HB2i9hFa5KfOyOC/Y1CsWrwb5Kn6taDUPhqjmfIQpXAADFK6GA5bhgUxMPfa6KuFyFq75GoXDVhGlW39mpz1Vi90/hCgCAQgtYCldNTjzsuirich0XnHEUCleDfZXCVe2GoM9VMz4/8vZdMgDA0BVUwNLnqvYrT4WrEh+9wlWJE62JE2b2X6lwVbthOC7YnM+QvF2XCwBQmQELWPpc1X71qXBV4qN3XLCvUSheNWGa1TdWKFwldv8UrgAAWLc5FrAcF2xq4qHPVRGXq3DV1ygUrpowzeo7Ox0XTOz+KVwBADC9WRawFK4asfq066rER++4YIkTrYkTZvZfqXBVuyHYddWMz5Dy+1zlobIFADC1WRSw9LlqatKhcFXE5SpclTjRmjpp5pbftug+1H0YClfN+Qwpf9eVwhUAwEz6KGDpc1X7BWYp9QTFq5Tug+OCzUh3HRdszhDyJj1EhasSv4nCFQBAv7rJL7/tuip86ApXzUk8FK6ake4qXDVnCPpcNePzQ+EKACA93X4WVgpXzUk8HBdsRuLhuGBz0l19rpoxBMcFm/MZUm7xSuEKAGCuujMtrBwXbEbSoXBVxOUqXPU1EsWrlua3+lw14iVQuGr0ZwgAQJ11p1pUKVw1I/FwXLCIy9Xnqq9RKFw1YZrVd3bqc5XY/VO4anFwBAAoRddxweYmHnZdNSPxULhqRrqrcNWcIehz1YzPD4UrAIB66Va6zFK4KmXoClfNSDz0uWpOuqvPVTOG4bhgcz5D9LkCAKifbiVLLccFSxm2wlURl+u4YF+jULxqaX6rcNWIl0DhqvGfIQAATdRtZ/6jz1VrF9v6XA02CoWrJkyz+s5Ofa4Su38KVy0OjgAAQze8ApbCVSlDt+uqGYmHwlVz0l3HBZsxBH2umvH5kZf+jRSuAACGpfwClsJVKUNXuCrichWuSpxoTZwwLctvHRds8mdIGz5P7boCAGiW8gpY+lyVMmyFqyIu2XHBvkaheNWEaVbfWKFwldj9U7hq9ecpAEACyilg2XVV+ND1uSrichWu+hqFwlUTpll9Z6fjgondP4WrFgdHAICkFFvAUrgqZeh2XTUj8XBcsDnprj5XzRiCXVfN+AzR5woAoB2KKWApXJUydIWrIi5X4arEidbUSdOi/NZxwSZ/hrTh89SuKwCA9hisgKXPVSnDdlywiMt1XLCvUdh11YRpVt/ZmcSuK4WrOt4LhSsAgPaZewHLrqvCh65w1ZzEQ+GqGemuwlVzhqDPVTM+PxSuAADaa/YFLIWrUobuuGAzEg/HBZuT7upz1YxhOC7YnM+QcotXClcAAKnrv4DluGApw1a4KuJyFa76GoniVUvzW4WrRrwECleN/gwBAGBmMxewFK5KGbrjgkVcrj5XfY1C4aoJ06y+s1Ofq8Tun8JVi4MjAECtddNf5zou2NrFtl1Xg41C4Wqwr1K4qt0Q9LlqxudHXvo3UrgCAKijbrprO4Wr1i62Fa6qmmhNnDCz/0qFq9oNw3HB5nyG6HMFAMBUummu7fS5auViuwZHPey6aka6q89VM4ahcNWczxDHBQEAmEk3rbWdPletXWzrczXYKBSumjDN6js79blK7P4pXLU4OAIANFZX4aqcodt11YzEQ+GqOemu44LNGII+V834DNHnCgCA2epW++MVrlq72Fa4qmqiNXXStCi/dVywyZ8hbfg8tesKAIC5qLCApc9VaxfajgsONgq7rpowzeo7Ox0XTOz+KVy1+vMUAKBFKihg6XPV2sX2LCsK2y7ePO60ybbhJs1+uiwfH4sf/v3Xzb0XxU2zNqX+cZctdozRkW6VQyjgR5Y3kIneZPzqmitq8tGncNW4z9I81OAAAKYxxAKW44KNW2yXnHhM9npxymNeG+vNW+hNnfUtz+PAj7+4vGQ80Vihz9XU7n2H3eLMZ30gssi8IFP44He/FL86+4qUH2OtJrU+V5YEAABF6lidzTDsvO9/nvs3bKp8psRj+ntx9a03xAkX/6+3dA6yyOKV+z2pNZnclLMpb+TLMyevf9CzFK+mceUt18W7L/xs4o+xPp8heemXq3gFANA2JRewalywyYu+Gruu5nIXT/rBV+MPN/zdmzoHD9t9r7jXNrvWaMLkxX1VrWvFxQ/8obvtFfvucA8vxTRedfqHY9mqFYl+9NWrcJWX+k0a8oug5lXdAQBKV1IBq+aFq0J7Xdl1NchdXDU5Ea8+86Pe1DnIIotjHvjERqa7zS1cFT/4kawTrznoGV6IaZz7hx/Gab/5boKPUOGqcZ+lzQxeAABDUXABq5mFK8cFq008LrziJ3Hab7/rbZ2DB+96/7j3Nrs1Kt1VuJqdp9z7obH75tt7GaawcmIsjj3tQ8U8xsLnRX1mcHnfROEKAIDbFFjAUrhq5WJ0SL8xf+1ZH4vl4yu9sXPwyv2flOCkKTj/a97LU4j15i2MV+7/ZC/BNN594efiz0uuTugx2nXVgJe7j8tQuAIAmK0CClj6XDVusT3w5RY/J/5+83Xx4e99xRs7BwfvfN+4/3Z71Dbd1edq7l6016Njy/U38RJM4Y83/D0+Ote4onBV4jfR5woAgP80QAFLn6vGLbYLSzzK8YFLvhhX3HiVt3YOjtnvialOmLnlfnZdzWiz9TaKF+71KJN/uvfi2yfG2OR4xY+wZYWrCMcFAQCYkzkUsPS5au1itOLfmK+aHI/jz/mkt3YODrzTvWOvO961NumuwtXgXnXAU2P9eQtN/il88efnxEV/+mkBE3PQeVGfGVzea9Cgz1KFKwCA0syygKVw1drFaCK/MT/jd9+Ps/9wqTd3DobbC0mfqypjxc6bbhtPuteDTfop3DK2LI4/+5MVPkbHBRvwcvdxjQpXAABF6rOApc9V4xbbhVQUqrkXrznzYzE2scrbO0sP3OEesc/2d08y3dXnqlhvOPjZMdrpmvRTeNM5J8c1S2+s4KNP4aohL3efwQsAgCJ1mrLY7nfo+lwVlXhU589Lro6P/uBr3t45+H8HPi25dNdxwWLdd9s7x0N2fYDJPoWfXvW7OPWy0yp4hPpcNeqzVJ8rAICh6zRugem4YInZS/X34p8jeO9F/xN/u+kab/As3W+7u8T+O94ricTcccFyvPGQ50aWZSb7OkzmvXjZt94fk3mv6OnciM+QvPTL1ecKAIC56zRmgalwVWL2ksa9WHMEKydWxfHnfsobPAfHHfCUShNzxwXLG8IRd94v7rfdXUzyKZx86Tfi51f/YUhhznHBxn2e6nMFAFCpTiMWYfpclZx4pDm8b1x+UZz/x8u8xbN0323vHAfutOfQ093mFq7yJIYw2unGax70dBN8CtcuvTHeccGpQ3iEClcNebn7DF4AAAxLR5+rBi62G5J49DOC15798RjvTXiTZ+n/Hfi0yCIb2vuhcFX+EJ5+n8PiTpvcweSeas6f8dG4eeXSoj4sZjPTmzt79bkCAGCIOrUcteOCJWYv9Shc/dPvrv9bfOLSb3iTZ+meW+8SB+9y39ITc32uShzGGtaftzBevt8TTOwpXHDFj+Nrv7qwxMeoz1UDXu4+LkPhCgCgSvUrYDkuWFL2kl6fq369+zufi3/ceoO3eZZetf9T+tiF5bhgUrFiivv30n0fF5uvt7FJvQ5jk+Nx3GkfKmn+OS7YkJe7z+AFAECV6lPAclyw5MSjvsnV0lUr4k3nfdrbPEt333rneMhuDyj0iehzNfwhbLXBpvH8BxxlQk/hAxd/If5w/d8Vrkr9/HBcsNBxAACwTukXsBwXbHTiUdQIvvyL8+O7f/mFN3qWXn3AU6OTZYW9Wc163dI8Lvgfz/DAp8XC0fkm8zr86car4v0X/W9rKwz6XA3ymldQuFK8AgCYVroFLIWrEhfD9T0uOPX3yuNVZ3wkJnqT3upZuPMWO8TDdt9noCeiz1V1w9h1szvG4+5xsIk8hVef/pEYm1jVugrDcHZdNeRzsurnrHAFANC3NAtY+lyVsChPZ6Vc1iguv+4v8d+XfdtbPUvH7f/k6GQFPkd9rob2grzp0OdEtzNiEq/D1355YZz9+0sTjliJxlZ9rur9QQgA0GBpFbD0uSo58WhAcjWDt11waly7dIk3exZ233z7OPwu+836WTbrdUu7z9W67L393ePgXe5nAq/D0rEV8bqzPlb/OTHskTouOLxxAAAwa2kUsBwXLDF7aU6fq37cOrY83nbBqd7sWXrV/k+Nkawzt2epcDX0hDaLLN506HNM3Cm89bxPx9W3XN+KCkNe6mvQoM9SxwUBAGqv2gKWwlWJ2Uvz+lz1639+dlb86MrfeLtnYadN7xBH7rH/3PLb2r44eW2H8ai7HRj33GZXE3cdfnXNFfGpH36z3vNiWCNtS5+rqqvuClcAAIWoroClz1VJC+Jm97nqRy/P47jTPxKTec8bPgvH7v/k/+inpM9Vei/IvJFuvOrAp5qwU7z7x3zrxDn8MQeFq4a83H0GrxZ8EAIANNDwC1j6XJWceDQguSpgFD//x+/jcz850xs+C3fa5A7xqLseOP1sclyw8iE8+35HxA4bb23CrsMpl307fvi3X8/hobRo9upzNbxxAABQqOEVsBwXLDF7aVefq36zhrec/+m4cfkt3vJZeMV+T4qRzojjgokmtIsXrB9HP/DxJuo63LD85njbef/dyM+QvPTXQJ+rBn4YAgA0TvkFrMILVw1abA98ue3tc9XPvViy4tZ4x4Uaus/GDhtvHY+7+8ENSsjqfVxwbS974ONjk4Ubmqjr8NozP9ZnwdpxwYa83DNcRv0KV/nq/wcAwLqVW8AqpXBl11UqiXny3bbyiFMuOy1+ctXvvOmz8Ir9nhTzRrqOCyY2hG023Cyefb/DTdB1+N5ffhlf+tm5jfn8ULga9Brz4Y9joC9XuAIA6Ec5BSx9rhqdeKR4XHCqAfbyPF5z5kmSg1nYbvEW8fi7H9rEl6fWQ3jdg54ZC7rzTdC1rJqciGO+9YEZ3vG8VjO4vG+iz1Vq77rPJgCA/hVbwNLnqsTFsMJVXyNZxz//8O+Xx//OuDuDNb38gY+PeSOjTXl5hjuMEuyx5Z3iUXc7yMRch49898vx2+v+UvvPkOHsumrI52TVz9lxQQCAShRXwNLnqqTEV5+rvu7FDLfpTed+Km5eucwb36dtF28RT77Xg+v+8tQqoZ3OGw99TnSyzMRcy99vvjbee9Hnk42bQ5s6jgvW5mEpXAEAzN3gBSzHBUtOPBqdlw8+ij4HeN2yJfHu73zWGz8Lx+z3xFjQndf01D/5ITxo5/vEAXe6twm5Dsed9qFYvmplLT8/FK4GvcYKdl0N9OUKVwAAg5p7ActxwUYnHnXqc9Wvk3/4zfj1NX/y1vdpy/U3iafc+6FNTf0rT2j7CtBZFq990DNMxnU47TffjTN++/3hPpCUpo7CVW3CjcIVAEBB+VFRizmFqyIu13HBvu7FHAc40ZuMY0//sGRiFo7e93GxcHR+HV6eRg7jcfc4JO621c4m4lpWjI/Fa874aO0+Q/S5GuRDSJ8rAIC2m10BS5+rEhbl6SRgTTkuOJ0f/O1X8X+/+o43v09brr9JPH3Pw1J+eRr7gszvzovjDniKSbgO77zg1PjrTf8Ihau0ond5N0rhCgCAfgtY+lyVnHi0Ki+f/SgKHuBrz/pY3Dq23Nvfp6P3fVysN29he2dnBUPII+L5Dzgqtl28hQm4lt9c++c46ftfrX/on+03avJnqT5XKS0JAACS1ZnLotJxwSIuV5+rGVfsJQ3w2qVL4v0Xf8Hb36dNFy2OZ9znsHbOzryaq95owfrxkn0eY/KtfX/yPI497UMxPjlRi/Bf/mdIQz4nq37/U+hz1bLlEQDAXHRms5BSuCoie9Hnqq97UfIAT/rB1+L31/9NBOjTS/Z+bKw/lF1Y7etzta4fd+wBT46NFqxv4q3lf356Vlzy558lH/odF5zrNba0z5XCFQBAXzr9LKT0uSpiQazPVV+jGNIAV01OxKv/1QSamWy6aMN49v0OH8K8aN8LsvaP236jreLp93m4SbeWJStujTee84n6hf7Cvok+Vyk9rMIKV4pXAAB968y0kNLnqqjEo3V5+ezuRQUDvPBPP4lv/+a7okCfXrjXo2KD+YuaOTsrKlzl6/jX1x38zJg/MmrCreWNZ38irl92c71CfwGhUZ+r4XwE9f/lClcAAFXpOC5YZvaiz9WMI6l4gK8586RYPr5SJOjDJgs3jOfd/8jmzc5EClcRedxrm93iyLvsZ7Kt5cdX/iY+95Mzkgz/5X+GNORzsur3X58rAIDa6xS7vtLnKqVVatv7XPXjyluuiw9+90siQZ9euNejCurN5LjgugbxhoOfFVmWmWhrmOhNxsu/+f7o5el8vjguOMg16nMFAMDcdIpZ49l1ldIqVZ+r2Tnxki/FFTdeKRr0YcP568VzB9qF5bjgVLHiIbvtFQ/c8Z4m2Vo+/oOvxS/+8cf0Q39hnx/6XBU6joG+3HFBAICUdAZb4ylcpXQv9Lmam1WT4/GGsz8pGvTp+Q94ZGy8cIP6zc6kCle3/9eRrBOve9AzTa61XHPrjfHuCz+bclQr6Jvoc5Xau65wBQCQnk7PymzAy1W46mskiU+XM373/Tj795eKCH3YcP568fwHHFWv2Zlo4eqfnnzvh8Tum29vcq3luNM/FLesXFb/+KrPVW0e1sC7rhSuAABK00k+E0w28dXnqq97UaPF/P8786QYm1glKvTh+fc/MjZdtDj92Zlgn6u1LejOj1fs92STai3n/eFH8c1fX1TvqeO4YG0elj5XAADpm0UBy66rlFap+lwV789Lro6PfP+rokIf1pu3MF6411Hpzs5E+1yty0v2eUxss+FmJtUaVo6PxbGnfbC+U6f1hashF68G+nJ9rgAA6qKPApbCVUr3Qp+rcr3vov+Jv910jcjQh+fc74jYbL2N0nv4iR8XXNNm620UL9rr0SbTOt7DP914VT2nTtMLV1Neoz5XAACUq2Nl1s/lOi7Y171owHRZObEq3nCOhu79WDS6IF6y96MjqcJV5fnz7AZx3AFPiQ3mLzKZ1nDFDVfGh777xfpNnbb0ucqTfPFm+S0cFwQAqKOOlVnUonDluODwfPPyi+O8P/5IdOjDs+97eGy1waate0HyAgax06bbxlPu/VCTaC3HfPsDMTYxXp+po89Vbd5zxwUBAOqt0+qVmT5Xg42iwdPl1WecFKsmx0WIGczvzosX7/2Y1rwgc+1ztS5vOPhZMdrpmkRr+NLPz43vXPGT+kwdfa6GN46BvlzhCgCgCTqtXJnpczVY1tCC6XLFjVfGJy79hgjRh2fseVhsvcFmSUzN4b6Tc38R7rPtneNhu+1t8qzh1rHlcfzZn6jH1GnLccGqg38r+1ypkgEATKXjuGBlq9SEl67N7nPVr/d853Nx9a03iBIzmN+dF/+1z2Nrk9AO/uMGH8SbDn1uZFlm8qzhzeecHP8o8X1zXHCQa9TnqnHBDQCghjqtudJUjkIkvXRt53HBqS546arl8aZzTxYl+vC0PQ+L7RZv0agXJC8po33EnR8Y999uD5NmDT+76vfx35d9K92po89V1S/eLL48t+sKAKChml/A0udqsAV0CwtXa17wl39xXlzyl5+LFDOYN9KN/9rncY14QcradRUR0e2MxP876GkmzBp6eR6vPO3EmOz10pw6+lzV4sOwvoUrxSsAgH41t4Clz9VgI2nlunrdF/yq0z8cE71J0WIGT773Q2L7jbYq+3EM+U0o9kV4+n0eHrtudkeTZQ2f+uE34rK//2YIb3LRnyFNDXn6XPncBQBIUzMLWPpcDbZib2XhauqL/s11fynteFOTjHa6cfS+j08ioR38nSx+EOvNWxiv2O+JJsoarlu6JN523n8P6U0u4ps4LpjSw6pfn6spfqDCFQBAX5pVwHJccLBRtPy44HTedv4pcc3SG0WMGTz+nofE9htvXZsXZOpdV8V76T6Pi83X29gkWcNrzvxo3LxyaRqxtfWFqyEXrwb68oYcF1S4AgCYlWYUsBwXHCxrULia0a1jy+Nt558iYsxgtNONYx74xMKm5nBnQHkvwlYbbBov2OsoE2QNl/z55/HVX1xQVlQr6JsoXKX2Ydio44IAAMxKvQtYCleDj0Sfq76/6vM/PSt+dOVvguk97h4Hx86bbpvkSzLswtU/veqAp8ai0QUmx2qrJifimG+9f6BixHB2XTU15NWzcJUP1uVdnysAgJqrbwFLn6vBVux2Xc36q/LI49jTPxSTeS+Y2kjWiZfPtAuroX2u1mXXze4YT7jnoSbGGk68+Avx++v/NsQ3eTbfRJ+risPuWt9CnysAAG5TvwKWPleDjULhaqCv+vlVf4jP/eQMkWMGj7rbgbHLZtslMf+G2edqXd546HOi2xkxKVb7203XxPsv/kJ1sdVxweGNY6Av1+cKAIDbq08By3HBwbIGhavB7uAa3+7N5346blh+i+gxjZGsE6/Y70mFJrTFzIDhvgj7bH/3OHSX+5sQazj2tA/GivGxIqJaQSGhQcFRn6uKHqk+VwAAw5B+AasGRz30uapFFjdYfruGJStujXdccKroMYNH7nFA3GWLHVvT52ptWWTx+oOfZSKs4Ru//k6c9bsfFBP+C/sMaUjIyyue8608LqjPFQDAMKVdwKpB4cpxweSzuLl/1TTf7pTLvh0/uep3Ish0wSXLZu6FVXrIqO4lOOquB8R9tr2zibDa0rHl8ZozThpebNXnqjYfhPU9Ltj2z1wAgCHnmPValA95YZ506qNwVcQFz/XETS/P4/+d8dHBk66GO+IuD4w9trxTRTOgumczb6Qbrz7oaSbAGt5xwalx1S3XDSe26nM1vHEM9OX6XAEA0L+0Clj6XA2WNShcFZP/9emHf788vvCzc0SRaWRZFq/c/8lDngHVvwjPuu/hsePG25gAq/36mj/FJy/9+lyiWsGfIQ0Je1XPeX2uGjetAADqIJ0Clj5Xg63Y9bka7A7OcZq98ZyT4+aVS0WSaRy2+95xr212HcIMSCNWLF6wfrx8vyd68Kv18jyO+dYHYnxyorwI39rjgvpcVXbRdl0BAAxd9QUsxwUHG4VdV4N91YD37/plN8W7L/ycSDKNLMvimAILOqkdF1zb0fs+PjZZuKEHv9pnf3x6XPq3X5UTuvS5Gu44Bvpyfa4AABhMdQUsxwUHyxoUrga7gwXev0/+8Bvxy2uuEE2m8ZDd9op732G3EmZAWi/C1htsFs+53xEe+Go3Lr8l3nLup/qNaoWERn2u0vowbEyfqwiFKwCAig2/gKVwNfgC2nHBwfO/Ak30JuNVp39YQ/cZzLUXVh0KV//0ugc9IxaOzvewV3v9WR+LG5bfXOxT0+eqNh+GjSpcCe8AAJUbbgFLn6vBVuytLFylc1xwOt//66/ia7+8UESZxiG73C/us+2dB3wn080k99jyTvGYux/sQf/rnfhlfOGnZxf31BwXTDnsrvUt6tbnaoofqHAFAJCU4RSw9LkabBSOCw6e+w3h/r32rI/FrWPLRZVpHHvAkwd4lmm/BG885DnRyTIPOW7blXjcaR+MXhH7EltfuBpy8WqgL2/IcUGFKwCAJJVbwHJccLCsQeFqsDs45Pt37dIlccLFXxBVpnHQTveJvba/2yxnQPovwr473CMO3GlPD3i1j3zvy/GLf1xRTEhocnBsSJ+r276FPlcAAJSrnAJWDX5j7rhgiplcwflfBU76/lfj99f/TWSZxiv3f1Kfz7EeRYpOlsWbD32eB7valTdfN/hf5tTnqvKPoP6/Rd2OCybc58rOLwCA6XOv4SzK01mZOS6YYhZXv+OCU1k1ORGvOuMjIss09tvxXrHPDnefJmTU6yV47N0PjrtvvbMHu9pxp38olq1aUUI40OcqpQ/C+h4XTHRaKVwBAMyouAKWPleDjULhavDcL5H7d+EVP4lvXX6J6DKN/3fQ02vZ52pt87vz4tUHPs0DXe2c318ap/3muwUn8I4LFj6Ogb5cn6sGLk4AAGph8AKWPleDZQ0KV4PdwUTv32vOPCmWj68UYaZw/+32iP12vFftX4Tn3/+Rse3iLTzQiFgxPhavPO2DBYaEBgVHfa4qeqQJ97lK7fw7AEANDFbA0udqsBW7PleNXedfect1ceIlXxRhpvHqA58adS5SbLRg/XjJPo/1IFd714Wfib8s+UchobFRhau84s9Hfa7SWpq0oWALAFCSuRWwEl+AOS5Yiyyu8ev8Ey/5UvzxhitFmSncb7u71PMv962ef6/Y78mx8cINPMiI+MP1f4uTvv/VAsKBPlcpfRDqc1X+0BSuAAD6N7sClj5Xg41C4apV6/xVk+Px+rM/IcpM47UHPSOyyGo3nbffeKt45n0f4QFGRJ7nccy3T4yxifE5vtgNCo76XFX4SOvW50rhCgBgtvorYOlzNVjW0Mp1anuOC07nzN99L87+/aUizRTuuc2ucfAu963ddH7tg54Z87ujHmBEfOFnZ8dFf/rpgJ8hTQ15+lxVdtH6XAEANM7MBSx9rgZbsbeycNW+44LTPfxXn/GRGJtYJdpM4dUHPi3dXVjrmH9333rnOHKP/T24iLhpxdI4frpdhq09LqjPVWUXrc8VAEBjdeaeeCS6PkxlFI4Ltnidf/vB/3nJ1fGh731ZtJnCPbbeJR682wNqM53feMhzopNlHlxEvPGcT8Z1y26aw+eHPleFjmOgL9fnqvznoXAFAFCETt0SD8cFa5PFtXCdP/XgT7joC/HXm64RcabwmoOenk5RaJr59+Bd7x/73eleHlhE/OTK38ZnfnzaLO6fPlcpfRg2ps9VhOOCAAAt0elvIapw1dcCWp+rlq7zZ374KyfG4vhzNHSfyl222DEetvs+ST/GkU4nXnfwszysiJjs9eJl33p/9PK8z/unz1VKH4aNKlw5LggA0Bqd6XMLfa76uhf6XLV4nd//wL/x64vi3D/8SNSZwqsPfFo1u7D6nH9PvOeD485b7OBBRcTHL/2/+PnVf+jj/jkuWHHYXetb1K3P1RQ/UOEKAKCVOvpcDTAKxwVbvM6f2+BffcZHYtXkuMizDrtvvn0cfpf9knyEC0bnxyv3f7KHFBHXLr0x3nnBqQpXwy5eDfTlDTkuqM8VAECrdVJchOlzVZssroXr/MEGf8WNV8bHf/B/Is8Ujt3/ycPZhTXLR/jivR8dd1i8uQcUEced/uG4ZcWy5KN3OXPEccHKLlqfKwCA1uuklng4LliLLK6F6/zi3o/3fOdzcfWt14s+67Db5tvHI/c4IKnHuNl6i+PFez/Gw4mI8/94WXz9l99JOnqXM0fqWbiq13FBfa4AAJhepwYH9dIYhV1XLV7nFzvwpatWxBvPOVn0mcKrDnxqdDsjyQSYY/d/Smwwf1Hrn8vYxHgcd9qHmxsc9bmq8JEm/IdRFK4AAJLRSTZnSGUUClctXueXN/gv/+K8uOTPPxeB1uFOm9whjrrrgUk8wh023jqesufDPJSIOOGiz8cfrv9b84KjPlcVPtLE+1zlld8gAADWUFkBS5+r2mRxLVznD2fwx53+oRjvTYhC63Ds/k8efBdWAY/w+EOeHfNGuq1/HlfceFV84OIvNi846nNV0SPV5woAgNmrpIClz1UtsrgWrvOHm8X95rq/xKd/9C1RaB123GSbeOzdD670Me657e7x8Dvv62FExKtO+3CMTawKfa7SCjf6XA3jedRrJx4AQJMNtYDluGAtsrjarPObkDW8/fxT4pqlN4pE63DsAU+e3e6nguffmw99XmTD+IuIifvqL86Pc37/g9DnKp1wo8/VMJ5H/QqaAABNN5QCluOCtcniarHOb9LsvHVsebz13E+LROuw3eIt4/H3OHQoBYG1PfzO+8T977hH65/BrWPL43VnfazBIa9eRYrG9LmK0OeqtesPAIC5K7WAlVbhKk95gEO+FwXnf83KaIc+jP/56dnxw79fLhqtwzH7PTHmj4wO8THm0e104jUHPcPNj4i3nvupuPqW6xsY8vS5avXnbkN24gEAtE1pBSx9rlLM4hwXTObhr3H/8sjjuNM+FJN5T0Ray7aLt4gn3eshQ5h///6GT9vzsNh18zu2/t7/7Orfx8k//EbDQp4+V5VdtD5XDfn8BACoTuEFLH2uapHF1Wad37jZOcUQfn71H+KzPz5dRFqHY/Z7Yizozi/pEd7+G643b2G8Yv8ntf6e9/I8XvmtE2Oy12vQa67PVSUXrc9Vi9cfAADFKqyApc9VbbK4WqzzG5c19DGEt5z76bhh+c2i0lq22mDTePK9H1LCI/zPb/iSfR4bW6y/Sevv+X//6Fvxo7oda23Q7hp9roY1L9rzEQQA0AQDF7CS73MVoc9Vjdb5jcwa+hzCkhW3xtvPP0VUWoeX7/uEWDA6v9R5seUGm8SL9np06+/1dUuXxFvO/VQDQl4Ljwvqc9XnB1pe8dwEAGAuBipg1aJwZddVbdb5jcsa5nD/Tr3stPjxlb8Vmday5QabxNP3PKzUB/KqA54Wi+YtaP29ft1ZH4ubVtxa85Cnz1UlMdZxwRavPwAAyjenApY+V7XJ4uae+9l1VckQenkerznjo5HnMp+1vXTfx8bCOe3CmvmB7Lr5HeOJ93pw6+/xRX/6aXzp5+fW+DWv1+6a+va5ytP8zGhI434AANZtVgUsfa5qk8XN7Q4qXFWe0EZE/PDvl8cXfna26LSWLdbfJJ5138NLeSDHHfDU6HZGWn1/V01OxCu/fWL6xVN9rioKefpcDWNO5KpfAABT6ruApc9VLbK4Wqzzk8saEhzGG885OW5euVSEWsuL9350n72w+n8gu22+fRx+l/1af28/dMkX43fX/bVmr3oL+1wNPV7rc1X281C4AgDoz4wFLMcFa5HF1Wadn1TWkEhCuy7XL7sp3nXBZ0WotWy+/sbxpHseWugDeeX+T45OlrX6vv795mvjfRd9vmYhr6WFq6EXrxL9zLATDwCgdTrJrJNnOwqFq1qt85PLGmowhE9e+vX45TVXiFJr+a99HxejI91CHsium98xjthj/9bf02O//cFYvmplTV5zfa4qufn6XBX64+y6AgCYvU6CpYHps4ZWNkh1XDCphz+kIUzmvXjVaR/W0H0t2y7eIo6664GFPJBX7Gf31TcvvzjO+O33ahDy9Lmq7KL1uSrsxylcAQDMXSe1Nao+V4NnL44LppvQztb3/vrL+OqvLhCp1vKyBz4+Otlg8+JOm94hjmz57qsV42PxujNOSjzk6XNV2UXrc1XYj1O4AgAYXCeVNarjgoNfcHMLV3nrhrDmj3ztmR+LW8eWi1Zr2GWz7eJhu+8z0Pc47oCnxkin0+r7+Lbz/jv+etM/En7NW7i7Rp+rGZ6HPlcAAG3VcVwwJfpcJTX4igtX/3Tt0hvTbbBdoVfs/+TIYm7H/+y+irj82j/Hx3/wtUTfsRburnFccIah6XMFANB2FW8/SPjYQiX3ouD8r7b3oT19rqa/6n//60nf/2r8/vq/iVhruNtWO8WBO+85p6995f5PiW5npLX3Ls/zOPbbJ8b45ERi75g+V63+3LUTDwCAaVRUwNLnatCsQZ+rdBPawa/6PwexanIijjv9wyLWWo7e9wmz/podN9kmjrrrAa2+b5/7yRlxyZ9/ntA7ps9VZTFWn6vC50XdPwYBAFI15AKWPleDXrA+V80ZwtS7rtbtwit+HN+8/CJRaw377HD3eMAd7zqrrzm25buvlqy4Nd50zicTesf0uark5utzVeiPG3hetHLnOQDA7AyxgKVwNegFK1ylmdAWc9X93YvXnvmxWDE+JnKt4egH9r8La4eNt46j7nZgq+/XG876eFy/7OYEXnPHBSu76GT7XEXYiQcAwFSGUMByXHDQC9bnqhnDGKRw9U9/v/naeP/FXxC51nDILveLu2+9S1//3Rfu/ehW7776wV9/GZ/7yRkVhzzHBSu7aMcFC3se9dyJBwBQbyUWsBwXHPSC9blKN6Ed/KrnPogPfvdL8aclV4lea3jpvo+b8b+z6aLF8cR7Pri192iiNxnHfOsDked5he9YSwtXQy9eJfqZYSdeS9dAAADFKKGApXA16AXrc9WcIcy2z1U/xiZWxbHf/pDotYZH3PmBseMm20z733n2/Y6IhaPzW3uPTvreV+LX1/yponfM7ppKok1KhSuN+wuZmwAAbVZwAUvhatALVrhKM6Et5qqLuxfn/fFHcebvfiCCrTbS6cSz7nv4lP/5wtH58cxp/vOmu/Lm6+KdF3ymgnfM7prKLlqfq0LnhF1XAADVK6iApc/VoBesz1UzhlF24WpNrznjozE2sUoUW+0p935obLhgvXX+Z0+854Njs/UWt/bevPr0D8eyVSuGOOntrqnsovW5Kux5KFwBAKRlwAKW44KDXrA+V+kmtINfdbmD+NOSq+JD3/2yKLba+vMXrbPH1UinEy/Y61GtvS/n/uGH8a3LLx7iO2Z3TSUxVp+rwudF3T6DAACabo4FLIWrIi7YccFmDKGMPlf9et9F/xN/vekakWy15z3gqBjp3D6sHbb7vjP2x2qqleNj8cpvnTikd8zumkqijT5Xhf44fa4AANI1hwKWwtWgq1THBdNMaIu56uHei5UTY/G6sz4mkq12x422jEN2ud/t/u3Fez+mtffjPd/5XPx5ydUlv2N211R20fpcFfbjHBcEAEjfLApY+lwNukp1XDDdhHbwq67uIX7r8ovj3D/8UDRb7al7Hvav/33v7e8We267eyvvwx9v+Ht8+LtfKvEds7umsovW56qwH6dwBQBQH30UsBwXHPSCm1u4clywgox2nV51+kdibHJcRIuIQ3a5f2y30ZYREfHifR7b2vtwzDc/EGMT4yW9Y3bXVHLR+lwV+uMUrgAA6qUzp6xB4apW6/zksoYaDiGF44LTueLGK+PjP/g/ES0iOlkWT7zng2OXzbaLQ3a5fyvvwRd/dk58508/KeEds7umsovW56qwH6fPFQBATXO9WS+g9bkaPP+r7X3Q5yrlF+E9F342rr71elEtIp73gEfG557wpuhkWeuu/eaVSwfri2Z3TUWveV2PC9Yn/jsuCABQb52+V2b6XA2+ztfnqlZJQ16zh7h01Yo4/uxPimoRsXjB+rHTptu28trffM7Jcd3SJQW+Y3bXVBJj9bkqfF7U7TMIAIDb68y4MnNcsFbr/OSyhhoOIdU+V/348i/Oi0v+/DORraV+ctXv4pTLvl3P4NXaPld5mp8ZDSpc1a9xPwAA69JRuBr8ghWumrGOr9Nxwekce9qHYrw3Ibq1TC/P45XfOjEme70BX3O7ayq76GT7XEW0tnCleAUAkIyONdTcL1ifq2YMoymFq3/6zbV/iU9d+k3RrWU+eenX48dX/maAkGd3TWUX7bhgYc+jUY37AQC4nU6711COC1aUxSWzhm9S4WrNob/9/FPimltvFOFa4tqlN8bbz/vvAYNXfd7zxuyucVyw8HlRvzmhcAUA0K9OO9dQCldJDV6fq8Iv5tax5fGW8z4twrXE/zvjo3HzyqXpBy+7a9L6zFjnOOzEq+yi1bMAAKbVUbgaYG2rcFV5QlvMVdd819UU/ucnZ8X3/vJLUa7hLrzix/HVX5yfdvCyu6aymDe7e2EnXiVBW+EKAKAvnfZcqj5XSa2U9bkq/f7lkcf/O+Mj/Tf1pnZWTU7Esd/+4CzmiN01lV20PleFPY9G9blSuAIA6FsLCliOCya1Uk6iz1WNs4ZZ3r+fX/2HOPXHp4l0DXXCRZ+P31//t1kEr/q853bXDCMQ2olX2UXbdQUAMGsNLmA5LpjU4JPqc5W36hG+9dxPxw3LbxbtGuaKG6+M91/0hT7miN01lbyg+lwV+uPsxAMAoKEFLMcFk1opK1xVev+WrLg13n7eKaJdw7z6tI/E2MSqaeaI3TWVXbQ+V4X9ODvxAAD4p4YVsBwXTCqDSuK4YLP7XPXrlMu+HT++8jciXkP83y8vjLN//wO7ayoLefpclT0v9LkCAGBtDSlgKVwlNfikjgt6hBF59PJevPLbH4xeLpOqu6Vjy+M1Z3zU7prK4o0+V2U/D32uAABYl5oXsPS5Smrw+lxVXhCY7hv+9KrfxRd+epaoV3NvO++/4+pbrq92zttdU+I7W+S9sBOvkqCtcAUAUIoaF7D0uUpqpaxwldhjXPc3fOM5n4ybVy4V+Wrq19f8KT75g69XN+ftrkkr3Gjcn9a8ULgCAChVDQtYjgsWljUkktAOftUKV/1+w+uX3RTvOP9Uka+GenkeL/vGCTHRmxz++293TXrhxnHBip6HPlcAAFWpUQFL4Sqpwetzldj96/8bnvzDr8cv/3GF6Fczp/7o2/HDv/067K6p6AVNqXClcX8F4V+fKwCAqtWggKXPVXKDd1wwsfs3u2842evFcad9MHIN3WvjxuW3xFvP/VTYXVPRRetzVeic0LgfAIC5SLyApc9VUivlJH7J77hgEd/w+3/9ZXzll+eLgDXx2jM+Gjcsv7k289TummE8DzvxKrn5ClcAAJVJtIDluGBFWVwiSYPC1TC+4evO/FjcOrZcFEzc9/7yi/jfn51di3lqd80wwr8+V5VdtMIVAEClEitgKVwlNXh9rhK7f8V+w2uX3hjv/c7nRMGETfQm49hvnVj+cU+7a9L6zNDnqqLwr88VAEDKEilgFdznauiL3sSyhgQS2mKuWp+rsh/ISd//avzuur+KhIn60CVfjF9dc8WwX7xZfgu7a8p/HvpcVRK0Fa4AAJKSQAGrhD5XtVxw6nPViKwh8V1XaxufnIjjTv+QSJigv998bbznws8mO0/trhnG89DnqtJ5AQBAUiosYDkumNRKOYk+VzXOGmpWuFrTd674SXzz1xeJhok57tsfjOWrViYXbuyuGcbz0Oeqsou26woAIFkVFLAKPi6oz1XthuC44NC/4Yxec+ZHyymWMCen/eaSOP03303qXbe7ZhhD0+eq0jmR7E48AAAihl7AKuG4YC3pc9WIFXuNd12t7cqbr4v3X/wFETEBK8bH4jWnfySpaWV3zTBe8yS2wM5qTtiJV9/PYwCAOhpSActxwaRWqUkcF1S4Su1efPCS/40/3vB3UbFi7zz/lPjLkn8kMa3srhnGa+64YKXzooWfxwAAdVVyAUvhKqnBJ3Vc0CNMbUKvmpyIV53+YVGxQr+59s/x0e99pZipNdCX211T9tBaeVzQTrw+FzoAAKxLSQUsfa6SGrw+V5UXBOqSpJz3hx/Fmb/7vshYxRTL8zju2x+M8cmJSt91u2uGEXv1uaokaNuJBwBQayUUsPS5SmoxqnCV2GNM/178v9M/EmMTq0THIfufn54VF/3pp5VNK7trhvGaV7Drqso5kcq8sBMPAKARCixgOS5YWNZQ3eMo+KoVrup4L/605Oo48ZIvio5DtGTFrfHGsz5eybSyu2YY4V+fq8ou2k48AIDGKKCApXCV1OD1uUrs/tVnQq850hMu/kL89aZrRMgheeNZn4jrlt00+wc20PO2u6b82NHCPlcRduI1e6EDAFCZAQpY+lwlN3jHBRO7f3ltL33l+Fi87syTRMgh+MmVv43P/vi0oYYbu2uGEf5bWrjSuL+pCx0AgMrNsYClz1VSi9EkfsnvuGAd78V0I/3m5RfHOb+/VJQs0WSvFy/7xvuil+dDmVZ21wzj5dHnqpKbbyceAEDjzbKA5bhgRVlcIkmDwlVyD6Tkkb76jI/E2MS4SFmSj3//q/Hzq/9Q+rSyu2YY4V+fq8ou2k48AIBW6LOA5bhgUoPX5yrB+5c38tL/eMOV8bEffFWkLMGqyYl41wWfKXVa2V0zjBdIn6vKLtpOPACAVumUtVJ2XLDEYVR+1fpc1fFezHWUH/7eV/o74saszBvpxuPveWhp08rummG85vpcVRK57MSD20xMugcAtEq36HQ3H1rhIPW0v97DyJv1EDVoH8DR+zwuOlkmWpbgNQ96Rnzj19+Jq2+5vrBplRfzTaqfoXnKL09eq5e4fnOijvOimIFlecTojauGdilZdyTmz18xvHvX6URnvmPpRVl160SsWLLEjQCgLbqddS/C9LlKZqWcRJ+rCMcF6zehixjpvbfZPZ57/0cKlSVZf/6ieNtDX1jIK2Z3zTACoT5XlV108scFoQI9cw+AVpnsFLE61OeqGUNwXHDo3zDpqdPNRuKEw4+OkU4nKM8Re+wfD971AQM879xxwdKHps9VpXNCnysAAOJfPbD0uUpqMapwldhjbH6fq3Vd7sv3e0LcbaudRMkheNfD/ysWzVswh0dld035r3n9jgvaiVf281C4AgCoQsdxwYqSlETun8JVYg+kypGu8U123my7eNkDnyBCDsl2G20ZL9/vSbN4VHXbXTPFD7S7ptAfZyfesOYFAABVmNXZoOYWrhwXrPXCXOGq0G/SybI48YiXx/zuPBFyiF6872Njty22n+FRNeS4oN01hf64geeFnXhNX+gAADRC3wUshathJlDDvmp9rip7IFWPdB3f5Dn3PzIecMe7io5DNm+kG+87/GWRTfEXH+2uGUb41+eqksiloAkAQB9mLGDpc9WMYehzVZN5MayRTvFNtl28RbzmoKeLjBXZa/u7xRPv9eC1HpXdNeW/PBUE5IG+3E688udF/XbiAQA0XSf1dX5SWUNNF6kKV83IGsosXP3zP3zXYS+O9ecvEhkr9MYHPy82W28ju2uGEv71uarsou3Ea8CaCgBguDqzWs/ZdVWrIehz1YysobCR5tP/hMfd45B4yG57iYoV22TRhvG6Q55Vs+ltd03Zz6N+BU078dJ6HgAA9deZcS2lcFW7Rao+V83JGvJSX4N//webLlocb37w80XERDz53g+NB+54zxqEPLtryn4e9T0umOhHUEN24gEAtFEnlXV+I1eH+lwldv8cF5zq5X7XYS+JzdZbLCImIsuyeNfD/ytGR7oDJuZDnqF21xT2PPS5Gsa8ULgCAKiTjj5XzVikKlw1I2sYTuHq9v/hIbvcPx551wNEw8TsvsUO8aJ9HpPg9La7puznoc/VMJ6HwhUAQN10mrPI0ucqrawhlfunz9V0P2GD+YvifY84WiRM1HEHPDV22HjrROKN3TVlv8T6XA3jeehzBQBQV536L7L0uUovm0zh/tVr11W5lzv1Tzj+kOfEHRZvLhImasHo/HjPI15a8dS2u6bsl1ifq2E8D8cFAQDqruO4YP0WqY4LNiNrqOK44Jr23v7u8fT7PFwUTNyDdrlfHL7HfhWEPLtryn6JG9PnKpGPY32uAACarVPPYTsumFbWkML9U7iazU+Y3x2N9z3i6MiyTBSsgXcd9pLYcP56Q56lib5i+lxV9DzqWtCsem7Obk7kql8AAFOqWQFL4Sq9bHL4i/zKk5SqR5oPPjmPO+BpsevmdxQBa2LLDTaNVx309OoCnOOChYXd+vW5irATbzjzAgCA6dWkgKXPVXL3IonHaNfVXCbnXbfaKV6096NFv5p57gMeGffYZpfhzlBFisLif2OOC9qJV+iPs+sKAKB/NShg6XOVVtaQwv1TuJrrT+h2RuLEI46J0ZGu6FczI51OnHDEy2Ok0ylhlib4itldU+HzsBNvGHNC4QoAYHYSLmA5LphW1pDC/VO4GvQnvGjvx8Q9t9lV5Kupe91ht3jGfQ8vb5baXVPojxu4SKHPVR9jaOFOPACAlkqwgOW4YHrZZAr3T5+rQefETpveIY474CmiXs29/tBnx1YbbFp8jLW7prCwq8/VMIKqPlcAAG2TUAErocJV5WtixwXreC9S6nO1tizL4j0PPzoWjM4X9Wpug/mL4q0PfUFxk8vumiJesdVfrs9V+fNCnysAgLZKpIClz1VaWUMK90/hqsif8LQ9D4v973QvEa8hjrr7QXHIrvcfLMbaXVPoj9PnahjPQ+EKAKDNKi5g6XOVVtaQwv1rWeFq2kdfzE/YcoNN4g2HPFu0a5h3HPbimN+dN/tZandNoT+ufscF7cQr+3koXAEAlKOiApY+V+llkyncvxb2uRpCsvaeh780Fi9YX7RrmDtteoc4Zv8nzW5y2V1T2CtW3+OCiX4E2YlXt49BAIChG3IBS5+r9LKGFO6f44JlZS+PvOsBcdju+4h0DfXS/Z4Qu26+/cyTy+6awl4xfa6GMS/sxAMA4D8NsYClz1VaWUMK90/hqsx7sfHCDeIdD32RKNdg80a6ccIRL4ssy8LumvJfYn2uhvE88gTm5uzmRP3mBQBAPQ2hgKXPVVpZQyr3T5+rsifnWx/ywth8/Y1FuYbbe4e7x2PvcXCaCbHdNRWFPDvxyp4XClcAAMNXYgFLn6tGrFLzhs6LYV36EI8Lrmm/He8Vj1u7qEFjve1hL4pNFy2uJObNbt7bXVPJRduJV+iPU7gCAKhGSQUsxwVrv0p1XLDEb1LuvVg4Oj/ef8TLVx8row02WbRhvPaQZ9tdU+CPc1yw7KHZiQcAwOwUXMByXLD2q1SFqxK/yXDuxesOflbssPHWolvLPPU+D4v7b3/Xal+gqt//FIoUKRWuki5oVj03hzgn6vVRCACQrIIKWApXjViltrTPVWEjzaufnHtue+d4zv2OFNnaGMyzTpxwxMtjdKSbSOy1u6aSyKXPVeHzou7LIwCAxuQ8jViZKVwl9hjtuqpics4b6cYHjzgmRjqdoJ3uvOWO8YK9H13xy1NBkWKgL8+bcVxQn6tCf5zjggAA6Rkg09XnKq2sIYX7p3BV5b142X5PjN232KG1weyLPzsnTvreV1sf1I876Gmx3UZbVvDy2F1T2UVr3F/onLDrCgAgTXMoYDkumFbWkML9U7iq+l7sstl2cfS+T2h1MHvvhZ+Lt5376Vi2akWr78OieQvifUe8rLwXqOo538rdNXXtc2UnHgAAxZlFActxwUasUvW5KumbVDcnOlkWHzzyFTG/O9raQPb9v/wyfn/dX2Pp2PL4v19e0PrAfvCu94/D7rJv2YEw7K6pKHI5Llj4vKjXnAAAaKc+ClgJFa4qXxM7LljHe9GkPlfr8rwHHBX3226PVgeyz//kjH/97//9o2+L7BHxzoe/JNabt7CkeW93TSWRK6XCVZ7kh3Q18wIAgKHoJL8y0+cqsfuncJXSvbjjRlvFaw56RquD2C0rl8X//fLCfyWjP/rbr+NnV/2+9cH9Dou3iFcf/IzB5n7Vc16fq6Q+ju3Ea8ayAACgrjrJrsz0uUrs/rWscDXto0/nXrzvEUfHonkLWh3ETr3s23Hr2LLb/duHv/sl0T0inrfXUXH3bXYp4AWyu6ayi9bnqrDnoXAFAFBvnSRXZvpcJXb/WtjnKoVkbQZPvNeD46Cd79PqADbZ68Unf/D1//j3//vlBfH3m69tfYDvdkbihCNeHp0sG3DeVxqMZ/kt9LkqP6jaiQcAwPB1klqZ6XOV2P1zXLCSJL4Pmy5aHG889LmtD2Df+PV34i9Lrv6Pfx+fnIiPf/+rInxE3Hvb3eNp9334HOa93TWVRS59rgr7cfXciQcAwLp09LlqwMJR4arEb5LmvXj3Yf8Vmy5a3Orgled5fOCi/5nyPz/lR9+Om1bcKspHxOsPfU5ssf7GfYY8u2squ+jkjwtW/iE9qznRiJ14AAD8S6fSn55Un6saLhxLGbY+V6nPiQfv+oA48q77tz54fevyi6dt1n7LymXxke9+WZSPiI0WbhBvfugLZpjedtdUdtH6XBX24xq1Ew8AgNuproClcJXY/avXrqtyLzfd+7DB/EXx3ke8tPWBq5fn8a7zT53xv/eR7345rl92k0gfEY+95yFxwE572l1TWcjT56rs56FwBQDQbMMvYCVxXFCfqzrei7YeF1zTmw59Xmyz4eatD1xf+8X58ct//HHG/96ysRXx0e9+RaRf7d2HHx3zu6PVzXlFiuk+mBIKqnbiVbEyUc8CAJje8ApYSR0XrCGFqxK/ST3uxb473COeuufDWh+0Vo6PxRvP/kTfz/tj3/tqXHPrDaJ9ROy82bZx9P5PjFYeF9Tnqo8xaNxfyc1XuAIA6Ev5BSx9ripf5A/hG6Z96TUvXEVEzO+OxnsfcXRkWdb6oPX+i74Qf7vpmr4f6bJVK+Kt53xatF/tZfs/KXbZ/I5VBuNZfgu7a8p/HnbiVXbRClcAAH0rt4ClcJXYAtuuq7pmDf/voGfELptt1/qAdeXN18aJF39h1hPmcz8+fdqG720yvzsaJxx5TPnFULtr0gq7DSpcadwPANBO5RSw9LlK7P4pXNV5Xtxj613iBXs9SrSKiNee8dFYMT4262S0l+fxhjM/5gauts+O94hH3f1Byb7EdtcM43m0tHClcT8AQG0VW8DS5yqx+6dwVfesodsZifcf8fLodkZaH6x+9PfL4+u/+s6cH+mFf/xxnPv7H4r6q731sBfFRgs3SOoltrtmGEFVn6tKbr7CFQDAwIorYDkumNj90+eqCVnDS/Z5bNxj611Eqoh43RknRZ7nAz3SN5z5sejlssiIiC3W3zhed+izywrGs/wWdteUH1T1uarsooUcAIBCDF7ASmJN7LhgHe+FPlfT22nTbeOV+z9ZlIqIb/364vj+X34x8CP91T+uiK/94nw3dLWn3+8Rcd877jHY+zfQ62t3TflBVZ+ryi7arisAgELNvYClz1ViSZfCVZOyhk6WxYlHHBMLRue3PkhN9nrxlnNOLuyRvvnsk2PV5IToHxGdrBPvP/KYGB3pDv0ltrtmGEFVn6sqViYKVwAAJeUv6S8O9blK7oFUPdIGF67+eRlPv8/DY6/t7yZCRcQpP/pW/PbavxT2/f6y5Or4zI++7caudpet7hTP3euoob3EdtcMI6jqc1XpvAAAoBSzK2Dpc5VY0tXCPlcNPS645mVstcGm8bqDnyU6RcSyVSvineedWvj3fed5p8TSseVu8GqvOeSZcceNtyq1OGB3zTCCqj5XlV20XVcAAKXrr4Clz1ViC2zHBRuXNaxxGe95xEtj8YL1RaeIOPGi/41rl95Y+Pe9btlNcdL3vuoGr7ZwdEG89WEvmnpuDjS17a4pf2j6XFU6JxSuAACGopNW0jDVj1O4qttKWeFqbtf4qLsdFA/bfW+RKW4rMn3ku18u7ft/4KL/ieuW3eRGr/bwPR4YD73zPoW+YnbXDCOoJvEhPas5YSceAABz0UmlNuC44NC/4XBzrMIut5mFq4iITRZtGG972AtFpdXeds6nSjrmd9vNXzq2PD7wnc+70Wt41yP+K9YbXWh3TUrhJqU+Vwqadfo4BgBonE7VCzPHBZNbsVebb7akz9W6/vFtD31hbL7eRqJSRPz++r/FZy87vfSX85M/+Hr8/aZr3fDVtt1oy3jlg546wB22u2YYsaJ1xwXtxAMAINYsYCVxXFDhqo73wnHBQa7xtn88eJf7xWPvcbCItNrrzzgpJnqT5VYC8oix8VXxjvP+2w1fw4v2fWzcdeud5nCH7a4pP6jqc1XFykThCgAgDZ20jgvWkMJVid+kyYWrf8/5RfMWxLsf/lLRaLXv/vnnccZvvlfezV/rn77wkzPjN9f+2Y1frdsZiRMe+YroZP3+jQ+7a4YTK4ZcvBroyxvSuF/hCgAgKZ1h/jB9rob+DdO+9FYXrv79H7zhkOfE9htvJRpFRJ7ncfxZHy/v5q/jnyZ7vXjzWZ9089dwn+3uHE++z0NnuMN21ww7VlQ3jtl8CzvxAAAox1AKWPpcJbdir3akLe5ztfZ/sOe2d45n3vdwkWi1r/3ygvjhX39dTjI6zdQ67fJL4tK//soDWMPxD3lebL7+xuu4lXbXVBErUg/sGvcDAFC20gtYCldJZXHVjtRxwduZ3x2NDx75ihjpdIKI8cmJeOs5nyo2+53FtDr+zI97CGvYeNGG8caHPm+t22l3TRWxIuXArnF/+UMDAOA2pWXO+lwltVqvfqSOC/6HY/Z/cuy+xQ6i0GonX/r1uOKGK4u5+XOYVt/788/j7N/+wINYw+Pv9eDYb6d7211TcawobRwDfbmdeGmvMwAAmqfwApY+V0llcdWPNJVkbeg3avrru8uWO8Z/7ft4EWi1pWPL430XfK6YyTXAtDr+zI9HL+95IKtlWRbvPfJlMb87WqPEvG67a/S5quyiFa4AAGqlsAKWPlfNWaXqczXINc589zpZFicc/vKYN9IVgVZ774Wfi+uW3TR4Mjrg1Pr1NVfEV35+ngeyhp032y7+a78n1CDk1W13jT5XlV108jvxAABYZy5d1DoszayhmkV+Xe+FPlfDSTxesPej477b3UX0We3qW66Pj33vq3PPfgueVm85++QYmxj3YNbwigOfGjtvtl2iIU+fq7Kfhz5X5Q/NViwAgJkNVMDS52pOq9TmXro+VzO640ZbxasOfJrIs4a3nPOpWDE+NvubX9K0+uuSf8QpP/ymB7OG+d3ReNfhL00s5OlzVfbzaEyfq1Q+jlPYiQcAUGNzKmDpc5Xcir3aS2/LccEBn3OWZfH+I14e681bKPKs9utrroj//elZySWj7z7/M7F0bLkHtIaDdrlvHHX3gxIJeXbXlP0R1KjCleOCAACNMOsCluOCSa3Yqx1pa48Lzu3annivh8QBO+0p6qzh9Wd8LCZ7veSS0euX3RQfueTLHtBa3v7wl8TiBetX+JrbXVN2YNfnahjPw64rAIC56LuA5bjgUL9h2peuz9WsbbH+JvHmBz9PxFnDRVf8NM79/Q/7u8cVTKsTL/pCXLt0iQe1hi032CRec+iz7K4pMVYMNI6Bvlyfq/Kfh8IVAMAgZixgOS449G843ByrsMvV52o67374S2KjhRuIOKv18jxef8ZJ/d3jiqbVslUr4v0Xft7DWsuzH3Bk3PeOdxnyS5lguEmpz5Xjgul8HDsuCABQms7s1mCOC9bxXuhzNciNGvw5P2S3veIRd9lPtFnDl352Tvz0qt/NnIxWPLVO/v7/xZ9vvNoDW/NDI+vE+x/5iuh2RoYftO2uKfTHDbzryk68PsZg1xUAQGG5SH9rc4WrOt4LxwWLSDwGs+GC9eK9jzhapFnDyolV8dZzPjX1PU4oGV01ORHvPPe/PbS17LH1TvHsvY4c7gtpd01h70f9+lylHysa+/kIAJCQzszLLYWrui1GFa7SSTze8pAXxNYbbibSrOHj3/ta/O2mf0Rddtd88adnxy+v/qMHt5bXHvrsgue23TWznZuz//K8GccF7cQDAGilztTLLX2uSvyGaV+6wlUh9t3xHvGkez1ElFnDTStujfd/53NpvmJTPP5e3ou3nn2yh7eW9ecvirc/4iXlRS5FikJ/nD5Xw/oMAQCgLB3HBZNasVc7Un2uCrNwdH68/4hjIssyUWYN77ngM7Fkxa1pvWJ9FDTP+M134+IrfuoBruXIux0QD7nz3sXe/JQKV3nFnwmtPC5oJx4AAOvWacQCTOGqxG+iz9Vc/L+DnhF32uQOIswa/rrkH/HJH/xfWtNqFsnoG8/8WOS5JHVt7z786Fg0b0ExL6TdNYW9H/U9LpjoR5DCFQBA5TrpZA0pLK5bVria9tE7LjhXd9tq53jeXkeJLmt58zmfjLHx8drurvnR3y6PM3/7PQ9yLdttvGUcc+BTBnsh7a7pIyb3++X6XFUdKwAAKEdHn6vSvmHal96GoxAVXF+3MxIffOQro9sZEV3W8Iur/xBf/dl5iSaj/b9VbzrzEzHZ63mga3np/k+IPbbeafYvpN01hf44fa7SiRUAABSvU7sR23VV4jdpUOGqot+YH/3AJ8Tdt95ZZFnL607/aPSqPH5XUMH28mv+FF/62dke6Fq6nZF47xEvm6Lnm901ZQd2fa7SixUAABSvPgUshasSv4k+V0XYebPt4pj9nySqrOWs334/Lvzjj6udFwXO+bed/akYmxj3YNfygB3uFk/c8yEz32O7awoLu/pcpR0rihsDAAARdShglbJ21OcqrayhzGR0ONfXybI48YhXxPzuPFFlDZO9Xhx/5scTmheDz4m/3XRNfPrSr3u46/Dmh70wNltvcdhdU+5HUGP6XKXycdyQnXgAAE2XdgGrlMJVfYpX5V6uPldFjuFZ9z0iHrD9XUWUtXz+x2fE5df8KYFktNg5/57zPxO3ji3zgNeyyaIN4/iHPi/NsKvPVUXPo67HBeu81gEAaKY0C1iOC5b4TZq866qaZHTbxVvE6w55lmiylpXjY/HO805JJBktdl7csOzm+NBFX/SQ1+FJez4sHrjTvdJJzPW5uv04hn7zE/wISmknnuIVAEDf0ipgKVyV+E30uSorL3vnw18S689fJJqs5cOXfCmuvPnayvLksuf8hy/+Yly7dIkHvZYsy+Ldhx8d8zqjYkUBP64xxwXtxGvcxzEAwLClU8BqaZ+rwkaqz1Ul43jMPR4UD919b5FkLdcvuyk+8J3/qXhelGvZqhXx3vM/42Gvw+5b7hgv3u9xYoXjgul8HDekcT8AQJtVX8Cy66rEb6LPVZkPa5NFG8ZbHvpCUWQd3nXeqXHr2PKKktHhzYtP/+Ab8acbrvLA1+HYBz0tdthkG7FiTt9iwF1X+lwlFysUrgAABlddAUvhqsRv4rjgMB7WOw57cWy+3kaiyFr+fOPVccoPv9n8ZDSPGJ+ciHec+2kPfR0WjM6P9xz5MrFiVt9Cn6uyh+a4IABAfQ2/gKVwVeI3cVyw/OTnNgfvcr949N0fJIKsw/FnfixWTU60Jhn98k/PjZ9f9XsPfl3vyW73jyPudkCrY0V/X67PVfnzQuEKAKDuhlvA0ueqpG+icDXMxGP9+YvihCNeLnqsw4/+dnl841ffGeK8qH5O9PJevOWskz38KbzziJfGhgvWG1JQ1eeqsovW56pRH8cAACkaTgHLrqsSv4k+V8N+WG849Nlxh8Wbix7r8LrTPxp5npf8PNLbXXP2b78fF13xExNgHbbaYNN49SHPLPk9bWGfq6GHf32uyn4ehcwJAIAGK7eApXBV4jfR56qKh3Xf7e4Sz7jv4SLHOnzr1xfF9//yixITwbSLFG884+PFFe8a5rl7PyrucYddWxUrpv4WdT0umOhHkJ14AACtUU4BS+GqpEV5ve7F3JPRNH9jPr87Gice+YroZJnIsZbJXi/ecvbJJc2LeiSjl/3t8jj98u+aDOsw0unE+496RYx0Oq2IFev+cn2uyn9PW7oTDwCgJYovYOlzVdKCuEGNNWr6G/NXHvDU2G2L7UWNdTjlh9+M3177l5LmfX2S0TeccVJM9CZNiHW417a7xzPvf0QrYsV/fgt9rsp/HvnwxzHgnFC4AgCYneIKWHZdlfhNGlS4qulvzPfY6k7xkn0fK2Ksw7JVK+Kd559aQjJav901v7/ur/G/PznLpJjC6x/y3Ni6n/5xdtdUFP71uSp7XihcAQDM3eAFLIWrEr+JPleFj2MORjqdOPHIV8ToSFfEWIcTL/pCXHvrjQU9j/rvrnnLWZ+MleNjJsY6bLBgvXjLYS9sbKxYc07oc1X289DnCgCgbQYrYLX0uKA+V4PeqHolHi/c+9FxrzvsJlqsw3XLboqPXPLlAp5Hc3bXXH3L9XHyD75uckzhUfd4UBy6+wMaGSsa0+cqlY9jjfsBAFjD3ApYLd91Ve7l6nOV0rS648ZbxXEHPk2kmMLbzj45lo4tr08yWsCP6ycZffd5p8ZNK241QabwjsNfGgtG5zcqVjSqcOW44NBiBQAA/ZtdActxwRK/SZN3XdU0Gc0i3n/Ey2PRvAUixTr8/vq/xWcvO71eyeiQihQ3rbg1PnzxF02SKdxp0zvEyw94sj5Xa45j6IE6wY+gFsYKAAD6118BS+GqxG+iz1XZedlck9Gn7vmwOGCnPUWJKfT1F/calIzONiH98MVfjGvm0husJY4+8Ilr/VVPfa4qeRn0uao8VlT5kQkAUCczF7Ba2ueqsJHqc1WLxGPtpGPLDTaN4w99rggxhe/++edx+uXfneO8aEcyunzVynj3eaeYLFOYNzIaJxz1isiyes6LqsdQyA/U5yqJWFHD5REAQCU6w1tg23XVuFVqg496vOfhL42NFm4gQqzrfuV5HH/mx+eQjLasd00eccql34orbrjSpJnC3ne6Rzzu3g+uVayoV5FCn6u6xArFKwCAmXXKX0gpXDVuldrw35gfscf+8fC77Cs6TOFrv7wgfvjXX/X5+NvdjHt8ciLedtbJJs003vaIF8em6y2uZaxI+6Mw0cKVWNG4JQEAwLB0yltIKVw1bpXagt+Yb7hgvXj7w14kMkxhfHIi3nr2yX08fs24/+krPz8vfnbl70yeKWyyaHG8/iHPq12sSPejMPE+V2JFIXMTAKCNOuUspPS5SitrKOsam/cb87c/7EWx9YabiQxTOPkHX//3kTi9a/oaR57n8aYzP2HyTOOp93t4PGCHu9UqVgxjDIX8QH2uahMrAACYXqfYb2fXVVpZQ1k3qpm/MX/gjveMJ9zzwaLCFJaOLY/3XfBZvWvmcMnn/u7S+M4ff2wSTSHLsjjhqFfE6Ei3FrGi7LlZyEXrc1XLWAEAwNQKKmApXDVuldqy35gvHJ0fHzjyFZHd9ifRWIf3Xvi5uG7pTWkkozXcXXP86R+LPJfBTuXOW90pXrDvY5KPFWl9FOpz1cRYAQDAug1YwGpZ4SpCn6tKk5/yktHXHvys2HGTbUSEKVx9y/XxsUu+0ohktKrdNT/++2/iW7+6yGSaxqsPfWZsv8nWSceKNMK/PldNjhUAAKzbAAWsFva5asNxwaozswp+Y77ntrvH8x5wlGgwjbecdXKsGB+rZs43aHfNG8/4eEz0Jk2oKSwcXRDvOfLlycaKqsOjPlflf+A7LggAkK45FLAcF2zcKrXFvzHvdkbihMNfHiOdjmgwhV//44r435+eVd28aFAy+ofr/xb/c9kZJtU0Dtn9AXHYHg9MLlYUPTcLmYT6XBX24xSuAADSN4usXeGqcatUvzGPl+//pLjb1juLBNN4/eknxWRvMvSuKcZbz/5UrBhfaWJN411HHB3rzVuYVKyoLvzrc9XWWAEAwO31WcDS56pRq1S/MY+IiF022y5ett8TRYFpXHTFT+Lc319au2Q05d01/7jl+vjE975mck3jDhttEa8+9JmFz4s0PmAG/IGOC7YmVgAAcHudxFbs1a4h9bmqVeIx2MTP4sQjXxELuvNEgSn08l68/vSP1uYlrtPumvee/9lYsvwWk2waz9/3MXH3bXapfl6kVLhyXLB1sQIAgDXz+JqvzBwXHOQa2/uXoZ7zgEfGA7a/mwgwjS/99Jz46ZW/q828qFMyevOKW+ODF33BJJtGtzMS73/UK6OTdSqNFcMP1Al+BDVk124dYwUAAP/WqevKTOGqiMSj2ryskmQ0j9h2oy3itQc/09s/jZUTq+KtZ59ci2S0rrtrPnLxl+Kqm68z2aZx7+3uHE9/wOGVxYpKA7U+V2nFigiFKwCAinXquDLT52qQBb/fmL/74S+N9ecv8vZP4+Pf+2r87aZrJKMlRq6V42PxnvNONdlmcPzDnh9bbbhZJbGisgCpz1V6sULxCgCgch27rlLLGgrPk6tZgSe6u+bx9zo0HrL7Xt78ady04tZ4/wWfH+LcbHoyOvXumlMv/Vb87rq/mnTT2HDBevGmw14wnHlRdYB0XFCsUCkDAJhSpw6DdFywiMSjPg+rrGR000WL480Peb63fgbvOf8zsWTFLUnOi0Yko2v800RvMt5+1skm3Qwee+9D44Bd7lNerBj6vEj0I8iu3bRiBQAAt5N0AauwJZ3jghUmP7NLOspMPN71iP+KzdbbyFs/jb8u+Ud88vtfSy4ZbfLumv/7xQXxo7/+2uSbwXuPOuZffzVUn6thTFl9rmq0ygEAaIVkC1iFFa5SKOwM/Ub5jfnaDtn1/nHU3Q70xs/gzWd9MsYmxpuVjCa+uybP83jrWZ80+Waw02bbxtEHPkmfq6HEbn2uUowVAABtl1wBS5+rQa7Rb8zXZYP5i+KEI17mbZ/BL67+Q3z15+eVkpe1Ixmd++6a83//o7jg9z8yCWfwsoOeErtusX1lc7OQSajPlViR6k48AIDEJVPA0ueqiMSjPg9rmInHGx/yvLjD4i287TN4/ekfjV7eq3xe1D4ZnePr+MYzPh55LoudzvzuaJzwqFdGlmU1mBeJfgTZtVv7WAEA0FaVF7D0uRr0RvmN+XT23uHu8fT7PNybPoOzfvv9uOAPl1WajLb9r8j95O+/ia//4gKTcQb73ume8eh7HjzkD5gC5kWSnyF27dYxVgAAtFWlBaxy+1ylkjWUdaP8xnwm87ujccIRL5v9bo2Wmez14vgzPlbJS6x3ze295cxPxvjkhEk5g7c94iWx0cINEpsTdTwuWJ8PfLECAIBKCliOCw5yjX5j3q9XHfT02HXz7b3lM/j8j0+Py6/501DnRWN61xRcB/jD9X+Lz/3oNJNyBltssEm8/qHPLSxWlDIn9LkSKyqdmwAAzTPUApbCVRGJx5DHMdCXV5d43HWrneJF+zzGGz6DleNj8c5zTxnqS9yoZLSEcbzj7E/HivGVJucMnvGAI+J+29+14nmR6EeQXbutiBUAAG0zlAKWPleD3ii/MZ+NbmckPnjUK2N0pOsNn8GHL/5iXHnztUNLRvWumdk/br0hTrrkKybnTB9eWSfe/6hXxmina3dNX58h9fj8qGesiFC4AgAYQg5QwZKu4AWxPlepJR5Vj+HF+z427rnNrt7uGVy/7KY48aIvlP4S610ze++/4HOxZPktJukM9th6p3jevo+uNkA6LihWrP0DFa4AAEpRWgHLccEiEo+qx1BB4jGgnTbdNo478Kne7D6867xT4paVy0qfF7VPRiOGHmpuXrE03n/B503SPrz2Ic+OO26y9RDmRaIfQX750epYAQDQJoUXsBSuBr1GvzGfqyzL4r2HHx0LRud7s2fw5xuvilMu/VapyXisypAAADFVSURBVGg+2DnU1veu+dglX44rb7rWZJ3BwtEF8bbDXzK8eZFS4cof+Sjkc6zusQIAoC0KLWDpczXIgt9vzAf19Ps8PPbf6d7e6j4cf8bHYtXkuGR0qh+YQLhZObEq3jWbBvst9oi77hcP22Pf8gOkPlfpxQqN+wEAWqOQAtZwdl01QIMKV6kVKbbcYNN4w4Of443uw2V/vzy+8avvFPo89K4pZ2if/eG347fX/sWk7cO7H/myWG/+wnICpD5XYoU+VwAAlRuogOW4YBGJR9VjaEbi8d7DXxqLF6zvje7Da0/7SOR5Xui8qH0yGpHk7prJXi/eeuYnTdo+bLvRlnHswU8f8OYn+hFk165YAQDA3ApYha0hHResMPmZXdKRcuJx1N0OjMPuvK+3uQ/f+tVF8f0//0LvmtTCzTSx4hu/uCB++Ndfmbx9ePH+j4+7brPz4Ddfn6tCf5xYAQBAEWZdwCqscJVCYafs9W/V19eC35hvvHCDePthL/Ym92Gy14u3nHWy3jWphZs+YsXxp51kAveh2xmJDzz62OhknblPQn2uCv38ECsAAChK3wUsfa4GuUa/MS/L2x72othi/Y29yX045dJvxm+v/XMLk9H676655Iqfxnm/u9Qk7sN97niXeMr9Hj77SajPVWGxuzGxokFLEwCAJpixgKXPVRGJR9VjaGbisd+d7hWPu+ch3uI+LFu1It553ikDzQvJaLWx4vXf/mj08p7J3Ic3Hvb82HydhW19robxGdKYWKF4BQCQlE7pa0h9ripMfmaXdNQp8Vg4Oj8+cOQrIssyb3EfTvzOF+LaW2+sbl5IRgeOFb+8+g/xfz8/32Tuw8aLNow3P/xF/c2LJD9D7Nqt7INT4QoAIFmd0taQbTkuWPXqt6W/MX/Doc+JHTbZ2hvch+uWLomPXPylapJRvWsKjRVvPP1jsWpy3KTuwxPu85DYb+d7Rz0LmlXPzTbEirxGsQIAgIi1CliOCw5yjX5jPqyLvs+2d45n3/9Ib2+f3nb2p2Lp2PJ2JaOpJIIFx4q/3Hh1fObSb5vUfTrhUa+M+d3RtD6CUtq167hg4rECAIA1dQpbN+lzNdxxDJh01HV3zbyRbnzwqGNjpNPx9vbh99f9LT77o9Pal4w2eHfNO2ZRkGy7nTffLv7rgCfpc1Xwjxv4M0SsaNzyCABgGDr6XA2ajNYn8WjC7pqX7//k2H2LHby5fXrD6SfFRG9yOPOi6kpAS3bXXLd0SXzskq+Y3H165cFPj122uGPC86Ienx9ixXCGppoFADC1wbax6HNVq8Sj6jEM+gN32fyOcfR+T/TW9ul7f/55nH75JeUno3rXDD1WfOCCz8WNy282yfswvzsa7zryZdXNCX/kQ6zo617YigUAMJO5FbAcF6x4DBUkHhVXAjqRxYceeezt+9kw9R3M8zj+jI9POy9qn4xWMjfTiBW3rFwWJ5z/ORO9Twftdr846p4PqjqMhV9+iBV2XQEAzN3sClitL1z5jfnQb/7qf3reXo+K+91xD29sn772i/Pj0r/8srx5kUIy2vJm3J+45Cvx95uuMdn79I4jXxqLF65f0bzwRz7EigavmwAAhqT/ApbCVa0Sj6rHUFjiERHbbbRlvOaQZ3pb+zQ+ORFvPevkcpLRChr3JxluEogVK8dXxTvO+rQJ36ctN9g0XvuQ51b0GVKvzw+xolmxAgCgKWYuYOlz1b7Eo+qLXuuf33/kK2K9eQu9rX06+fv/F1fccGXNk1G9a/oZw/9cdnr85po/mfR9evY+j4z7br/HEOZERfMihc8PsSKdWAEA0DCduS1E9bkqfwxtSDxmHsMT7/2QOGiX+3hT+7R0bHm874LP/Wte1D4ZjdC7ZpoxTPZ68ZYzPmni9/uBl3XiA485NrqdkdLCmF27YoU+VwAAJa3n+1+UV7JKrWCB6TfmQ7/5U4xh00WL400Pfb63dBbee8Fn49qlN+pd06JY8a1ffid+8Odfmvx92mPrneM5+zyqhHlh165Y0eB1EwBAAjqtW4D5jXlFj3T2vzF/zxFHx6aLFntL+3T1LdfHSZd8pYbzItFwU6NYcfxpJ3kBZuG1D31ObLN48wKfR57A3Jzd54c+Vw2LFQAALdCZeZ3VoMKV35hX8Ejn9hvzB+++Vxx51wO8obPw5rM+GSvGV9YoGa3TEaC0Y8X3/vSzOPs33/cS9Gn9+YviHUe+tIDnUa/PkMbs2hUrAABaqRO9ZFapQ17w63M1nAuf/Rg2mL8o3nf4y7yds/Drf1wR//uTM+udjOZixSA/7vjTTope3vMy9OmIux8YD7nLPnN8HnbtihUJxAoAgJbppLk6LHuBqc/V0G/+LMbw5oe+YG7He1rs9ad/NCZ7vaHOzXYko/UpUvzy6j/EV356rpdhFt5z1Mtj0bwFs3gedu1W9sEpVgAAtF6n4lXq0Na+fmNe4UXPYgz77HiPeOp9DvNmzsJFV/wkzvndpYnPi0TzvYbFijed/vEYmxj3UvRpu423ilce/PQ+n4c+V5W8DGIFAACrdRq1CPMb84pyrWJ21ywYnR8feOQrIssyb2afenkvXnfaR+uTjFZQB2hTrPjrkqvjlB98w4sxC/914BNjj613bsxOvH/Oi6rH0OxYkcrgAADapdOIq/Ab84oTj2LG8OoHPT122nRbb+UsfPGn58RPr/xtfZJRvWtKjxXvPPvTsXRsuZejT93OSLz3Uceso3Dulx9iRRIBFQCA1epdwPIb8wrX1MX+xvyuW+8UL9j70d7IWVg1OR7vOOfTCSWjIRlNIFZcv+ym+MhFX/SCzMJeO949nnTfh1Xz4vgjH2nFigiFKwCARNW3gNWgZDQf7O+i1/435t3OSHzoqONidKTrjZyFky75cvz5xqvSnReS0cpixfsv+Fxct3SJl2QW3nL4i2Oz9ReHP/LR8liRwtFiAADWqX4FrBSOAPnLUIXei//a7/Fxj2128TbOwk0rbo0TLvx8msloKklYi2PFsrEVccL5n/WizMLGizaM4w97Ya3mRdVjECvSmhMAAE1XnwJWSkeAhpyMJpl4FDSGnTfbNl554FO9ibP07vNOjSXLb6kwEdS7JvVY8YlLvhp/vuEqL8ssPPl+h8UDd753BXOzgs8QsaIxsQIAoC3SL2Dpc1Xhgr/c35h3sixOfOQrY0F3njdxFv665B/xye9/reJ5kWAyGmLFmmNYNTEe7zz7016YWciyLE549LExvzua5JzQ50qsAABos7QLWPpczXAvhnzRBd/6p9/v8Nhrh7t7C2fpzWd9IsYmxvWumXEcYsUXLjszfnnVH7w0s7DLFneMF+3/hJI/xyqYE2JFo2IFAEAbpVnA0ueq4sSj/DFsteGm8fpDn+0NnKVfXP2H+MpPz9O7Rqzoaxy9vBdvPfOTXpxZOvbQZ8QOm26TxLyo3+eHWDHbj1gAAPqT1p99yxNZ8VWddFSyyB1u0tHr9eLITx0zwL2oX9JRxIivvvm66OW9ai86FyvqFCtO+9XFsd8Jz4wsy1o8L2ZvxaqxCmNF3T5DxIr0PtMBAJonnQJWY4oUDfjLgkMYx7VLl8S1S5ekn3i0Mhmd4gfmYkVdY8XPrvxdbWPFYPdCQVOsqH+sAADgNtUXsCSjFV22ZFQy2oR5IVaYE2KFWNHMWAEAwO1VV8CSeKSVePiNeaE/zk48sUKsECvECrECAIDiDL+AJRmVeEhGE5oXklGxwrwQKwb4geZEwfMiIgsAANZluAUsRQrJaEMTD8moWCFWiBVihVhR6bwAAGi44RSwLDAlHg1NRguZF4oUac0LscKcECvEijrFCgCAlii3gOU35pLRvu+FZFQyKlaIFWJFGvNCrKhFrAAAaJlyClh+Y55WMirxaHkyOsUPVKQQK8QKsUKsqOe8AABooeILWBaYktEUk9ECfpxkVKxoxrwQK8QKsaK2sQIAoMWKK2D5jbnEQ+KR9pxIZV6IFWKFWCFWiBUAAMzS4AUsvzGXjEpGE5oXklGxQqwQK8SKxsQKAAD+ZbAClsQjnWRU4tHyZHSKH6hIIVaIFWKFWFHPeQEAwO3MrYBlgVnRZUtGy34eklHJqFghVrQqViQ9LxSuAAD4t9kVsPzGPK3EQ5EirXkhGRUrxAqxQqyoX6wo4McVFivUvwAAptRfAcsCUzIqGU1oXkhGxYomzAuxwpwQK5L6TAcASNzMBSyJh2Q0xcTD7pr0kh+xQqxIMVYU8OPECrGiGbECAKDeuhaYqS0yJaOS0SbMC7HCnBArxIoE50Vrf/kBAFB/XYlH4omH35inlXhIRsUKsUKsECvEitrMCwCA5uhaYEo8JKM1mheS0bTmhViR1rwQK9KaEz5D0nseAAA11rXAlIwmm4wW8OMko5JRsUKsECvEinbNCwCAZupWvsj0G3PJaKrzQpEirXkhVpgTYoVYIVYAALRWt86Jh2R0GM9DMioZrf+8ECvEimbMC7FCrAAAaK9uaxMPRYq0Eg+7a9JLfhQpxAqxQqwQKxKeEwAA7dKN6FlgSkZrnXhIRiWjzZgXYoVYIVaIFQAATKVrgSnxaHXioaDZxxjsrhErxAqxQqxI9nkAALRE+QUsvzGXjEo8JKNihVghVogVYgUAAAMor4DlN+YSD8no1D9QkUKsECtKfSZihVjRjFgBAMA/FV/A8htzyahkVDIqVogVYkWD54VYAQDA8BVXwLK7Jr1FrsRDMtr3GOzEEyvECrEisVhRwI9TuAIAaI5iClh+Yy4ZTTEZHfplS0bFiibMC7HCnGhCrCjsmwz5olXLAACmMlgBy2/MJR6lJB4KmuU/D7trxAqxQqwQK5KOFQAA3M7cClh+Yy4ZlYzWdF7YXVPZhYsVac0LsSKteSFWAAAwg9kXsBQp0lpzKlJIRlNMRsUKsUKsECvEitnHCvUsAIAp9V/AssCUeKSYjKaUeJgT6cwLsUKsECvmcC/EilbHCgCAxM1cwLLAlIyW8OMko5JRsUKsECvEivbMC4UrAIBBdS0wa5J42F2T1pwwL8QKRQqxQqwQK+oeKwAAaqRbxuLOAlMyKhltQTIqVogVqcaKoV+2WCFW1CxWAADUUDe5xEORIq3Ew2/M00s8FCnECrFCrBArxAoAgJbptjfxkIyW/Twko5JRsUKsECvECrHCYhMAoAhdiYfEI8nEw2/M+xiD3TVihVghVogVYgUAQDt05/qFFpiS0WbMC8lo2c9DrBArxAqxolWxIqV4AQDQIHMqYPmNecMSD78xTy/pUKQQK1KMFQX8OLFCrBArAACYi1kVsPzGXDIqGZWMihViRatjRdLzQqxo9ZwAAGi4vgpYihQSj1LmhWS0jzEoUogVYoVYIVaIFQAAdFuxwEw68fAbc3NCMipWJDgvHC02J1KdF2IFAEArdS0wJR6S0ZTmhWRUrBArxAqxQqwAAGBt3fonHpJRiUcT5oWdeJVduFghVvgMESvqEisAAFqsa4E5zEW/ZFQyWv95IVaIFWKFWCFWAAAwbF29axqYePiNuTmR6rwQK8QKsWIO90KsaHWsAAAgIvr8K4QWmDVJRgv4cZJRyWgz5oVYIVaIFWJFzWMFAAC3M/cClsSjUcloIYmHgmZa88LumvSSUUUKsUKsECsAAJiT2RewLDAlo5VftmS07OchGRUrxAqxQqxIaV4AANB/ActvzNNKPPzGvCaJh901YoVYIVaIFWJFavcCAKB++itg+Y15OsloAT9OMioZbca8ECvECrFCrGhqrAAAYG1diYfEo3bJaPKJh901YoVYIVYkFisK+HFiRQNjBQBAjXQtMCWjaSYeklHJqFghVogVYkVb5oXCFQDATLoWmAknHnbXpLe2V6QQK1KMFQX8OLFCrBArWhIrAABqqlvN+skCUzLahHlhd405IVaIFWKFWFGTWAEAUHNdvzGXeEhGa5B4KFKIFWKFWCFWiBUAAC3WHd6P8hvz5JPRoV+2ZLQW80KRIq154WixOSFWiBUAAC00hAKWBWbZi37J6DCeh2RUrBArxAqxQqyoSawAAGigkgtYfmMu8ZB41G5OpDIvzAmxQqwQK+oSK6Ych8IVAEBRSipgWWBKRiWjw34mklGxohnzQqwQK8QKAAD+U8EFLImHZLRGiYfdNWnNCfNCrFCkECvECgAAplBQAcsCs+xFv2RUMtqMeSFWiBVihVghVgAAMHsFFLAkHsknHn5jnlbiYXeNWCFWiBVihVgBAMCsDFDAssCUeEhGh/08JKNihVghVogVLY0VAAAtN4cClsRDMirxqOW8sLtGrBArxAqxon6xAgCAiJhVAcsCs+xFv2RUMtqMeSFWiBVihVghVgAAUKw+C1gSj+QTD78xTyvxsLtGrBArxIohPROxooGxAgCA/9C1wKx5Mjr0y5aMSkabMC/ECnNCrBArmhkrAACaqivxkHgM9AMVNAv9cXbXiBVihVghVogVAAD8p64FpmS0eYmH3TXmhFghViQ4LxwtNidSfT8AAGqgm/wCc8px+I25ZLT+80IyKlaIFWKFWCFWAAAws67dNTVIRod+2ZLRWswLRYq05oXdNeaEWCFWJPk8AACaoWuBWd4iUzI6jOchGZWMihVihViRxrwQK9J7TwEAmqNrgZlo4qFIkda8sLvGnBArxAqxon6xYspxKFwBANRN1wJTMioZLfeZSEbFimbMC7FCrBAr0n8eAADN1ZV4hN+YSzzSnRcKmmKFWCFWiBWtjBUAANxedQUsvzGXjEpGE5oXklGxQqwQK8SKVOYFAAD/qZoClsQjnWRU4tHyZHSKH6hIIVaIFWKFWFHPeQEA0FDDLWBZYFZ02ZLRsp+HZFSsECvEilbFiqTnhcIVAEATDaeA5TfmaSUeihRpzQvJqFghVogVYkX9YkUBP07hCgCgf+UWsCwwJaOS0YTmhWRUrBArxAqxojGxAgCgZcorYEk80klGJR4tT0an+IGKFGKFWFHqMxErxIrS5gUAQAsVX8CywKzosiWjktEmzAuxorILFysKjBWFfROxIpV5oXAFAFC54gpYihSS0b7vhd01klGxQqwQK8QKsQIAgP4NXsCywJR4SEYTmheS0VrMC7EirXlhJ545kfK8AAAgIgYtYClSSEYbmnhIRofxPMQKsUKsECvECgAA+tONyFdEZBtbYEo8JKMFzQtFirTmhViR1pzwGSJWiBVT6yl8AQBMpRsRS2u1wCzgx0lGJaOS0RYko2KFWJFqrBj6ZYsVtYkVEz0rUwCAKXQjy26dcd1ld01ayajEo+XJ6BQ/UJFCrBArxAqxot6xYtLCFABgKt3IZ9iBZYFZ0WVLRst+HpJRyahYIVaIFWJFUvPCDiwAgCl1I4t178DyG3OJh8Qj7TmRyrwQK8QKsUKsECuKGcekAhYAwFS6WZ5flUeW1gKzgB8nGZWMNmNeSEbFCrFCrBArWhMrxhWwAACm0s2zzm8jzyUeqSWjEo+WJ6NT/EBFCrFCrBArxIrmxorlmmABAEylm/XiN3kKK3C/MZeMlvDjJKOSUbFCrGhVrEh6XogVM1oxYWUKADCFbm8k+202mVe3yPQb87SSDomHZHRWY1CkECvECrFCrChsDCvGI7IRq1MAgHXo3PzbTf+cR6z892qrPsWrfPX/G3gMQ99JkWhCus6hVTAnUpkXKcyJPMU5Ub95IVaIFWKFWDGbeVHJGPI8YqUeWAAAU+nEl7402YnezywwJR6VZ8qtLWgmOCdCMipWiBViRftiRT5YpXywMSybiH/1JAUA4D90IiJ6Eee3ZoE59FzLb8zLnhd21wxjaHbXVFYJECsKnxdixTDmhVgxazetsioFAJhGZ/XCq/wClt+Yp5OMhmQ0yWTU7pqWx4pcrCg5VlS6u6Y1sUIbgjm7acyqFABgGp2IiPUWLLs4IspZOdldU1kdoP+h2V0jGU0kGVXQTDxWhFgxtAsXK1oVK/KIuNkOLACA6XQiIq46/rLlEXGpBWaJyajdNYX8ODvxhvE8FDTFikTmRStjhZ14rYwVt66K6Ol/BQAwnc4a//v/WWAW/AMlo4XPi9onoxF216QYKxQ0p3n8YoVYIVaUPi+uX2lFCgAwg38VsCbGxz8bERPFJz9tSEb9xrwWiUcKyaiCpliRaqxwtFisECuqiRV5HnGdAhYAwEz+VcBa+p7vXptHnFVl4lH7ZHToyc9cEo8WJqN210zz+O2uESvECrFCrKh0Tty0KmLVpBUpAMAMOrf7P7LsM7VNPFJIRv3GvJDnYXfNMOaF3TVihVghVogVScSKa5ZbjQIA9OF2Baz1Vox9PSJuqtUC02/Mp1ls+415ZRdtd41YIVaIFWKFWDGTicmIG8YCAICZ3a6A9fcTvrciz7IPzz75aUMy6jfmtUg8UkhG7a4RK8QKsUKsECv6+YFXr/DXBwEA+tRZ+x96+cgJEbG0rMSj9sno0JOfuSQeLUxG7a6Z5vHbXSNWVBwrQqwQK8SK//iBvTziymVWogAAffqPAtatbz/3hoj4eNELTL8xH0Yy6jfmQ7/5dteEWCFWlDkvGhMrQqwQK9b6gVcvjxjvWYkCAPS3nBrtruvfRyeyd4+P5C+IiIWDLjALWfMNfXWfYNIR0YhdFIXMizyJG5/wLor6zQuxQqwQK8SKVsWKybD7ioGNLhmP0SXjbgQAbbFqZF3/uvy7f166cN8dFkfEPq1eYCadeLQwGR36ZUtGJaNihVghVjRmXqQUK65aFnH9Opq3ZxGd0ZGhjTDrdKK7wYLh3ZIsi6zbsfwGAOZi5ZSriIULlh4fEX+pZIHpCNAMY9C7ppKL1rum0B8nVogVYoVYMZR5kVqsWDUZ8Te7rwAAZmvKAtZVx1+2PM+yVww98ZCM6l2TauIRKc+LFiWjlTwPsWIY80KsECtaESuuuDViQu8rAIDZmnYf981vv+DLecRpQ1lg+o35NIttyWilyagiRSGJoMb9YkUp80KsECvqFCuWrIq4fqXVJwDAHMzciGBy5L8i4pbGFylSSEb9xryi5yEZHca8ECvECrFiuEMTKxKLFZN5xB9vSWsVmFkIAwD1MWMB6+Z3n/fHPM+fU2ji4TfmfSajfmM+9JsvGS08GXW0WKwQK4Y9L8SKJGPFH2+JWDkx7XfNsiFXlDIVLACgPvr6Uzdjl/zlV/P33X6riLhP1clPIT/Qn7ov9Mf5U/fDeB55u+aEWCFWiBViRZNixdXLI/4+c+P2LMsiG+ZfIRzpRHf9+cO7df4KIQAwdyv7XkXcvGy9oyPiJwOt9/zGfJpx+I15ZRdtd01hz8PuGrFCrBArxIq1LBuP+POt/f2IoW/AsgMLAKiP/n8N9sHTx2Ky+5iIuLZ2C8yhJz9zSTxamIxq3D/N49e7RqwQK8QKsaL2sWK8F3H5Tbf1v+rH0I8QWggDAPUxq33cN7/7vD92OvkhEXHz3BfbFSww/ca8kOdhd80w5oXdNWKFWCFWiBWNiBW9POLyJRErJ/v/kcMuKHVUsACA+ph1I4Ilb7vo51kne2REjKWVeCSYjEb4jXlKyWiE3TUpJqNihVghVqQbK0KsmNMY8vy2nVe3jM/qp2ZDLihlClgAQI3MqZPmTW+78Pw8z58eEb3kEg+/MU+zSJFCMmp3TcuTUbFCrBArhjkvGhMrZjs384j43c0RS8Zm/+OHfYSwo6E6AFAfc1653PLOi76QRfboiFjpN+b9Jh4tTEbtrpnm8dtdI1ZUHCtCrBArxIoZY8Wsi1c3RVy3ck6jsAMLAGBqA/3q7aZ3XPi1rJc9LCJuqdUCc+jJqN01lc2LSHFe2F0jVtS/SCFWiBVixVp6ecSvl8y5eBVZDHUHluIVAFA3A+8dv+ldF54fWe+gmO1fJyxiRes35oUnHo1JRpMuUlQ9N9tQpBArxAqxQqwYYqwY70X8Ysncjg2uNvzdV44PAgD1Usjq5eZ3XHxZZL29IuLHQ008UkhG/ca8gudhd03Z88LumgYWKVoZK0KsGNK8aHWsWDoe8bMbI25dNdCospHhFpSyrgIWAFAvI0V9o7GL/7pk7N53OWXhvPENI+J+MfAfg84TSX5mM4b6/ca86jEUloxGqvOiXnOisGQ0hYsWK8QKsUKsKDtWXLsi4jc33bYDa0DZvG5kQzxCODJ/NGKkE5353eE9gixTOAMA5mplKSuljY594JF5ln0qIjZuVOLRkGRU4tHAeZHCnEhlXihSiBVihVhRdqyY6EX88Za597taWxYxsmje0O5G1sliZL35ESOd6G64YHiPoTPkghkA0CRLRsr4risv+etvFj5wx//NI98pi9hNMioZlYymOy8ko2JFM+aFWCFWDClW3DgWcflNEbeMFzbKrNsZ6s6kTncksu5IRCezAwsAqIuVpe9V3/i4/R/Ri/wDEbGjxEMyWnniIRktdl4oaIoVYsUc7oVYUctYMdaL+OutEdesKHy0nfndoRZ2RhbOu+3n2YEFANRHOTuw1rTykr/8btNDNvvE+MRoFpHtGRGjktHhLfolo5LRZswLsUKsECvEiopiRS+P+Pvy23pdLR0vfshZDLWok2VZdBasXorZgQUA1MfKof7N5g2OOWCzkdHei/M8XhqRbyTxSDzxsLumjzHYXVPJhYsVYoVYIVaUHSsm89t2W/19WcSqydJGnXWHuyupM6/7759nBxYAUB9Lsip+6kZHH7BRb97kS7IsXhIRm0tG2554SEbLfh6SUbFCrBArxIo+jfcirloecfWyiInyL6azoBvZyBCPD643P7LO6uWfAhYAUB/VFLD+5TGPGVm8/dUHZp3sqXnEoyJiUWsTD78xTysZnXIcdtdUdtGKFGKFWCFWlBUr8oi4aWXENSsjblg5tGvJOll0Fo4O7Y5lI53b/7VDBSwAoD4qLmCtYcOX7bVJNtp9bEQcEREPjIj1WpGMFvDjJKOS0WbMC4UrsaIJ80KsqM2c6OURt6yKuGEs4roVQ9lttbbO/NV/DXBI/tW8/V//oIAFANRGOgWs23nunqMbb7zw/pO97KAsi4Mii3tFHhtKPEpIPCSjfYxBkaKSi1bQFCvECrGiyFgx0YtYNhFx86qIm1ZF3DoekVc4obK4/W6osn9cJ4uR9ebf/h8VsACA+ki0gLUOmx27zzYT0d0tz/Jd88h3yyLbNvJYP4/e+llk60XERrVJRgtZwhcw5p5ktFnJaPVjuN23WjG+Q0R0mjUvWhor7MRrVKyIpu7Em8hv21U1ufp/Vk1GrJiMWD4RsWIiYlUvqXezM28kstEh7r5aMPqfP08BCwCoj/oUsIB6WX+PbW7J83wDdwJgLSnsvopQwAIA6mRJxz0AABiezryR4f68+aNuOgBQ/zWUWwAAMBxZJxtq4/ZspHP7xu0AADVlRQMAMCTZkI/QdRbYfQUANIMCFgDAEGSjncg6w2s/2pnfHerPAwAodW3jFgAAlCvrZNEZ7Q7x53WiMy+xhulqaQDAABSwAADKlK0+OpgN68dl0Vno6CAA0CwKWAAAZS62RkeGe3RwQZpHB7PMFiwAYIA1jlsAAFCOrNuJbHR4f3WwMzoy1J8HADC0dY5bAABQvKyTDbUPVTbSic58RwcBgGZSwAIAKFjWyaKzYIh9rzqdGFk4L+1G6f4iIgAwyFLCLQAAKFAW0ZnfjRhSz6csy2Jk4Wjyf+VPDywAYBAKWAAARckiOgtGh7bbKMuy6CyaV4/dTXZgAQCDLCXcAgCAAqwuXmVDLl5ldSgM2X0FAAyo6xYAAAwm62S3HRscVvGq07nt2GBddjUpYAEAA1LAAgAYwL8btg+peDVSg4bt67hHAACDUMACAJijrNuJzrzh/bXBzujIbT226kYBCwAYkAIWAMBsZbcVk7LRkeH8uOy2I4rD+nlF36xsRNtVAGAwClgAALOQdbLI5neH16y9bv2u1mb3FQBQAAUsAIB+ZKuPDI4O58hgFllk80Zuaw5f59s2ooAFAAxOAQsAYAbZ/2/v3mLsus4Cjn/f2ufMjC9RoYjaghYBDwEkaJEICeEBSnlCQmqlNg9t7bYS4iIuQhGqgAeQ4AEeykVISAVEQ4gvCQShRjwBIrVEgzMulcARJTFFCsJ27VxKFDutb3MWDzNOnTR2PDNnn1nn7N9PisYznjnH8yk6Wvuvddbucv2sq1ntuhqV6JbHC7F7ydsHAYBpELAAAG4iS0aOu8hRmdHzlfWzrkYLEn1KmdndGQGAxSZgAQC8zo6Eq6VuTg9pv8XvZfcVADAlAhYAwIbsMnI0w3DVlShLC7Tj6rW/nYAFAEyNgAUADNvG4ew56mZyZ8HM9d1dZdwt9h36upzJYfcAwDAIWADA4GTJiG59h9AsdgllKRuRrAxmV1IZdf5HAwCmRsACABZbru96inI9WGWvB4tnXH+u/FqwGtpB5l1Z7N1lAMDMCVhAPxdw426Sk2oQwAxecK5/zFc/fzVYbXyc+vPlRqjKjefNXD/4vaRwE3ZfAQDTJ2AB/by4vHXP1QwBC2Bwit1XAEAPSwwjAABgaovLsd1XAEAPawwjAABgGnLU2X0FAPRCwAIAYPsy1wMWAEAPBCwAALYtx93XDtQHAJgyAQsAYIimGZu6EtlZVgIA/bHSAAAYoMyc1gNFGbuxNQDQLwELAGCIcjoPUpZG3joIAPROwAIAGKIp7MDKsbsOAgCzIWABAAzRNrtTjrrIkaUkADAbVh0AAAOUZRvLwK6s774CAJgRAQsAYIByq2/9K2X93CsAgBkSsAAAhqjbwjIwU7wCAHaEFQgAwNBkbn4H1vWdV85sBwB2gIAFADA0m41XnbcNAgA7y0oEAGBgNnP3wBx1DmwHAHacgAUAMDBldDtBKiPH3aZiFwBAXwQsAICByfGbRKnrh7UXB14BAG0QsAAABrX6KxF5izDlvCsAoMUljBEAAAzHTd8+mLl+3pW3DAIADRKwAAAGJJdeH7AyclQc1A4ANE3AAgAYiq5EduU1n5dxd+u3FAIANEDAAgAYiHJ991VX1t9K6JB2AGBOCFgAAIOQkbuWoyzbcQUAzB8BCwBgkZUSUTK6XePoViz9AID5ZBUDALBQMqLL9bsKbnyMiCi7xkYDAMwtAQsAYG5lRMb6WVaZESUj3+Bcqxx1kSN3GQQA5peABfSjpDNWAKZmI1Td+OkmXmc7u68AgDknYAG9KONuEvoVwI7LURc5tvsKAJjza0wjAABYXN3uJUMAAOaegAUAsKgLveVx5MhyDwBYgHWNEQAALJ7MjG63s68AgMUgYAEALOIib/eSm2kAAIuztjECAIAFW+CNuyjL7tUDACzQ+sYIAAAWR5aMbu+yQQAAC0XAAgBYIN3eZW8dBAAWjoAFALAgut1LkaPOIACAhSNgAQAswqJueRRlxV0HAYAFXesYAQDAnC/oxl10e5x7BQAs8HrHCAAA5leOSnR7VwwCAFhoAhYAwJzKrsTojpUIZ7YDAAtuZAQAAPMnR12M7nDHQQBgGAQsAIA5U8bd+tsGtSsAYCAELACAOVKWx9HtWTIIAGBQBCwAgDnR7V6KsjI2CABgcAQsAIDGZSnR3bEc2bn/DgAwTAIWAEDDytIouj3LzrsCAAZNwAIAaFCWEt2epchxZxgAwOAJWAAAjel2jaOsLNl1BQCwQcACAGhEWRpF2TV21hUAwOsIWAAAO0y4AgC4NQELAGAHZGbk8ijKyjiyeK8gAMCtCFgAADNUxt16uFqyDAMAuF1WTgAAPcqSkaMucqmLMu4i0m4rAIDNErAAAKYkMyO6EtltRKtRca4VAMAUCFhAL8rKeBJRDQJYPJnrm6gyN/7b2GXVFburAAB6ImABvSh7ltZcxgEAADCVa0wjAAAAAKBlAhYAAAAATROwAAAAAGiagAUAAABA0wQsAAAAAJomYAEAAADQNAELAAAAgKYJWAAAAAA0TcACAAAAoGkCFgAAAABNE7AAAAAAaJqABQAAAEDTBCwAAAAAmiZgAQAAANA0AQsAAACApglYAAAAADRNwAIAAACgaQIWAAAAAE0TsAAAAABomoAFAAAAQNMELAAAAACaJmABAAAA0DQBCwAAAICmCVgAAAAANE3AAgAAAKBpAhYAAAAATROwAAAAAGiagAUAAABA0wQsAAAAAJomYAEAAADQNAELAAAAgKYJWAAAAAA0TcACAAAAoGkCFgAAAABNE7AAAAAAaJqABQAAAEDTBCwAAAAAmiZgAQAAANA0AQsAAACApglYAAAAADRNwAIAAACgaQIWAAAAAE0TsAAAAABomoAFAAAAQNMELAAAAACaJmABAAAA0DQBCwAAAICmCVgAAAAANE3AAgAAAKBpAhYAAAAATROwAAAAAGiagAUAAABA0wQsAAAAAJomYAEAAADQNAELAAAAgKYJWAAAAAA0TcACAAAAoGkCFgAAAABNE7AAAAAAaJqABQAAAEDTBCwAAAAAmiZgAQAAANA0AQsAAACApglYAAAAADRNwAIAAACgaQIWAAAAAE0TsAAAAABomoAFAAAAQNMELAAAAACaJmABAAAA0DQBCwAAAICmCVgAAAAANE3AAgAAAKBpAhYAAAAATROwAAAAAGiagAUAAABA0wQsAAAAAJomYAEAAADQNAELAAAAgKYJWAAAAAA0TcACAAAAoGkCFgAAAABNE7AAAAAAaJqABQAAAEDTBCwAAAAAmiZgAQAAANA0AQsAAACApglYAAAAADRNwAIAAACgaQIWAAAAAE0TsAAAAABomoAFAAAAQNMELAAAAACaJmABAAAA0DQBCwAAAICmCVgAAAAANE3AAgAAAKBpAhYAAAAATROwAAAAAGiagAUAAABA0wQsAAAAAJomYAEAAADQNAELAAAAgKYJWAAAAAA0TcACAAAAoGkCFgAAAABNE7AAAAAAaJqABQAAAEDTBCwAAAAAmiZgAQAAANA0AQsAAACApglYAAAAADRNwAIAAACgaQIWAAAAAE0TsAAAAABomoAF9CIjLpsCAAAAU3BJwAJ6kREXTAEAAIApuCBgAb2oAhYAAADTkAIW0Jt60QwAAADY/uWlgAX0ptiBBQAAwBRUAQvoSU7OGQIAAADbVTPPCVhAT68wccoQAAAA2K6cxDMCFtCLWsrTpgAAAMC2ZX1awAJ60V1Ze8YUAAAA2K616J5JYwB6kvsP3PNyROw1CgAAALboyrnTu/bYgQX0pWbUk8YAAADAlmU8FceOXROwgN5MMj5jCgAAAGxZjccjIgQsoD+TKmABAACwdTU/EyFgAT3aNd7zRERcMgkAAAC24Nq15e6zEQIW0KNnHzx2KSKeNAkAAAA2q0asvvDAExciBCygZ1njMVMAAABg09eTkX93/c8CFtCrSemORsQ1kwAAAGBTl5PX1o5e/0TAAnp1/tC/PBcR/2ASAAAA3K6s8fjZRz73v9c/F7CA3tWMQ6YAAADA7V9H1tdcRwpYQO/Gl8pjNeIlkwAAAOA2XFy7vPtvb/yCgAX07vSjx79aanzSJAAAAHhz9c+ef/TYxRu/ImABM1G6+vsRcdEkAAAAuLl6eVS6P/i6a0qDAWbhzEMnXsyIT5kEAAAAN5efOv3Q8TOv/6qABcxMqfF7EfWySQAAAPAGrsYoP/GG15NmA8zKmSOrpzPyT0wCAACAr1f//NyDTz77Rn8jYAEzdbnGb0bEWZMAAADgBi92JX7jZn8pYAEz9eUjqy/XWj9uEgAAALyq1l8589CJF2/212lCwE7Yf+Cef4qI95gEAADA4H323OHVH4mIerNvsAML2BEl1n4+Ir5iEgAAAIN2KbrJz8Ut4tX6NSTADjh7+F+fiYhfNAkAAIDhyoxfPveXn/uPN/u+zqiAnXLx5Jl/2/vOd3xHRHy/aQAAAAxN/etzh0/8+u18px1YwM6+XOVXfiEivmASAAAAg/LFKzV/+na/WcACdtT5QydfiRr31YiXTAMAAGAQXp6UeP+Xj6y+fLs/IGABO+7ckdUvRI2fiIhXTAMAAGChXZlEfOC5h1ZPbuaHBCygCeePrD5ZMz8YEddMAwAAYCFNIuuB5w6v/uNmf9Ah7kAzXjl5+tQd73r7sxHxvohIEwEAAFgcNeL+84dPPLCVnxWwgKZcPHnm5N53veN/IuInwy5RAACARVCjxsfPH1n9w60+gB0OQJP2feie92aJhyNil2kAAADMrSs146PnD60+sp0HEbCAZu0/eO+PRp08FhFvMQ0AAIC5czGzfuBLh078/XYfSMACmrbvw/d+X+bkbyLiTtMAAACYF/W/JxHvf+7wiX+fxqM5XwZo2vkjx5+6tjS6KzOPmgYAAED7asSnV0ZX7ppWvIqwAwuYI/sP3P2RiPxkROw2DQAAgNbUyzXyV88fXv2jaT+ygAXMlX0H7/reUsuf1sgfNg0AAIBmrE6i/uw0d13dSMAC5lHuP3D3wYj8RES8zTgAAAB2zP/ViN86f/nb/jgefXStt4tAcwbm1dvvu/etV5cnv5sRPxURnYkAAADMzFpGPphrV3/t7MOff6HvJxOwgLm3/2M/9O15td5fM34mIlZMBAAAoDdXo8YjZVJ+5+zDx5+e1ZMKWMDCeNsH79lXunp/RP5SOOgdAABgmq5Ejb9ay/Lbzx8+/sVZP7mABSycb7zvB96yvNy9N2serBk/7rUOAABgizI+X2scyvHS0XN/8c/P79w/A2CB7fvQD35nljxYI9+XEe+MiGIqAAAAN1Uj4qnI+PTaWhx+/ujqf7XwjxKwgMH41o/c/U2TSb67RrwnIn4sIr7HVAAAAOJU1Hw8yuTxGC0f28mdVjcjYAGD9c33vXvvePnSnWtZ78ya3x1RvysiviUi9kbEN2x83BvO0wIAAObTVyPqxYi8EBEvRcTFyPhS1DhVo/5nmeSpqyujUy888MSF1n+R/weGh3UcjFIp4AAAACV0RVh0ZGF0ZTpjcmVhdGUAMjAxOS0wOS0yNVQxNzoxMDozOCswMDowMDimvGkAAAAldEVYdGRhdGU6bW9kaWZ5ADIwMTktMDktMjVUMTc6MTA6MzgrMDA6MDBJ+wTVAAAAAElFTkSuQmCC;" parent="1" vertex="1">
          <mxGeometry x="330" y="439.58" width="43.01" height="40" as="geometry" />
        </mxCell>
        <mxCell id="ii2NFjTAbhS2r2lRkWKy-13" value="업무 담당자" style="outlineConnect=0;fontColor=#232F3E;gradientColor=none;fillColor=#232F3E;strokeColor=none;dashed=0;verticalLabelPosition=bottom;verticalAlign=top;align=center;html=1;fontSize=12;fontStyle=0;aspect=fixed;pointerEvents=1;shape=mxgraph.aws4.user;" parent="1" vertex="1">
          <mxGeometry x="400" y="439.58" width="40" height="40" as="geometry" />
        </mxCell>
        <mxCell id="ii2NFjTAbhS2r2lRkWKy-21" value="" style="endArrow=classic;html=1;startArrow=classic;startFill=1;" parent="1" edge="1">
          <mxGeometry width="50" height="50" relative="1" as="geometry">
            <mxPoint x="160" y="380" as="sourcePoint" />
            <mxPoint x="160" y="280" as="targetPoint" />
          </mxGeometry>
        </mxCell>
        <mxCell id="ii2NFjTAbhS2r2lRkWKy-22" value="" style="endArrow=none;html=1;endFill=0;startArrow=classic;startFill=1;" parent="1" edge="1">
          <mxGeometry width="50" height="50" relative="1" as="geometry">
            <mxPoint x="180" y="380" as="sourcePoint" />
            <mxPoint x="180" y="280" as="targetPoint" />
          </mxGeometry>
        </mxCell>
        <mxCell id="ii2NFjTAbhS2r2lRkWKy-27" value="" style="group" parent="1" vertex="1" connectable="0">
          <mxGeometry x="110" y="30" width="120" height="80" as="geometry" />
        </mxCell>
        <mxCell id="ii2NFjTAbhS2r2lRkWKy-24" value="" style="html=1;verticalLabelPosition=bottom;align=center;labelBackgroundColor=#ffffff;verticalAlign=top;strokeWidth=2;strokeColor=#0080F0;shadow=0;dashed=0;shape=mxgraph.ios7.icons.cloud;" parent="ii2NFjTAbhS2r2lRkWKy-27" vertex="1">
          <mxGeometry width="120" height="80" as="geometry" />
        </mxCell>
        <mxCell id="ii2NFjTAbhS2r2lRkWKy-23" value="비즈뿌리오 서버" style="shape=image;verticalLabelPosition=bottom;labelBackgroundColor=#ffffff;verticalAlign=top;aspect=fixed;imageAspect=0;image=data:image/jpeg,/9j/4AAQSkZJRgABAQAAYABgAAD/4QCMRXhpZgAATU0AKgAAAAgABQESAAMAAAABAAEAAAEaAAUAAAABAAAASgEbAAUAAAABAAAAUgEoAAMAAAABAAIAAIdpAAQAAAABAAAAWgAAAAAAAABgAAAAAQAAAGAAAAABAAOgAQADAAAAAQABAACgAgAEAAAAAQAAATWgAwAEAAAAAQAAAMAAAAAA/+0AOFBob3Rvc2hvcCAzLjAAOEJJTQQEAAAAAAAAOEJJTQQlAAAAAAAQ1B2M2Y8AsgTpgAmY7PhCfv/AABEIAMABNQMBEQACEQEDEQH/xAAfAAABBQEBAQEBAQAAAAAAAAAAAQIDBAUGBwgJCgv/xAC1EAACAQMDAgQDBQUEBAAAAX0BAgMABBEFEiExQQYTUWEHInEUMoGRoQgjQrHBFVLR8CQzYnKCCQoWFxgZGiUmJygpKjQ1Njc4OTpDREVGR0hJSlNUVVZXWFlaY2RlZmdoaWpzdHV2d3h5eoOEhYaHiImKkpOUlZaXmJmaoqOkpaanqKmqsrO0tba3uLm6wsPExcbHyMnK0tPU1dbX2Nna4eLj5OXm5+jp6vHy8/T19vf4+fr/xAAfAQADAQEBAQEBAQEBAAAAAAAAAQIDBAUGBwgJCgv/xAC1EQACAQIEBAMEBwUEBAABAncAAQIDEQQFITEGEkFRB2FxEyIygQgUQpGhscEJIzNS8BVictEKFiQ04SXxFxgZGiYnKCkqNTY3ODk6Q0RFRkdISUpTVFVWV1hZWmNkZWZnaGlqc3R1dnd4eXqCg4SFhoeIiYqSk5SVlpeYmZqio6Slpqeoqaqys7S1tre4ubrCw8TFxsfIycrS09TV1tfY2dri4+Tl5ufo6ery8/T19vf4+fr/2wBDAAkGBwgHBgkIBwgKCgkLDhgPDg0NDh0VFhEYIh4kJCIeISEmKzcuJig0KSEhMEEwNDk6PT49JS5DSEM8SDc8PTv/2wBDAQoKCg4MDhwPDxw7JyEnOzs7Ozs7Ozs7Ozs7Ozs7Ozs7Ozs7Ozs7Ozs7Ozs7Ozs7Ozs7Ozs7Ozs7Ozs7Ozs7Ozv/3QAEACf/2gAMAwEAAhEDEQA/APcaACgAoAKACgAoAKACgAoAKACgAoAKACgAoAKACgAoAKACgAoAKACgAoAKACgAoAKACgAoAKACgAoAKACgAoAKACgAoA//0PcaACgAoAKACgAoAKACgAoAKACgAoAKACgAoAKACgAoAKACgAoAKACgAoAKACgAoAKACgAoAKACgAoAKACgBKACgBaACgD/0fcaACgAoAKACgAoAKACgAoAKACgAoAKACgAoAKACgAoAKACgAoAKACgAoAKACgAoAKACgAoAKACgBM0AFAEU91b24JnnijH+24FVGEpfCrkSqRj8TsZ8niPRYzhtTtc+gkBrVYWu9ov7jB4ygvtL7xYvEWjysAmp2uT2MgFDw1Zbxf3Dji6EtpL7zQinhmGYZY5B6qwNYuLjubxnGXwu5LSKP/S9xoAKACgAoAKACgAoAKACgAoAKACgAoAKACgAoAKACgAoAKACgAoAKACgAoAKACgAoAKACgBKAIbu6t7SBprqeOGNRyzsAKqMZTdoq5M5xgrydji9X+ItnblotLha5cf8tG+VP8AE16NHLJy1qOx5dfNYR0pq5yGo+L9b1EkSXhhjP8ABCNvH1616VLBUaXS55VbMK1TS9jHZmlJaR2dj3Y5NdaSS029DilOUtyW0tp7qdILSF5ZX+6qDJNE5Rpq8nZChTnUlyxV2dzonw+dlEusTFAf+WMR5/Fq8jEZpbSkvme1h8nv71VnY6Xoun6V/wAeNqsR6Fu5/GvMq16lX42evRw1Oj/DRp1idB//0/caACgAoAKACgAoAKACgAoAKACgAoAKACgBMigBaAEoAKAFoAKACgAoAKACgAoAKACgAoATNADZJEjjZ5HVUUZZmOAB700ruyE2krs4TxH8Q7W1L22kKtzMODKfuKfb1r0cPl0p61NEeZicxjT0p6s891LVb7VZjLqFy8zdlJ+VfoOlezSowpK0EeJVrzqu82VV4rU5mPXgigl6mt4f0O61y68m2XCKf3kpHCj/ABrDE4iGHV5b9jqw2FniZ2Wx61oOg2eiQCO1jzIf9ZKR8zn3r52viJ15Xk9D6fDYWnh48sV8zXrA6QoAKAP/1PcaACgAoAKACgAoAKACgAoAKACgAoAKAEoAhuGlSMmGLzH/ALu7Fc9eVSMb048z9bAYd7rGo2zfvbRIl7FskfnXg4nNMbRfv07fiDK6eJrhT+8t43H+yxFZU8/qXtKKI5jSs/ENjcsFdvJcnpJ0/OvVw+b4etpJ8r8/8xqaNdWVgCpBB6EGvVTTV0ULTAWgAoAKACgAoAKACgBCRg80BuYfiTxPp3h6HdeS5nYfJChy7fh2+tb0MPUrPTYwrYiFFa7nkniLxdqXiCQiZ/JtM/LboTge5Pc17mHwlOitFdnhYjFzrPsjFXAGBjj0rrSOFkq9KozY4e9BLNXQNIudb1BLS2BHO53xxGvrWGIrqhT5pbnRhsM8RPljsezaPpdtpFlHa2iBUUcnHLHuTXzVatKrLmkfVUKMaUFGJoVmbBQAUAFAH//V9xoAKACgAoAKACgAoAKACgAoAKACgAoAKAEoAZJGkiFJFDKexFROnGatJXQHH+IdJ+wsJ4Afs7np/cNfJZnln1d+0h8LM5KxhOR6V5cVYxbLmm63daawCt5kHeNj/I9q9LB46rhnvddgVRxO20vVLbU4fNt3G4feQ/eX619ThsVTxEbxZ0RmpLQvZrpuULQAUAFACUAFACMyqpLMAAMkk9KNXsJ6I858YfEaK1MlloJWacfK9weUjP8As+pr0cNgXL3qhw4jFpLlgeX3FxPeTvcXUryzSHLO5ya9inCMFaJ49WUpO7BK0Odky0zNkq1RDJ7aCW5njggQvLIwVVA6mplJRXM9hwg5y5Vue0+E9Bj0LTliwGuZPmmk/vH0+gr5rFYmVebfQ+qwmGjQgl1N2uY6woAKACgAoA//1vcaACgAoAKACgAoAKACgAoAKACgAoAKACgAoASgCC8tkuraSGUZVwR9Pesa9GNam6cuoNaHmt1G9vPJDJ99GKkV8RUpOnOUX0OOWjsVmahIybFtb2axuVuLaQo69+xHoRXTRnKlLmg9SVNxd0ehaBrcGrwZXCTx/wCsj7j3+lfUYTExxCut+qO6lVU0a9dhqLQAUAJkUAZ2t6zYaJZtd6jOsUY6Dqzn0A7mrp05VXyxJlNQV2eOeLfHV/4gZ7e23WlhniNT80nux/pXsYfCQpavVnnVq7nojlRjjHTtXajhmOFWjmmSp1qjJky0zNkqn060+pDPS/hr4d8qIaxdJ87jEAI+6vdvqa8XMcVzP2Udj3sswnKvay3PQa8o9gWgAoAKACgAoA//1/caACgAoAKACgAoAKACgAoAKACgAoAKACgAoAKAEPSgDhfGtr9n1BblRhJl5/3hXzObUOSsprqcldWdzm2avMSOZshd8GtUjNsbaX9xp91Hc2j7ZU9TwR6GuqjOVOSlEhVXTfMj1Dw9rdvrVmJoSFkXiSPupr6OhXjWjdbnq0a0asbo1sj1rc2AkYoA4bxh8RNP0Tfa6dsvb/oQDmNP94j+Q5rroYR1NZaIynVUTyDVtVv9avGu9UuGmmbpnog9FA4FetTpxgrRRxVJNu7Ky1qc8h4qjCY4VaOaZKlUZMmX/OaaM2dH4N0Bte1VY3U/ZIsNM2Mcdl+prlxeJ9jT82deCwrr1Ndke1RRiNFRFCooAVR0A9K+bbbd2fTpJKyJaBhQAUAFABQAUAf/0PcaACgAoAKACgAoAKACgAoAKACgAoAKACgAoAKAEoAx/FGnnUNLkEYzLH86cfpXDj8P7ak+6M60eaJ5m7dR3BwfrXzKjY8xsryPW0YmUmVpHraMTnlMdpmsXOkXyXdo3zDhkJ+Vx6GuqjKVN3RlDEypS5ket6Nr1vq+lNeWYMkiL80IIDBsdPx7V7dKaqpH0WHxEa0OZHj3i/x/rWrSz2CRvplureXJCp/en/eb+gr2aGFpxjzPUJzZx0eOo/E5yTXZZJaHPIlFUjKRItUYyHrVGExwq0c0yVOlUZMu6fZz395Fa2kfmTSthRSnNU48z2CFN1JcsT3Pw1okOhaZFaRDc+d0kmOXY9TXzWIryrTcmfT4agqMFFGxWB0BQAUAFABQAUAFAH//0fcaACgAoAKACgAoAKACgAoAKACgAoAKACgAoAKACgBD0oA8+8Y+HpbeR7+xjL27cyIOsZ9R7eteHjcFKMnUgtOx5+KoNe9E4yR+ODXDFHmSmVZHrojE5pzKztzW0YnO3ct6JrN3ol+lzZv8x4dGPEg9MVrTqOD0N8NXnRleJ3PiPwtbeOtJj1a0t3sNV2YBlQrvA/hb1HvXvYTFyilzbH0sJe2he1jyC+srrTryS0v4HhuYzh0fr7EHuK9mElNXRjJW0ZGOp9utaIyZKtUYSHiqMJjhzVo5pli3ikmljigRpJHOFVRkk+1EpJK7IUXJ2R7N4E8KLoVt9qu1VtQmA3Y58tf7o/xrwcZi3WlaOyPfweEVGN5bnX1xHcFABQAUAFABQAUAFAH/0vcaACgAoAKACgAoAKACgAoAKACgAoAKACgAoAKACgAoAaRxjGfrQBzeseC9L1JmkjRrWY87ouAT6kdK5KmEpzd9jkrYOnV12Zzs3wznLHy9UjK/7cJJ/nWX1Hszz5ZTJvSZLa/DKJWBvNRkcekSBf55q44JLdlwylfbkdPpPhXR9Kw1tZoZR/y0kG5v1rohShDZHfSwlKktEbOOOlanT5GN4l8MaZ4jtfK1GDMij93MvDxn2P8AStaVadN3iyJQUjyXxF8O9Z0dmkto2v7RckPEvzqPdf6ivUo4yFTSWjOSpRktjlCpjco6lHXqrDBFdsWnsck1bcUMB3FUc8jc0Twxq+tyBbK0fyj1mkyqD8e9ZVcTRpfE9QhhqtR6LQ9b8JeDLPw+omfFxekYMzLwvso7CvHxOMnWdtketh8JCjruzqK5DrFoAKACgAoAKACgAoAKAP/T9xoAKACgAoAKACgAoAKACgAoAKACgAoAKACgAoAKACgAoAKACgAoAKACgAoAQ9DQBTu9LsL0f6ZY28//AF0jDVcak47Mlwi90QQeH9Ht23w6XZo3YiEZ/lTdao+ovZQ7GiqhQAoAA6AcCs9dyrD6BhQAUAFABQAUAFABQAUAFAH/1PcaACgBM0AGaLgGaAFoASgBaACgBKACgBaACgBM0ALQAUAFACUAFABQAUALQAlABQAUAGeM9qADNABQAtABQAUAFABQAUAFABQAUAFABQB//9X3GgBKAOb8a+Kl8K2VtcvaPc+fJs2qwXHGa2oUXVdiJy5TkP8AhcUP/QFl/wDAgf4V1fUH/MR7ZC/8Lii/6Akv/f8AH+FL6g+4e28iSD4wWTMBcaTdRqf4kkVqTwEujH7ZHZeHfFWkeIkJ026DSp9+GQbXX/gP9a5qlCpS3RcZqWxuZHrWRQtABQBn65qaaPpF1qEqF0t49+0HG72zVU4c8lETdlc87HxjhIBGiy/jOP8ACu76g+5l7ZAfjHDg/wDEkl/7/j/Cj6g+4e2R6FoGqx61pFrqMKlUuE3bSclecEVwzhyScWaxd1c0qkYUANd1RGZ2CqoJJJwAKFq7Aeb+IPixY2c0kGj2pvGU4MzNtjz7dzXbSwMpLmkzKVW2xzU3xY19zmOGxjB6DYT/ADNdEcDS7mftpBF8V9fU/vbeykA6/IR/Wm8DSezD20jotD+LNncSrDrFk1oXOPNjbcn1PcVz1MDKPwsuNVdT0iGVJoklidXRwGDL0IPSuFqzsbElAGR4n1kaBotxqTwNMIcfuw2M5PrV0qbqS5SZPlVzg/8AhccXH/Ekl/8AAgf4V2/UJdzP2yOm8E+M08VyXaJYva/ZsZ3OGzn6Cuavh/Y2uy4T5i/4v8Qr4Y0j+0HtmuB5qxlFbaec85/Cpo0vaz5Rylyq5xY+MUOf+QLL/wB/x/hXX/Z77mftl2Oq8EeLl8WQ3MqWT2v2dlUhnDZyPYVzV6DouzLhPmOprAsKACgAoAKACgAoAKACgAoA/9b3GgAoA81+OH/IF07/AK+T/wCgmu7A/GzKtseO9K9Q5zqvBngmTxZb3csd8tt9ncIVMe7dkZzmuaviVR3RcYcxm+KvDl74Z1MWl6ySiQeZHKgwHHTH4VrRrRqq6FKLiZtld3Fhdw3dlIY7iE5jYHGPb6fWrlBSVmJO2qPpDw1q6a5olpqEfHnJ849GHBH514NSHJJxOqLurmtUFCHpQBwPxk1D7L4WW1ViHu5gv1Ucn+ldeCjzVLmVV2R4pDG00qQxDc7nao9TXrtpK5ziMpjkZGGCpwR70X6gz2z4M332jwu1qxy1pOy4/wBk8j+deRjYWqXOmk7qx39choIelAHE/Fy/lsfCEqQMVa6lWIkHsev8q6sHFSqamdR2R4TwOAAQPTjj0r2Ecx3Xw68EWviWC5vNQuJlghk8tY4jgsfUmuPFYmVJ2ia04KWpB8RfBlv4Ve0msZ5ZLa4JQJKdzIQM9fSqwuJdbSS1FUhynG4B6jIrqMz3f4SXUtz4Mt/PYuYpHjBPoDxXjYyKjV0Omm7o7WuY0OR+Kf8AyJGofRf/AEIV0YX+KiKnwngP+Fe2cp6j8Df9fq3+6n9a83MNom9E3/jL/wAid/28p/WscF/FHU+E8Pr1znPWvgZ/x56t/wBdU/ka83MPiRvRPUq882CgAoAKACgAoAKACgAoAKAP/9f3GgAoA81+OH/IF07/AK+T/wCgmu7A/GzKtseO16hznrnwO/48NV/67J/6DXm5h8SN6JD8cohs0mbHO50z+AP9KeXvVoKp5RXpGB7T8FblpfDlzAzZEFywA9ARn+teTjo2nc6KL92x6JXEaiUAeL/GrUPP1yzsFb5beHew/wBpj/hivUwELRcjnqvWxzngCz+3eMdMiK7lSXzWGOyit8TLlpMiGrKPiSD7J4i1OAjGy5k/LOf61dJ80EElaR2vwSvvK1e+sWPyzRCRR7qef0Irkx8bxUi6L1PZK8w6BaAPPfjX/wAivb/9fS/yNdmC/iGVXY8Vr1mc57L8Ef8AkX73/r5P8q8rH/xEb0fhK3xy/wCPDSv+ur/yFVl/xMK2x5GelemYHuPwb/5E4f8AXzJ/OvIx38U6KPwnd1yGpyPxS/5EjUfov8xXRhP4pFTY8A/wr2jlPUvgb/r9W/3U/rXm4/aJvR3N/wCMv/Inf9vKf1rLBfxR1PhPD69c5z1r4F/8eerf9dU/ka8zMPiRvSPUq4DYKACgAoAKACgAoAKACgAoA//Q9xoAKAPNfjf/AMgXTv8Ar5P/AKCa7sD8bMq2x47XqHOeufA7/jw1X/rsn/oNebmHxI3pB8cv+PDSv+uzf+g0sv8AiYVtjyKvTMD2D4Hf8grU/wDr4H/oIrzMf8SN6Ox6bXAbCHpQB83+NdQ/tLxXqd1ncnnGNO/yrx/Svdw8OSmkcktZHTfBWz87xDd3ZGRbwbQfdj/hXNj5WgkXRWpj/E+2+zeNr8AcS7ZB+K//AFjW2ElekhVFZkHw8vv7P8Y6bIThZH8lvTDDH88U8THmpMmm7M+icivEOsWgDz341/8AIr2//X0v8jXZgv4hlV+E8Vr1jnPZfgj/AMi/e/8AXyf5V5eP/iI3o/CVvjl/x4aV/wBdX/kKeX/EwrbI8jPSvTMD3H4N/wDInD/r5k/nXkY7+KdFH4Tu65DU5H4p/wDIkah9F/8AQhXRhP4pFT4TwD/CvaOU9S+Bv+v1b/dT+tebmG0Tejub/wAZf+RO/wC3lP61lgv4o6nwnh9euc5618C/+PPVv+uqfyNeZmHxI3pHqVcBsFABQAUAFABQAUAFABQAUAf/0fcaACgDzX43/wDIF07/AK+T/wCgmu7A/GzKtseOnpXqHOeufA7iw1X/AK7L/wCg15mP+JG9IZ8cZALbSo+5kc/pRl61bCtseTfWvUMD2P4IRFNEv5Wzh7nA/BRXlY53mkb0dj0iuE2M/X75dN0W+vXOBBCzD644q6a5ppCloj5kLFiWY5ZiWJ9znNe+lokcdz2P4J2Xl6Le3hH+vnwp9lGK8vHz99I6KSsjnfjVbeX4isrkDia3wfqp/wDr1tgHem0RV3OBt5mtp4p0OGicSA/Q5rtkrpozTsz6gsLhbqzguIzlZYw4I9xXz8laTR1rVXLNIZ578a/+RWtz/wBPS/yNdmB/iGVX4TxUV6zOc9k+CJ/4p+9/6+T/ACrysd/ERvR+Er/HL/jw0r/rq/8AIVWX/EwrbI8jPSvTMD3H4N/8icP+vmT+deRjv4p0UfhO6rkNTkvip/yJGofRf/QhXRhf4qIqbHgP+Fe09jlPUfgbxPq2fRP6152YdDajub/xl/5E/wD7eU/rWOC/ilVfhPD69c5z1r4F/wDHnq//AF2T+Rrzcw+JG9I9SrzzYKACgAoAKACgAoAKACgAoA//0vcaAEoA82+OH/IF07/r5P8A6Ca7sB8bMa2x459K9S5geh/C/wAUaR4es9Qi1S5MDTShkARmyMe1cWMozqSTia0pqO5l/ErxTbeJdTg+w7/slspVXcY3se+O1XhaLpR97cVSak9DkO2cZ9vWuvTqZn0P8PdIbRPC1nbzDbPIPNlH+03OPyxXh4mpz1GzqgrI6U9KwLOG+L+ofZPCTW6N813KsX4Dk/yrqwUeapfsZ1XZHhhO0Z9BXsqxzH0N8OLIWPg3TYyMM8fmN9TzXhYmXNUbOqmtDlPjhb5s9Mux/DK0efqM/wBK6cBLVoiqjyU9K9S5hc+gfhnffbvBunsxy8IMJ/4CcV4eJjy1Gjrg/dOqrBlHCfGK2efwj5kQJEE6OwA7cjP6114KVqplVXunh3UcYr2DnPSPhV4s0nRbK6sdVufsxkl81JHHykemexrzsZRnUlzxNac0iD4q+KNN102VrpU4uEgZnklUHbkgYAz1qsHSlTu5dQqST0RwH1ruMj3P4PRvH4MiLjAkmkZfcZ614+Mf706aS907euU0Oa+ItpJd+DNTjiUswj34AySAQT+grfDPlqomex88KflB9q9t6anIdx8LPEmneH7+8j1OXyYrlV2ykEqpX19PrXHjKTqpOJpTmlubPxS8YaNq2ix6bpV0t1I0okZ0+6oGe/41lhMPUjLmloXUmmrI8v7V6JgevfA6JhpmpTEfI86hT64XmvMx7vJI6KOx6dXAahQAUAFABQAUAFABQAUAFAH/0/caAEPSgDhfiroepa5pllDpVr9okjnLMAwXA2+9deEqxpzbkZ1YtrQ81/4V74r/AOgSf+/yf416H1uj/N+BjySE/wCFe+K/+gQT/wBtk/xo+t0f5vwDkkTQfDjxXK+3+z44v9p51GPyqXjKX8w/ZyO48HfDCHSrqO/1qWO7uoyDHEi/u0Pqc8sfrXHXxrmuWBpGlbc9GAriNRTyKAPNvitoWu6/dWMelWBnt4UZmbeq/MT6H2B/Ou7B1KdNNzepjVi5bHCL8PPFbMqvpRVWYBm81OB612PF0raSIUJHvllbi2s4IFGBGiqB6YGK8aTvJs6ErI5n4maLea54bNtp0Hm3KTI6pkDI5B5Nb4Woqc7smoro8oPw98VkY/shv+/yf416f1uj/MYckj0v4VaTrGi6feWmr2ht1MvmRfOG6jnp715+LnCck4m1NNI7o1yGhDd2sF5ay2tzEskEqFHRhkMD2ojJxd0DV9DyLxB8J9QhneTQJ4ri3JJWGZyrr7A9MV6lPHxatNamEqT6HMTeBfFULENos79vkZWH866Fi6b+0RySCHwL4plO1dFnH++yqP50PFU+sg5JnR6H8JdTuJUfW7mG2gH3o4jvkYemegrmqY6KVoIpUX1PX7CzhsLSG0tYwkMK7VX2rzZScnzM3SsrFikMRlDKVYAqRggjrR6AeT+KPhRM9xJc+HJolRySbWb5Quf7rD+Rr0aGNsuWZjKlrdHI3HgPxVbthtHlfHeORXH9K6liqL+1+Bm4TI4/A/imRtq6Jcg+rFVH86PrNL+ZfcHJM3dI+FOu3citqUsFjD1OG8x/06fmayqY6C+EpUm9z13QdHtdC0yDT7FCsMIxk9WPcn3ry5zc5czN1GyNKpGFABQAUAFABQAUAFABQAUAf//U9xoAKACgAoAKACgAoAKACgAoAKACgAoAKACgAoAKACgAoAKACgAoAKACgAoAKACgAoAKACgAoAKACgAoAKACgAoAKACgD//V9xoAKACgAoAKACgAoAKACgAoAKACgAoAKACgAoAKACgAoAKACgAoAKACgAoAKACgAoAKACgAoAKACgAoAKACgAoAKACgD//W9xoAKACgAoAKACgAoAKACgAoAKACgAoAKACgAoAKACgAoAKACgAoAKACgAoAKACgAoAKACgAoAKACgAoAKACgAoAKACgD//Z;" parent="ii2NFjTAbhS2r2lRkWKy-27" vertex="1">
          <mxGeometry x="27.80000000000001" y="30" width="64.38" height="40" as="geometry" />
        </mxCell>
        <mxCell id="ii2NFjTAbhS2r2lRkWKy-30" value="" style="endArrow=classic;html=1;" parent="1" edge="1">
          <mxGeometry width="50" height="50" relative="1" as="geometry">
            <mxPoint x="160.01999999999992" y="200" as="sourcePoint" />
            <mxPoint x="160" y="130" as="targetPoint" />
          </mxGeometry>
        </mxCell>
        <mxCell id="ii2NFjTAbhS2r2lRkWKy-31" value="" style="endArrow=none;html=1;endFill=0;startArrow=classic;startFill=1;" parent="1" edge="1">
          <mxGeometry width="50" height="50" relative="1" as="geometry">
            <mxPoint x="180.01999999999995" y="200" as="sourcePoint" />
            <mxPoint x="180" y="130" as="targetPoint" />
          </mxGeometry>
        </mxCell>
        <mxCell id="ii2NFjTAbhS2r2lRkWKy-32" value="" style="shape=image;verticalLabelPosition=bottom;labelBackgroundColor=#ffffff;verticalAlign=top;aspect=fixed;imageAspect=0;image=data:image/png,iVBORw0KGgoAAAANSUhEUgAAAQAAAAEACAYAAABccqhmAAAABHNCSVQICAgIfAhkiAAAAAZiS0dEAAAAAAAA+UO7fwAAIABJREFUeJzt3Xd8VNW2B/DfPtMzk0oKIAhIExAiRYpIl4BIlapIs+BFBb32p14Vy1NRH1hQBJULCihcQFHp0ruACAgaAaUTAoT0TDv7/THkGkPKnMmcNmd9P5/7+VwgzuyZnLXO2uXszRACzmFCZnx7cN4NnLUB0AhADQDRADOF8pqEkGBwP4BcAGcBpIPx3QBbh+SsnYzBL/XVmKS3zoqrAw8eBGejAVZd6psRQuTCzwH8C9jwAYu/fDzY/yqoBMDPOZMBy8sAuwdgltAbSQiRF/cB/DPA+y9WPf98ZT9daQLgGXEjwdl7AEsITwMJIfLjl8D4JJZyeV5FP1VuAuAcFmTETQeE+8PfOEKIMsRPkHL5IcbgKetfy0wAnCMKGfFLAZYmb+MIIfLjq5GSNYgxFJT+l6sSQODOH/8dBT8hkYSvQUpW39KVgHDVz2XEfUjBT0ikYT0DXfpSf1vyD4EBP+EL5RpFCFEUE0exlMv/jfH/JoDAVJ/1MI32ExLJ+CXA06R4irBEF8DyCgU/IZGOJQTW9Fz5E3BlhZ+b/U6LfAgxAu6FjTdk8ZePByqAIjxEwU+IUTALPHgQABjnMCEj/hSt7SfESPhZpGTVZvx8fEeIbIvazSGEKIzxjgI476Z2OwghauDdhSvP8xNCjIaz1gICm3kQQoyGs0YCgJpqt4MQogLGawoAXGq3gxCiimiB9vAjxKiY6eqnAQkhhkEJgBADowRAiIFRAiDEwCgBEGJglAAIMTBKAIQYGCUAQgyMEgAhBkYJgBADowRAiIFRAiDEwCgBEGJglAAIMTBKAIQYmFntBpDQcQ5kZIo4dUbEqbMizp7nyMgUkXlBxMUsjkuXObJzOHLzOfLyOArdgNvN4fZwiCLg9wdex2QCBAGwWRlsNgaHDYh2MbicDLExDAnxDNXiGJISBaQkCaiRzFCrpoBaNQJ/ZmUeMk/0gPFzCVztRpCKXc7mOHDYj0Ppfvx21I/0o378eVLEsRMiCgvV/fXZrAx1agtoWE9Ao/omNK5vQpOGJjRtbEJiAmUGraMEoDEZmSJ27PFhz34/fjrgw94Dfpw5J6rdrJDUrC4gtZkJrZqb0SbVhJtamnFNdep1agklABVxDhz+3Y8N27zYusuHLTt9OHFan8EerGuvEdChjRmdO5jRqZ0FN1xvoi6EiigBKOzMORFrN3mxYp0XG7f7cDYjsgO+MsmJArrfYkZaVwt6dbOgZgpVCEqiBKCAfQf9+HqlB9+v8WLPfh84feNlYgxIbWZCvzQrBvS2oFVzM1UHMqMEIJM9P/vw5TceLPneg2PHjX2XD1WdWgKG9LNiaD8r2rakZCAHSgBh9McJEXMXuTF/sQfpx/xqNyei1K9rwsjBVowaakWDurSTfbhQAqiiwiKOJcu9mPV5ETbtoPJebowBndqZcd9IG4b0s8Jhp7KgKigBhOjIH358PNeN2V+6cTGLvkI1xMcxjB1uw4Nj7WhQjwYPQ0EJQKL1W72YNtON79Z4IFLXXhMEAbithwWPPWBH91ssajdHVygBBEEUgaUrPJgyvQi79vrUbg6pQOtUM5552I47brdCoKKgUpQAKuD3A19948Gr0wpxOJ0G9fTk+gYmPPeoHXcOssFEY4blogRQBs6Bxd978MIUCny9a9zAhJefcmBoPytNI5aBEkAp67d68dQrhdi9j0r9SNKquQlTXohCj040RlASJYAr0o/58fiLBfhujVftphAZ3X6rBe+8FIXGDahfAFACQF4+x+R3CvHerCJ4KPYNwWIGHrnfjhcedyDaZex+gaETwOLvPXj0+QKcOkvzeUZ0TXUBU1+JwtB+VrWbohpDJoDT50Q89EwBvlnpUbspRAP6pVnx4ZtRqFXDePOGhvvEcxe6cUOXbAp+8l/frvageZdszF7gVrspijNMBXD+goj7H8/HslXU0Sfl65tmxSfvRCElyRj3RkN8ylXrvWjRLYeCn1Tqu9UetOiWgxU/GONaiegE4PUBT71SgD535SIjkwb6SHDOXxBx+925eHJyAbwRngcitgtwNkPE8PF52LyTFvSQ0HW8yYyvZrkidjPTiPxU2370oVXPHAp+UmVbf/ShTVoOtkTotRRxCeDT+W50G5yDc+ep5Cfhce68iB5DcvDJvMibJYiYBCCKwJMvF+C+x/LhoRk+EmYeL3D/4/l4/KWCiNoHIiLGANxuYNTDeVj0LUU+kd+QvlZ8Pt0Ju03/y4h1nwBycjn6jc7Fpu2R2Ucj2tS5vRnL5kYjNkbfSUDXXYDMixzdB1PwE+Vt2uFD98G5yLyo6/unfhPAufMiut2Rgz37KfiJOvYe8KHroByc1fGAsy4TQCD4c/HLb7RbD1HXoXQ/ut2Rq9tZJ90lgMyLHLcOzcWvRyj4iTb8dsSPHkP02R3QVQLIyeXoPYLu/ER7DqX70WtEDnJy9ZUEdJMAitwcA8bkYe8B6vMTbfrpgB/9R+fBraP1QrpIACIHxk7Kx4ZtEf5kBtG9jdu9GD0xTzeLhXSRAJ773wJ89Q0t8iH6sHCZB8+9Xqh2M4Ki+YVAny9yY/TEfLWbQYhkc953YvRQm9rNqJCmE8Dun33o1D8XRW7NNpGQctntDFu+iUbrVLPaTSmXZrsAF7M4Bt+bR8FPdKuoKHANa/n0aE0mAM6BMRPzcOKUTkZSCCnH8VMixkzKA9doDtBkApj6cRG+X0sj/iQyfL/Gi6kzi9RuRpk0Nwbw8y9+tLstB26PpppFSJXYbAw7V8Qgtam2jiTTVAXg8QCjJ+ZR8JOI43ZzjH44T3PHz2kqAbw6rRD7D9EyXxKZ9h/y49Wp2lofoJkuwMFf/WjdM1tzGZKQcLJagL1rY9GssTa6ApqoADgH/vFUPgU/iXgeL/DAk/mamRXQRAL4fJEbW3fRQz7EGLbu8uHz/2jjiSHVuwB5+RyNOmTrelcVQqSqkSIgfVssXE519xRUvQJ468MiCn5iOGczRLz1ofprA1StADIyRdRvl438Ao10iAhRkDOK4ejOWFVPIla1Anj9vSIKfmJY+QUcr7+vbhWgWgVw7ryIem2zUVRECYAYl8POcGxXLKonq3MvVq0CeGdGEQU/MbzCIo7/m6FeFaBKBZCdy3Ftq8u620CREDnERDOc3BuHmGjlZwRUqQA+meem4Cfkipxcjk/nq7MuQPEKQORAow7ZOPonrfknpFiDeib8ti0WgsJFgOJ7Fa3Z6JU1+E0moEsHC1o1N6m6yCIvn2PvAT82bvfCH+LHjY1h6HazBY3qBwq1346K2LDNi+wc5XJ261Qzbm5jRmwMw9kMEWs3e3H8pLLrNlqnmtHxJnOgVD4jYs0GL85kRNbakSN/+LF2kxdpXSyKvq/iCWD2AvlKnS4dzJj1jhMNr9PGgxYAkH7Mj/GP52OjhANMU5IEvPyUA6OHWa86grqoiGPOQg9emFKI8xfkC4LmTUyY9Y4T7Vr9/RIRRWDBUg8mPZePS5flTURNGprwyVQnbm7z9zZ4fcDMuUV48pVCFBaGpw0MQO8eFvTraUViNYaTp0UsW+WR9Hurqs/muxVPAIp2AbKyOWq2uCzLPn+3dbfg6znRsCr7/QXF4wUGjsnFinWVP+3U9WYzFs6KRlK1iquX8xdEDLs/T5YLtF0rM9YsjEa0q/w2HE73o9OAHNn2u2vR1IQNS2MQH1t+GzZu96HX8By4q7hjvMPB8OUMF/r3uvriWbXBi1EP5SPzovwVh93GcPZAHOIUPHJc0UHApcs9sgR/XAzD3Pddmgx+IPAI6Jz3XZX+YrvcbMGK+ZUHPwAkJwpYsSAaXTqEt4hz2Bm+mumqMPgBoEkjEz58wxnW9y5mNgELPnJVGPxAoOJ77p+OKr2Xw8GwbE7ZwQ8AvbpasH5JtCIj9EVujqXLlT3/QtEEsFCmwz1GD7MhMYigUVNSNYZRw8rfIz45UcCimU7Y7cF/DoedYeEsF5ISw/drvOsOK+rUCu71hva3okG98He3+va0ommQz8s/cp8dDgnfWUnFwX9r54rvHM0am/Da/1Qt0QRLrhgpj2IJIDuHY/1WeR7479xeu/uul1RROyc/6QgpkJMTBUx+MnwXZ2XBUBJjQI9bwv/dd+8U/GvGRDO0SZWehIIN/mL33mVTZFB53VavolPkiiWAleu9sm34EVdJqagV5ZW0sTEMY4ZZQ37dMcOsiA1TvzElSdrrpMiwhDVZYiKU+jCN1OAHAtVWqxbyDy57PIFYUYpiCWCVjB/q9Fl9TAmdKqedIwZa4XCEHsBRDoYRA0NPICUxJq0dcsxbCxKvSibh50MJ/mLOKvyOpIjIBLBmo3wfSi9nCCwvp53jRlT9/LhwvEakq0rwA8CvR5RZvCZnrJSmSAI48qdY7t0vHJYs9+DnX7S9snDfQT+WfH/1AE/TRqar5tpD0a6VOeiBMyOqavCv2ejFHyeUqTRPnRFx9Lgy76VIAti8Q96M5vMBg+/Nxckz2uwKnDwtYsh9efCVkaPCeeemKqBsVQ3+k6dF3PeYsidUb5E5ZoopkgB2/ST/aqqjf4po3TMHn853o1AjjxkXFgUe8mjTK6fM5c9mM3D3kPD03YHAa5n1MSGimHAEf7fBuThxWtmby04FYgZQaCnw7n3KlOeZFwOZetJzBWjaKLhnAcYMt2Ls8ODvnP/+yo05X1U+V5ubz3E43Y+CCpaq9ulhCetGENWTBPTpYcGyVfoYE5Gbw17F4D8jotvgHBz9U/nKUqmYkT0B+P3Awd+U7Z8XFHLs/jm4DNr1ZmlfwfGTgQdywmGsDCX7uBE2SgC4Evxzqxj8d+SqEvxA4KAcvz/wcJucZO8CHPnDTzv/lCE5UUDfW8NX/he7/Var5Hn0SBO+4FdvYLmwiCvy/rJfKenHtDkwp7aRg62wBHl95uZx5OYFl0QtlsBrG1V4gr/sMRulpR+VP3ZkTwC//6H+F6lFUkbsv17pxdcrgl8jbtTZAL2X/aUpETuyJ4ATp7TxZWpJm1QzmjcJvnM3f4kb85cGnwCaNzGhTaqxpgMioewvTYmZB9kTwCmNzs2rScod+vwFjrWbvFi7yYvMC8GPpYy70zhVQFQEBj+gTOzIngAyZNy1Ro/sNoY7BwXfR1/0rRs+X2Cx08Jvg99N6c5BV+8mFKnefikqIvr8pSkRO7IngAuXaAagpAG3WRAfF3xgzl/iKfP/VyY+lmHgbRrdISXMEhNCS3Ra6/OXduGi/LEjewJQcgNLPZBS/v9xQsT23X+tZ9i+2ydpPbpRBwODodWyv6RsBfYFkD0B5OVTAihWu6YgqVT98ms3eImvj/PA3wXr1s4W1K5p7DUBZdFD8APKxI7sV4dbhj0A9Wr0MBtMEr7xskp+Kd0AQQi8J/mLXoIfgCz7Z5YmewIo6wk4I2IMkp452H/Ij4O/Xv3lHfzVj/2Hgv9Sx46wQeIeHxFt0TKPLoIfCAz8yo3qQ4V0amdGg3rBf93zl5Zf6lf0b6U1qCugk072TFTCo+PtSOtqjMHRYMieAKwWuv0A0gbkOAe+rGDhz5dLPX8bGwjne0c6QQC+mO7CNdW1f++zKJC3Zf8Wgl3vHslcToYh/YKf+9+6y4fjFaygPH5KxNZdwdeHQ/paVT0mTWuSqjEsmOGCWeMbKNkUWMchewKo7IAJIxjaX1oAzl9SeYkfzM8UczkZhvU37gNCZenU3oxXn4lSuxkVUiJpy54AlDzmSKuklOBeH7Do28pH+hd964FXwiARdQOu9tTDdvTpod0SNVaB04hkTwAJEla9RaKG15lwS9vgO3OrN3iDWj154RLH6g3Bb/zRsa1ZU4emagFjwNz3Xah9jTbHA5Q47Ur2T15DB4Mtcho73CppGm6BhBF+KT8bmIakbkBp1RIYvvrYpcmxKqkHnoRC9nFGPYy2ysVkkr4Qp02qGU0aBnendkZJu0OMGWbDC1MK4dfHNLgkXi+wbLUHg2+XnuQ6tDHj9Wej8MTkAhlaFrpaNSIgAVyr0fJKCT27WCT/Eh8db5epNcA1NQT07GLByiCOKdcTrxcYPj4P36zyYPm8aPTqJv12/tg/7Ni804dvVip7OGdFlIgd2d/ByP3OcRJW/iklEgcDn3qlAEtXeCCKwKiH80M6hIYxYPY0J+rW1s4NS4nYkf3TNrpOO1+okhLiGQb01l6fe0AvKxLiI2tg9sy5vwI+86KIOx/IC2kZbXwcw1czXbBqZDxAidiR/R3q1zUhSqFDFbXkzkE22DR4s7XZgLsGabBhYbRllw/PvxFaf75tSzPeelH99QEOB0P9uhFQAZhMwA3XG68bcM8I7d39i43TcNvCZcr0Iny3JrSxjkn32UMaTAynGxqbZD8TAFDoYaBWzY2VAFo0NaFVC+0+gNOqhRmpTSP7d8I5MGZSXsgba3461anIHbg8N92ozHsrkgA63KTdYJCDHgbajLBp6KUsjhHj8+ANoRCIjWFYOMulyHr8srQNw4nRwVAkAXS8SSOjKgqwWoCRg7UfXHfdYdPMYJectu/x4elXQxsPaNXchKmT1RkP6NROmV+OImmmfl0BtWsKmj2+O5z6plmRpMASzqpKqsbQN82KJd9Xbd67Tm0BXW+WdrH6/Bx/nhBDmq4LxbSZRejcwYyBIczKTBhrw6YdXnz5tXLrA2rXFHBdHWVmzxSrzdO6WvDp/OCXruqVHsr/YuNG2KqcAMYOt0na6aikPT/78OzrhZKeaQgF58A9j+QjdY0Z9a6VHlgz33Zi734/0o8ps4SyZxflSjNKAGFUI1lAb4mr0Fat92L8E/lhef+ZbzslrYLr3c2CGikCzmaoU5m1TjVj5YJoPPqvArz3SZGs75WVzTF8fB62LIuBVWIhEO1iWPiJC+375Chy0G0oKxlDpVgC6N3NApsVcGtnpWXYDRtghVniNzrrC3fYjoCa9YVb0sVjNgPD+lvx7ix5g68ijAFTX47Crp982LFH3k3wftznwxOTC/Dea9L79alNTXj+UTuef6NQhpb9xWqF5JtIVSi2TC8mmqF7p8gederdXdrny7zI8e3q8GXEb1d7kCnxMAkl7zblEQTg6YflewaipPc/LcJ/vgvtO39onF32gdPut1gQo8A+AMUUXac7tG/kLkBhDGgvcepm3mI3PGHs/nq8gdeUon1rsyZ2De7SQblEdN8/83EkhNOA4mIZmjeRt2gervDOTYomgMF9rXDYNXC1lSC1R1fezycnCoiLlfbZZi8I/5jIZxJfMz6WIanaX5eBz6fOOQ6uElvHcYmxKUpscnYux7D780Ladz9e4u9YCruNYWCfCE4AMdEM/XupX3KWlC/x9JXyTmuJlbj12e6ffdh/OPyjygcO+7H7Z2l96ZJt//2YOgOCv5cYYc+8KK0NmSEcovnTAR/++YL09QFnZBwwHXibRfEt9BR/VO++kdqaJvtxn7Qg/HFf2cEl9QxEOe7+ob52ybbPk7DZaDjNW/xXv3z9tuATWF4+l/w7LDZjjlvS/P6JUyIO/y7fVOA9KqzOVDwB9OhkQcN62lmHvnmnN+iTdvYf8mPLzrIvzoxMMehTZouKOBZUsO9/VS1Y6gl6uurIH36cL3EH3brLJ7kbUVUHDvsxbeZfMxHLVnn+VhFU5MN/u1FQGHq3ZfwT+fjtaHDv9dq7hZLOY5CiYT1TyEecV4XiCYAxYMI47VQBogiMnZSH3LyKf7O5eRxjJuVBrCDGX3o7uCmiD+e4kZUtX187K5vjoznBBfHkMtr8j6fyMWOOW7aLvaTNO3xIG577tyD2eoG7JuQjt5Lu2c69Prz0VtWm5XLzOAaNy6t09mTuQjdmfSFfYpwwTp0j3Bg/l6D4qE9uHkftVpc1dXR4yxtMmPuBq8xHlw/+6seoh/Ow72Dld4q7h1jx6tNRqFPGzjI+H/DRnCI8/lJBSA+oSGGxAO+8FIUJY+xlrk04fkrE828U4Iv/lF+JtLzBhJGDbWjW2AR7GAdvi5cCf73Sg+VrveUmmhtvMGH2NBduvOHvvxNRDATkpOcLKk3cwapbW8AHrzvRp4flb4F46TLHa1MLMW1mkeTBxmDFRjOc2Bun6PRfMVUSABDYxumt6eotQCmLSQB6drWg680WJCYwXLjEsWGbF2s2eOGXMPYjCIGNJW660YwaKQx+P3D0uIg1G7w4fU7ZQbaa1QWkdbWgfh0BJhNwNoNj108+/LjPV2E1oxWMAZ3bm9GxrQUxLoaTZ0SsWOfBsePyNL5ubQFtW5rhcrLACUw/+mRf/ffkQ3ZM+Zc6Dx2plgAyMkVc1za7Sv03QvTOYWc4tisW1ZPV2TpPtQ37UpIEPDBaO2MBhKjhgdE21YIfULECAAJVQMMO2WHrxxGiJy4nw9GdsUhOVC8BqLplb0qSgCcmKLMGnBCteewfdlWDH1C5AgACCzkad8z+29bOhES6mikC0rfHSj7dKdxU37Tf5WSqjYASopY3nneoHvyABioAILBjS5eBOdhczio7QiLJLe3M2PR1jCaewlS9AgACc70z3nJK3qmFEL2xWoGPpzg1EfyARhIAADRtZMKzkxxqN4MQWT0z0YGmjbXzLIwmugDFPF6g3W3ZQS25JURvUpuZsGtlrKa2Y9dMBQAE9tT//AMX7CodxkCIXOw2hrnva+fg0WKaSgBA4BzB15+jrgCJLK8/50ALDR7HpqkuQDHOgYFj87BsVQRvIUwMo29PC5bNjdbMwF9JmkwAQOBct9Zp2fjzJC0QIvpVp5aAPWtiUS1eg9EPDXYBiiXEMyz5LBoOhza/OEIq47AzLP7MpdngBzScAACgZXMTZr2tnTlTQoLFEDipqbWGj4kHNJ4AAGDkYCuee5QGBYm+PDPJgbuHaH9lm2bHAEriHLhrQp6iJ7QSEqoRA62Y/5FLF5WrLhIAEDhTsO/IXKzdLPNmeoRUQdeOFqxcEA2b9m/+AHTQBShmswJLZrvQJlXbfSpiXK1bmPHNv126CX5ARwkACBzTvHJBNFo00d6CCmJszRqbsGJBtCo7+1aFrhIAAFRLYFizKBpNGlISINpwfUMT1i6KRlI1fQU/oMMEAAQO4tywNFqTSyuJsTRrbML6xdGqbuxZFfpsNQJJYN3iGLSmMQGiklYtzFi/JEa3wQ/oOAEAQLV4hnWLo9Gjk8YesSIRr3MHC9Yt1mfZX5KuEwAAxLgYvp8XjeEDdDT0SnRtSD8rVn3pQqzOBvzKovsEAASmCOfPcOF/aEchIrMnJtjx1ceRs2eFbhYCBWv2l25MeLoAbndEfSyiMqsFmP6mE/fdFVmnWUVcAgACx0bfcU8enTVAwqJ6soBFn7hwS9vIG3COiC5Aae1ambF7dQw6d4i8XxhRVse2gWspEoMfiNAEAAA1kgX88J8YPPuIA0LEfkoiF8aAJx60Y/2SGFxTPXIvoIjsApS2eoMX4x7Jx5kM6hKQyiUnCpjznhO9u0f+9HLkprYS0rpa8PP6WAy8jaYKScX6pVlxYEOMIYIfMEgCAIDEBIals134YroLCRreoomoIy6G4bNpTiyb61L9xF4lGeeTXjFysBW/bIzFoD5UDZCAgb2tOLgxFuNGRNYUXzAMMQZQnmWrvJj4bD5OnKaxASO6poaAd1+JwuC+xr0ZGK4CKKl/Lwt+2RSLZyY6YIuQlV2kchYL8OSDdvy6JdbQwQ8YvAIo6eifIh57sYAOI4lw/dIsePvFKDSqT4+SA5QArrJ5pw9PTi7Azr0+tZtCwqh1CzOmvOBA91uMMbofLEoAZeAcWLrCg5feKsSBw3RSsZ5d39CEl59yYEhfqy526VUaJYAKiCIw+Z1CvPxOodpNIRI1aWjC8485MHyAFSZDj3RVLDIXOIeJIAAFBZQf9aRNqhlPT7Tjjj5WWgIeBEoAlVj+A51DoHWCANx+qxX/fMCGbh2pjy8FJYAKHD8l4lA6jQFoVXwcwz132jBhjB3169LtPhSUACqwgu7+msMY0Lm9BfeOtGFoXwvsdhrZqwpKABWg8l876tc14e7BVowaakX9ujSHHy6UAMrhdnOs20IJQE11agkY0s+K4f2tuKklXapyoG+1HJt2+JBPMwCKYgxo2dyMfmkW9O9lRavmdKeXGyWAclD5r4yUJAE9Oplxa2cLenezoEYKDeYpiRJAOVasowQghzq1BHRoY0bn9hZ0am9Gs8YmWqGnIkoAZTh2XMRvR2j6r6quqSEgtakJrZqb0eZGE25qaUZNusNrCiWAMiz/QdtPBLZoaoLfDxw7IaKwUN1xCruN4dpaAhpdJ6BRfRMa1TehSQMTmjY2ITGBbu1aRwmgDFqd/3fYGd543oGJ99rBWOChpfMXRJw8I+L0WRFnMzjOZYq4cJHjwiURWdkc2TkcOXkc+fkcBYUcbg/g9nCIIuDzBQbeTCbAJAA2K4PNxmC3A9FOhmgXQ2wMQ0Jc4H/JSQJSkgTUSBZQq6aAWjUYkhMFKuF1jB4GKqWwiKNak8uq31lLa3mDGZ9Pd6JZYxoZJ+FDHbJSNmzzaSr4TQLw9MN27FgeQ8FPwo66AKVoqfyvW1vAnPdcdMIRkQ1VAKVoJQGMGmrDvnWxFPxEVnR1lZB+1I8jf6o7/VctnuGjN50Y2t/Ym1USZVACKEHtxT+9ulnw6VRnRJ9FR7SFEkAJai3/jXIwTHnBgQfH2mlKjSiKEsAV+QUcm7YrvxNw25ZmzP3Aica0TTVRAdWaV2zY5kORW7npP4sZeOlJB7Z+G0PBT1RDFcAVq9YrV/43aWjC3A+caJNKXz9RF1UAV6xUIAEIAvDoeDv2rImh4CeaQFchAk///X5M3um/OrUEzH7XSbvWEk2hCgDASpmn/+6504b9G2Ip+InmUAUAYOV6eR7/rZ4sYObbTvRLo8An2mT4CsDjAdZvDf/039D+VhzYEEvBTzTN8BXAll1e5OWHb/ovMYHh/f91YsRAWspLtM/wCSCco/+D+ljx0ZvlmaE1AAAC7klEQVRRSEkyfGFFdIISQBgGABPiGN591Ym7h9Bdn+iLoRPA6XMiDv5atem/fmlWfPxWFG1nTXTJ0AlgzQYveIjd//g4hmkvR2H0MFt4G0WIgoydADaFVv4P6B3o69Ndn+idYRMA58APm6RN/yVVY3jvNRrhJ5HDsAlg/yE/Mi6IQf/8yMFWTHvZicRq9MA+iRyGTQA/bA6u/K9bW8BHbzrRuzst6CGRx7AJYNOOist/ixl49AE7XnzcAWcU3fVJZDJsAjhaweafndqbMf11J5o3oY06SGQz7DB2w+uuDu561wpYMMOFjV/HUPATQzBsBTDlXw5cvCTiULofjeubMGqoDWNH2GCjAX5iIHQ2ICEGZtguACGEEgAhhkYJgBADowRAiIFRAiDEwCgBEGJglAAIMTAB4PKeiEEI0SjuFwDkqt0MQogqcgUAZ9VuBSFEBZydEQCkq90OQogKGE8XwPhutdtBCFEB47sFgK1Tux2EEDWwdYxzCMiIPw2w6mo3hxCiFH4WKVm1BMYggvPP1W4OIURBjH/OGEQGADwrrg7c7HeA0c6XhEQ87oUVDVhC1gkBAFj85eMA/0ztZhFClMA/ZQlZJwDgv9vd8nPOZMB6GGAJ6jWMECIvfgnwNGHV888DJZ4FYNXzz4PxSeo1jBAiO4aJxcEPlHoYiKVcngeIs5RvFSFEfuJMlpI1v+TfXHXiBeewICP+O4ClKdcwQoi8+GqkZPVjDJ6Sf3vV48CMwQsxaxCAVYq1jRAip1UQswaVDn6gjAqgWKASiPsAEMbL2zZCiHzEWUi5/BBjKPMwzEoPveMZcSPB2Xs0O0CInvBLYHxSYFyvfJXuCBR4AU8TQJwB8OCO1CWEqIT7APFjwNOksuAHgqgA/vbSWXF14MGD4GwUwGqE3khCSHjxswCfByt7v3iRTzBCOveacwg4H98e4N3AWRsAjQHUABANMDpVkxDZcD+AXHB2BoynBx7nZ+uQnLWTMYhSX+3/AUY4vWMAoGbWAAAAAElFTkSuQmCC;" parent="1" vertex="1">
          <mxGeometry x="340" y="57" width="50" height="50" as="geometry" />
        </mxCell>
        <mxCell id="ii2NFjTAbhS2r2lRkWKy-34" value="" style="endArrow=classic;html=1;" parent="1" edge="1">
          <mxGeometry width="50" height="50" relative="1" as="geometry">
            <mxPoint x="240.0200000000001" y="82" as="sourcePoint" />
            <mxPoint x="330" y="82" as="targetPoint" />
          </mxGeometry>
        </mxCell>
        <mxCell id="ii2NFjTAbhS2r2lRkWKy-36" value="고객" style="outlineConnect=0;fontColor=#232F3E;gradientColor=none;fillColor=#232F3E;strokeColor=none;dashed=0;verticalLabelPosition=bottom;verticalAlign=top;align=center;html=1;fontSize=12;fontStyle=0;aspect=fixed;pointerEvents=1;shape=mxgraph.aws4.user;" parent="1" vertex="1">
          <mxGeometry x="413.49" y="62" width="40" height="40" as="geometry" />
        </mxCell>
        <mxCell id="ii2NFjTAbhS2r2lRkWKy-39" value="" style="endArrow=none;html=1;startArrow=classic;startFill=1;endFill=0;" parent="1" edge="1">
          <mxGeometry width="50" height="50" relative="1" as="geometry">
            <mxPoint x="210" y="420" as="sourcePoint" />
            <mxPoint x="320" y="449.58" as="targetPoint" />
          </mxGeometry>
        </mxCell>
        <mxCell id="ii2NFjTAbhS2r2lRkWKy-45" value="비즈뿌리오 Database" style="image;html=1;labelBackgroundColor=#ffffff;image=img/lib/clip_art/computers/Database_128x128.png" parent="1" vertex="1">
          <mxGeometry x="150" y="389.58" width="40" height="40" as="geometry" />
        </mxCell>
        <mxCell id="ii2NFjTAbhS2r2lRkWKy-46" value="업무용 Database" style="image;html=1;labelBackgroundColor=#ffffff;image=img/lib/clip_art/computers/Database_128x128.png" parent="1" vertex="1">
          <mxGeometry x="150" y="489.58" width="40" height="40" as="geometry" />
        </mxCell>
        <mxCell id="ii2NFjTAbhS2r2lRkWKy-50" value="발송결과 입력" style="text;html=1;align=center;verticalAlign=middle;resizable=0;points=[];autosize=1;rotation=-90;" parent="1" vertex="1">
          <mxGeometry x="155" y="320" width="80" height="20" as="geometry" />
        </mxCell>
        <mxCell id="ii2NFjTAbhS2r2lRkWKy-51" value="DB 조회" style="text;html=1;align=center;verticalAlign=middle;resizable=0;points=[];autosize=1;rotation=-90;" parent="1" vertex="1">
          <mxGeometry x="115" y="320" width="60" height="20" as="geometry" />
        </mxCell>
        <mxCell id="ii2NFjTAbhS2r2lRkWKy-53" value="" style="endArrow=none;html=1;startArrow=classic;startFill=1;endFill=0;" parent="1" edge="1">
          <mxGeometry width="50" height="50" relative="1" as="geometry">
            <mxPoint x="316.51" y="479.58" as="sourcePoint" />
            <mxPoint x="200" y="509.58" as="targetPoint" />
          </mxGeometry>
        </mxCell>
        <mxCell id="ii2NFjTAbhS2r2lRkWKy-54" value="" style="endArrow=classic;html=1;" parent="1" edge="1">
          <mxGeometry width="50" height="50" relative="1" as="geometry">
            <mxPoint x="210" y="400.00000000000006" as="sourcePoint" />
            <mxPoint x="320" y="429.58" as="targetPoint" />
          </mxGeometry>
        </mxCell>
        <mxCell id="ii2NFjTAbhS2r2lRkWKy-56" value="데이터 조회" style="text;html=1;align=center;verticalAlign=middle;resizable=0;points=[];autosize=1;rotation=-15;" parent="1" vertex="1">
          <mxGeometry x="215" y="499.58" width="70" height="20" as="geometry" />
        </mxCell>
        <mxCell id="ii2NFjTAbhS2r2lRkWKy-57" value="데이터 입력" style="text;html=1;align=center;verticalAlign=middle;resizable=0;points=[];autosize=1;rotation=15;" parent="1" vertex="1">
          <mxGeometry x="225" y="439.58" width="70" height="20" as="geometry" />
        </mxCell>
        <mxCell id="ii2NFjTAbhS2r2lRkWKy-64" value="메세지&lt;br&gt;발송요청" style="text;html=1;align=center;verticalAlign=middle;resizable=0;points=[];autosize=1;rotation=-90;" parent="1" vertex="1">
          <mxGeometry x="109" y="145" width="60" height="30" as="geometry" />
        </mxCell>
        <mxCell id="ii2NFjTAbhS2r2lRkWKy-67" value="발송결과&lt;br&gt;업데이트" style="text;html=1;align=center;verticalAlign=middle;resizable=0;points=[];autosize=1;rotation=-90;" parent="1" vertex="1">
          <mxGeometry x="165" y="145" width="60" height="30" as="geometry" />
        </mxCell>
        <mxCell id="ii2NFjTAbhS2r2lRkWKy-68" value="발송결과 조회" style="text;html=1;align=center;verticalAlign=middle;resizable=0;points=[];autosize=1;rotation=20;" parent="1" vertex="1">
          <mxGeometry x="225" y="389.58" width="80" height="20" as="geometry" />
        </mxCell>
        <mxCell id="ii2NFjTAbhS2r2lRkWKy-69" value="알림톡 발송" style="text;html=1;align=center;verticalAlign=middle;resizable=0;points=[];autosize=1;rotation=0;" parent="1" vertex="1">
          <mxGeometry x="248.2" y="56.99999999999997" width="70" height="20" as="geometry" />
        </mxCell>
      </root>
    </mxGraphModel>
  </diagram>
</mxfile>
